<?xml version="1.0" encoding="UTF-8"?>
<svg version="1.1" xmlns="http://www.w3.org/2000/svg" width="775" height="178">
<path d="M0 0 C5.61 0 11.22 0 17 0 C19.42393534 6.92552955 21.27806003 13.8662487 23 21 C23.33 14.07 23.66 7.14 24 0 C30.27 0 36.54 0 43 0 C43 27.72 43 55.44 43 84 C36.73 84 30.46 84 24 84 C21.03 73.605 21.03 73.605 18 63 C17.67 69.93 17.34 76.86 17 84 C11.39 84 5.78 84 0 84 C0 56.28 0 28.56 0 0 Z " fill="#101010" transform="translate(365,38)"/>
<path d="M0 0 C5.94 0 11.88 0 18 0 C18.97540917 3.90163669 19.11461387 6.95112729 19.09765625 10.953125 C19.0962413 11.61334656 19.09482635 12.27356812 19.09336853 12.95379639 C19.08779245 15.05257794 19.07524447 17.15125095 19.0625 19.25 C19.0574819 20.67708179 19.05291954 22.10416525 19.04882812 23.53125 C19.03783088 27.02086832 19.0205828 30.51042356 19 34 C22.465 34.495 22.465 34.495 26 35 C26 23.45 26 11.9 26 0 C32.27 0 38.54 0 45 0 C45 27.72 45 55.44 45 84 C38.73 84 32.46 84 26 84 C26 73.11 26 62.22 26 51 C22.535 51.495 22.535 51.495 19 52 C19 62.56 19 73.12 19 84 C12.73 84 6.46 84 0 84 C0 56.28 0 28.56 0 0 Z " fill="#0F0F0F" transform="translate(579,38)"/>
<path d="M0 0 C2.24566003 -0.0171905 4.48983863 -0.06107399 6.73510742 -0.10522461 C8.16803932 -0.11535399 9.60098372 -0.12386933 11.03393555 -0.13061523 C12.98650269 -0.15248901 12.98650269 -0.15248901 14.97851562 -0.17480469 C19.0937799 0.38201571 20.65352137 1.25465485 23.4519043 4.29516602 C25.18583847 8.55114323 25.70743806 12.16389168 25.7265625 16.74023438 C25.74086052 18.62765602 25.74086052 18.62765602 25.75544739 20.5532074 C25.75518593 21.91380847 25.75424875 23.27440956 25.75268555 24.63500977 C25.75657757 26.04456202 25.76091328 27.45411312 25.76567078 28.86366272 C25.77311244 31.81149098 25.7728566 34.75919943 25.76757812 37.70703125 C25.7617846 41.47068803 25.77872115 45.2338525 25.8019228 48.99742794 C25.81670717 51.9066501 25.81752551 54.81575494 25.81441307 57.72500801 C25.81492387 59.11198464 25.82011603 60.49896825 25.83022499 61.88590813 C25.91986603 75.90281903 25.91986603 75.90281903 22.4519043 81.29516602 C18.66290056 84.50483895 15.44493981 84.67986309 10.5769043 84.69360352 C8.60463867 84.6994043 8.60463867 84.6994043 6.5925293 84.70532227 C5.91254883 84.69903809 5.23256836 84.69275391 4.53198242 84.6862793 C2.45774538 84.67021126 0.38545634 84.68615333 -1.6887207 84.70532227 C-3.00356445 84.70145508 -4.3184082 84.69758789 -5.6730957 84.69360352 C-6.87192383 84.69021973 -8.07075195 84.68683594 -9.3059082 84.68334961 C-12.88135803 84.25526488 -14.72883139 83.510571 -17.5480957 81.29516602 C-19.90373396 77.76492067 -19.81292715 74.5733912 -19.83862305 70.40283203 C-19.84534027 69.71777588 -19.8520575 69.03271973 -19.85897827 68.3269043 C-19.87794012 66.06755272 -19.88188131 63.80849841 -19.8840332 61.54907227 C-19.89046176 59.97492858 -19.89719016 58.40078608 -19.90420532 56.8266449 C-19.91617306 53.528933 -19.91988661 50.23132583 -19.91870117 46.93359375 C-19.91849786 42.71222716 -19.94581423 38.49153287 -19.98024559 34.27032566 C-20.00250364 31.01975939 -20.00653908 27.7693553 -20.00548172 24.51872063 C-20.00783879 22.96261208 -20.01666836 21.40649913 -20.03214645 19.85046577 C-20.05178821 17.67213189 -20.04597756 15.49525285 -20.03393555 13.31689453 C-20.03678558 12.07875504 -20.03963562 10.84061554 -20.04257202 9.56495667 C-19.45734047 5.69503494 -18.26905762 4.0538084 -15.5480957 1.29516602 C-11.06739322 -0.94518523 -4.98256958 0.02659252 0 0 Z M-1.5480957 16.29516602 C-1.64150004 17.92191379 -1.66554741 19.55270653 -1.66162109 21.18212891 C-1.66154556 22.22313248 -1.66147003 23.26413605 -1.66139221 24.33668518 C-1.65623093 25.46896042 -1.65106964 26.60123566 -1.64575195 27.76782227 C-1.64433701 28.92060165 -1.64292206 30.07338104 -1.64146423 31.26109314 C-1.63584576 34.95997665 -1.62329012 38.65880066 -1.6105957 42.35766602 C-1.60558308 44.85831619 -1.60101977 47.3589673 -1.59692383 49.85961914 C-1.58587032 56.0048219 -1.56911422 62.14998971 -1.5480957 68.29516602 C1.0919043 68.29516602 3.7319043 68.29516602 6.4519043 68.29516602 C6.47717122 60.907885 6.4947359 53.52061504 6.50683594 46.13330078 C6.51187793 43.61799707 6.51871132 41.1026963 6.52734375 38.58740234 C6.53941524 34.98086827 6.54513379 31.37437279 6.54956055 27.76782227 C6.55472183 26.63554703 6.55988312 25.50327179 6.56520081 24.33668518 C6.56527634 23.29568161 6.56535187 22.25467804 6.56542969 21.18212891 C6.5687606 19.7997982 6.5687606 19.7997982 6.57215881 18.38954163 C6.6856241 16.30708239 6.6856241 16.30708239 5.4519043 15.29516602 C1.64950055 14.81780548 1.64950055 14.81780548 -1.5480957 16.29516602 Z " fill="#0F0F0F" transform="translate(548.548095703125,37.704833984375)"/>
<path d="M0 0 C1.0063655 2.43504509 2.00526413 4.87270864 3 7.3125 C3.42925781 8.34793945 3.42925781 8.34793945 3.8671875 9.40429688 C5.08910744 12.41545674 6 14.71886984 6 18 C4.741875 18.350625 3.48375 18.70125 2.1875 19.0625 C-2.89491353 20.73255058 -7.01753732 23.38472932 -11.421875 26.37890625 C-13.89304779 27.93274975 -16.26126464 29.00991761 -19 30 C-15.4442884 43.5148648 -15.4442884 43.5148648 -6 53 C-4.68 53 -3.36 53 -2 53 C-1.67 52.01 -1.34 51.02 -1 50 C1.79870027 48.60064987 3.90498792 48.74734595 7 49 C8.66796875 50.1171875 8.66796875 50.1171875 10 52 C10.3359375 54.8984375 10.3359375 54.8984375 10.375 58.375 C10.68885579 64.9796175 12.2875037 70.02021764 14.85546875 76.06640625 C16.30698361 79.78684195 16.76665572 83.03314716 17 87 C16.01 87.33 15.02 87.66 14 88 C15.98 90.97 17.96 93.94 20 97 C21.32678517 94.34642965 21.59532007 91.8026609 22.0625 88.875 C22.23910156 87.77929688 22.41570312 86.68359375 22.59765625 85.5546875 C22.73042969 84.71164063 22.86320312 83.86859375 23 83 C23.99 82.67 24.98 82.34 26 82 C26.11085937 81.26523438 26.22171875 80.53046875 26.3359375 79.7734375 C27.02591775 76.89175528 28.02726294 75.09747578 29.625 72.625 C31.56888343 69.25972204 32 68.10673258 32 64.0625 C31.26023158 60.7265971 31.26023158 60.7265971 28 59 C27.67 58.01 27.34 57.02 27 56 C25.88625 55.855625 24.7725 55.71125 23.625 55.5625 C20 55 20 55 18 54 C18.495 55.98 18.495 55.98 19 58 C17.68 58 16.36 58 15 58 C14.8046875 56.07942708 14.609375 54.15885417 14.4140625 52.23828125 C14.08210179 49.94702231 14.08210179 49.94702231 13 47.78125 C11.61677317 43.93415037 11.53835169 40.24747005 11.375 36.1875 C11.31699219 35.00510742 11.31699219 35.00510742 11.2578125 33.79882812 C11.16411156 31.8662462 11.08099221 29.93315624 11 28 C12.09957031 28.02191406 13.19914062 28.04382813 14.33203125 28.06640625 C17.89954613 28.00181865 19.77262732 27.30839433 23 26 C25.3125 26.375 25.3125 26.375 27 27 C27.495 28.98 27.495 28.98 28 31 C29.670625 31.185625 29.670625 31.185625 31.375 31.375 C35 32 35 32 37 34 C37.8125 36.3125 37.8125 36.3125 38 39 C36.5625 41.8125 36.5625 41.8125 35 44 C35.763125 44.226875 36.52625 44.45375 37.3125 44.6875 C40.72949567 46.35626533 41.45228469 47.53606574 43 51 C44.55162042 56.08155687 44.99727583 60.4988285 44.8046875 65.81640625 C45.14649586 69.63782373 46.6909571 73.05169648 48.125 76.58203125 C49 79 49 79 49 82 C47.02 82.33 45.04 82.66 43 83 C43.43928059 88.49100742 44.75974452 91.5814698 48 96 C48.69429379 97.3191582 49.37530495 98.64649406 50 100 C48.68 101.32 47.36 102.64 46 104 C40.16678216 102.05559405 38.14938053 98.63436972 35.19921875 93.5703125 C34.00970958 91.02081075 33.42216182 88.77136818 33 86 C30.88558299 90.72685787 30.3496855 95.24898999 29.7578125 100.35546875 C29 103 29 103 27.08203125 104.421875 C24.19581325 105.22330139 22.72086015 104.12816153 20 103 C17.38043306 103.3924539 17.38043306 103.3924539 15 104 C10.91084731 99.58595572 7.36549594 95.5658728 5 90 C3.02 90 1.04 90 -1 90 C-1.23783203 91.26457031 -1.23783203 91.26457031 -1.48046875 92.5546875 C-1.71378906 93.65039062 -1.94710937 94.74609375 -2.1875 95.875 C-2.40792969 96.96554688 -2.62835938 98.05609375 -2.85546875 99.1796875 C-4 102 -4 102 -6.42578125 103.5078125 C-9 104 -9 104 -12 102 C-13.0185839 94.36062074 -10.4978654 85.9614598 -7.8125 78.859375 C-6.9190454 75.71510208 -7.02272749 74.70775013 -8.375 71.8125 C-9.57836245 69.1598706 -10 68.00557503 -10 65 C-10.66 65 -11.32 65 -12 65 C-12.25450928 63.89624023 -12.50901855 62.79248047 -12.77124023 61.65527344 C-14.06627291 56.48591635 -15.8491344 51.52310813 -17.66015625 46.515625 C-18.0100914 45.53760925 -18.36002655 44.55959351 -18.7205658 43.55194092 C-19.83095547 40.44999334 -20.94637625 37.34988851 -22.0625 34.25 C-23.18152121 31.13559539 -24.29942873 28.02080226 -25.41514587 24.9052124 C-26.10753472 22.97237805 -26.80192655 21.04025978 -27.49855042 19.10894775 C-27.81235153 18.23413757 -28.12615265 17.35932739 -28.44946289 16.45800781 C-28.72544815 15.69159973 -29.00143341 14.92519165 -29.28578186 14.13555908 C-29.96465294 12.10569002 -30.5121897 10.08316069 -31 8 C-29.68 8 -28.36 8 -27 8 C-27 8.66 -27 9.32 -27 10 C-21.31882478 8.14070629 -16.85165683 5.77055937 -11.98046875 2.3046875 C-8.04361631 -0.28882081 -4.58682207 -0.08654381 0 0 Z M16 39 C15.52741532 41.67797986 15.60782437 43.38713772 17.08984375 45.703125 C18.63488296 47.45717482 20.00922749 48.76989384 22 50 C25.71984917 50.06304829 27.91536454 49.99528334 30.70703125 47.43359375 C31.13371094 46.96050781 31.56039062 46.48742187 32 46 C31.44570312 45.84144531 30.89140625 45.68289062 30.3203125 45.51953125 C24.32933105 43.59005146 24.32933105 43.59005146 22.5 40.3125 C22.335 39.549375 22.17 38.78625 22 38 C19.84365964 38 18.07553648 38.4465236 16 39 Z M-9 59 C-7.68 59.99 -6.36 60.98 -5 62 C-4.67 61.01 -4.34 60.02 -4 59 C-5.65 59 -7.3 59 -9 59 Z M-6 67 C-5.42547254 70.93075644 -5.42547254 70.93075644 -3 74 C-0.41222792 70.94419026 -0.41222792 70.94419026 0 67 C-1.98 67 -3.96 67 -6 67 Z " fill="#555897" transform="translate(90,24)"/>
<path d="M0 0 C6.27 0 12.54 0 19 0 C20.98 13.86 22.96 27.72 25 42 C26.98 28.14 28.96 14.28 31 0 C37.27 0 43.54 0 50 0 C47.34834452 17.26980539 44.32752905 34.44892259 41.0534668 51.61132812 C40.423861 54.91556571 39.79937447 58.22068541 39.17754841 61.52639008 C38.57651724 64.71621777 37.96964713 67.90493279 37.36328125 71.09375 C37.14037918 72.27884155 36.91747711 73.46393311 36.68782043 74.68493652 C36.48057846 75.76537231 36.27333649 76.84580811 36.05981445 77.95898438 C35.87868607 78.91172241 35.69755768 79.86446045 35.51094055 80.84606934 C35 83 35 83 34 84 C32.58429877 84.08651611 31.164405 84.10704904 29.74609375 84.09765625 C28.89208984 84.09443359 28.03808594 84.09121094 27.15820312 84.08789062 C26.26037109 84.07951172 25.36253906 84.07113281 24.4375 84.0625 C23.53580078 84.05798828 22.63410156 84.05347656 21.70507812 84.04882812 C19.46998686 84.03700225 17.23502563 84.0205222 15 84 C13.48609653 75.94924674 11.97323363 67.89829888 10.46161938 59.84711552 C9.75932683 56.10672493 9.05670527 52.36639684 8.35327148 48.6262207 C0 4.20730785 0 4.20730785 0 0 Z " fill="#0F0F0F" transform="translate(650,38)"/>
<path d="M0 0 C2.97922593 -0.02683987 5.95821295 -0.04676037 8.9375 -0.0625 C9.78763672 -0.07087891 10.63777344 -0.07925781 11.51367188 -0.08789062 C12.32255859 -0.09111328 13.13144531 -0.09433594 13.96484375 -0.09765625 C14.7137085 -0.10289307 15.46257324 -0.10812988 16.23413086 -0.11352539 C18 0 18 0 19 1 C19.43332681 3.79153694 19.81199545 6.57211763 20.15625 9.375 C20.2634436 10.21466309 20.37063721 11.05432617 20.4810791 11.91943359 C20.94147923 15.52687893 21.39186798 19.13555912 21.84326172 22.74414062 C22.17334404 25.37153904 22.50841444 27.99826778 22.84375 30.625 C22.94482056 31.44790527 23.04589111 32.27081055 23.15002441 33.11865234 C23.31965595 36.87269588 23.31965595 36.87269588 25 40 C25.21934204 38.39560059 25.21934204 38.39560059 25.44311523 36.75878906 C25.98695304 32.78517462 26.53369063 28.81196363 27.08129883 24.83886719 C27.317766 23.12022571 27.55344985 21.40147626 27.78833008 19.68261719 C28.1263501 17.20999718 28.46719825 14.73778093 28.80859375 12.265625 C28.91280136 11.49881409 29.01700897 10.73200317 29.12437439 9.94195557 C29.59452987 6.55570009 30.16943464 3.32226145 31 0 C37.27 0 43.54 0 50 0 C48.21293792 9.9193432 46.42285534 19.83812839 44.62750435 29.75597477 C43.79390029 34.36163839 42.96160288 38.96753004 42.13232422 43.57397461 C41.33142532 48.02249743 40.5270516 52.4703793 39.72030258 56.91784477 C39.41368606 58.61160522 39.10830535 60.30558988 38.80420303 61.99980354 C38.37684416 64.3794687 37.94502959 66.75828628 37.51220703 69.13696289 C37.32662735 70.17922279 37.32662735 70.17922279 37.13729858 71.24253845 C36.33329454 75.62788685 35.23552629 79.67565799 34 84 C27.73 84 21.46 84 15 84 C11.64887943 67.46359563 8.42737694 50.90701438 5.3503418 34.31738281 C4.67488257 30.68209359 3.99271609 27.04809785 3.31054688 23.4140625 C2.8771968 21.08340904 2.44423859 18.75268268 2.01171875 16.421875 C1.80866623 15.34492371 1.60561371 14.26797241 1.39640808 13.15838623 C1.21233902 12.15833557 1.02826996 11.15828491 0.83862305 10.12792969 C0.67605515 9.25513367 0.51348724 8.38233765 0.34599304 7.48309326 C-0.00620253 4.95548619 -0.06128875 2.54854141 0 0 Z " fill="#0F0F0F" transform="translate(411,38)"/>
<path d="M0 0 C2.375 1.625 2.375 1.625 4 4 C4.72125695 8.40768137 4.52001338 10.25937488 1.9375 13.9375 C-1.74062512 16.52001338 -3.59231863 16.72125695 -8 16 C-10.4375 14.1875 -10.4375 14.1875 -12 12 C-12 11.01 -12 10.02 -12 9 C-13.5778125 9.680625 -13.5778125 9.680625 -15.1875 10.375 C-18.10825453 11.62760001 -21.04294668 12.83510021 -24 14 C-23.67 14.763125 -23.34 15.52625 -23 16.3125 C-22 19 -22 19 -22 22 C-21.113125 22.103125 -20.22625 22.20625 -19.3125 22.3125 C-16 23 -16 23 -13.3125 24.625 C-12.549375 25.07875 -11.78625 25.5325 -11 26 C-10.01 25.67 -9.02 25.34 -8 25 C-7.29508733 22.67793475 -6.62787571 20.34406932 -6 18 C-3.074084 16.537042 -1.24382653 16.55476891 2 17 C7.68275703 21.75765705 8.598027 27.95594056 10 35 C13.37813775 33.79110121 15.02484364 32.97515636 17.625 30.375 C18.40875 29.59125 19.1925 28.8075 20 28 C20.99 28 21.98 28 23 28 C23.495 26.515 23.495 26.515 24 25 C26.84083641 23.57958179 28.85477278 23.68547728 32 24 C34.375 25.625 34.375 25.625 36 28 C36.50299316 32.10777749 36.32749345 33.50875983 34 37 C34.7425 37.433125 35.485 37.86625 36.25 38.3125 C43.09477085 45.00170787 43.68163882 54.87895221 44 64 C42.68 64 41.36 64 40 64 C40.22816406 64.74765625 40.45632812 65.4953125 40.69140625 66.265625 C40.97886719 67.25046875 41.26632813 68.2353125 41.5625 69.25 C41.85253906 70.22453125 42.14257812 71.1990625 42.44140625 72.203125 C42.99249836 74.96243932 42.93789609 76.3912824 42 79 C40.68 79.33 39.36 79.66 38 80 C35.51110752 76.43258745 33.45044271 73.10958767 32 69 C31.01 72.3 30.02 75.6 29 79 C26.525 79.495 26.525 79.495 24 80 C23 79 23 79 22.8125 75.875 C23.00834448 71.82754737 23.75145036 68.82368327 25 65 C24.67 64.67 24.34 64.34 24 64 C23.85884839 61.32941149 23.95752893 58.67567762 24 56 C22.35 56 20.7 56 19 56 C18.814375 55.05125 18.62875 54.1025 18.4375 53.125 C16.9341272 47.70172183 13.33742812 43.43503149 10 39 C9.566875 40.19625 9.13375 41.3925 8.6875 42.625 C7.70994428 45.25652441 6.6760924 47.62289922 5.375 50.125 C3.01333429 55.06302831 2.63291605 58.42479845 4.25 63.625 C5.1944231 66.22760375 6.01583003 68.0211067 7.6875 70.25 C9.45615992 72.60821323 9.37847241 74.1236097 9 77 C7 79 7 79 4.1875 79.5 C0.67620742 78.94920901 0.27541665 78.59765431 -1.875 76 C-2.57625 75.01 -3.2775 74.02 -4 73 C-4.309375 73.804375 -4.61875 74.60875 -4.9375 75.4375 C-6 78 -6 78 -7 79 C-8.99958364 79.04080783 -11.00045254 79.04254356 -13 79 C-16.80867974 72.33481045 -16.89538226 65.53125266 -16 58 C-14.35625631 52.88613074 -12.18141213 49.10086131 -8.25 45.4375 C-5.03758301 41.95738159 -5.11022167 38.59924962 -5 34 C-5.70125 34.226875 -6.4025 34.45375 -7.125 34.6875 C-10.87488575 35.09509628 -12.69456291 33.68788277 -16 32 C-18.29887008 32.19530151 -18.29887008 32.19530151 -20 33 C-23.24432217 28.74881923 -24.73139837 24.94834814 -26.140625 19.8125 C-27.69597881 14.72225117 -29.88018536 9.87641155 -32 5 C-30.9275 4.731875 -29.855 4.46375 -28.75 4.1875 C-25.09572139 3.26363791 -25.09572139 3.26363791 -22.875 1.375 C-20.4721612 -0.38708178 -18.91020075 -0.24251673 -16 0 C-15.01 1.98 -14.02 3.96 -13 6 C-12.5875 5.21625 -12.175 4.4325 -11.75 3.625 C-8.50321115 -1.24518328 -5.53792946 -1.61522943 0 0 Z M25 37 C22.98507432 38.4086817 22.98507432 38.4086817 21.25 40.4375 C20.63640625 41.09621094 20.0228125 41.75492188 19.390625 42.43359375 C18.70226562 43.20896484 18.70226562 43.20896484 18 44 C19.78831775 47.05763218 19.78831775 47.05763218 22 50 C22.99 50 23.98 50 25 50 C26.32 46.04 27.64 42.08 29 38 C27.68 37.67 26.36 37.34 25 37 Z M-6 69 C-5 71 -5 71 -5 71 Z " fill="#575A9A" transform="translate(183,48)"/>
<path d="M0 0 C11.22 0 22.44 0 34 0 C36 8 36 8 36 16 C30.39 16 24.78 16 19 16 C19 22.27 19 28.54 19 35 C23.29 35 27.58 35 32 35 C32 40.28 32 45.56 32 51 C25.565 51.495 25.565 51.495 19 52 C19 56.62 19 61.24 19 66 C24.61 66.33 30.22 66.66 36 67 C35.43494693 73.02723272 34.49994998 78.00020008 33 84 C22.11 84 11.22 84 0 84 C0 56.28 0 28.56 0 0 Z " fill="#0F0F0F" transform="translate(703,38)"/>
<path d="M0 0 C0.99 0.33 1.98 0.66 3 1 C2.731875 1.556875 2.46375 2.11375 2.1875 2.6875 C1.73088502 5.17877586 1.73088502 5.17877586 3.75 7.375 C7.11968085 10.48839526 11.24989141 12.26693999 15.37890625 14.1796875 C18 16 18 16 22 23 C15.565 29.93 15.565 29.93 9 37 C7.35 35.35 5.7 33.7 4 32 C2.09613541 30.62269593 2.09613541 30.62269593 0.1875 29.5625 C-2.80530946 27.76111374 -5.67672376 25.87124303 -8.5 23.8125 C-9.1703125 23.32394531 -9.840625 22.83539063 -10.53125 22.33203125 C-11.0159375 21.89246094 -11.500625 21.45289062 -12 21 C-12 20.34 -12 19.68 -12 19 C-18.38016075 24.07512787 -21.86394136 27.91349231 -24 36 C-24.66 36.66 -25.32 37.32 -26 38 C-25.2575 38.309375 -24.515 38.61875 -23.75 38.9375 C-19.69408797 41.97943402 -18.24282649 45.12173986 -17 50 C-15.56661649 63.63886124 -15.56661649 63.63886124 -19.0625 68.9375 C-21.29094369 72.45987873 -21.49975975 74.02677522 -20.7421875 78.015625 C-18.93305311 82.85267904 -15.18745364 86.12231688 -11.125 89.125 C-9 91 -9 91 -8.5 93.5625 C-9 96 -9 96 -10.1875 97.875 C-12 99 -12 99 -14.328125 98.76953125 C-20.02348284 97.12920158 -25.17172455 92.61440259 -28.5 87.75 C-30 85 -30 85 -31 82 C-32.29142736 85.44380628 -33.09855202 88.53973517 -33.375 92.1875 C-34 96 -34 96 -35.75 98.125 C-38 99 -38 99 -40.6875 98.25 C-43 97 -43 97 -44 96 C-45.11430069 87.28653397 -43.23995038 78.3343611 -37.953125 71.26171875 C-36.52330126 69.59105591 -35.08619767 67.92658584 -33.640625 66.26953125 C-31.92395136 63.89479939 -31.47687317 62.76007252 -31.5 59.875 C-31.7475 58.451875 -31.7475 58.451875 -32 57 C-33.485 57.495 -33.485 57.495 -35 58 C-37.48046875 57.00390625 -37.48046875 57.00390625 -40.1875 55.5625 C-41.08855469 55.08941406 -41.98960937 54.61632812 -42.91796875 54.12890625 C-43.60503906 53.75636719 -44.29210937 53.38382813 -45 53 C-47.475 55.475 -47.475 55.475 -50 58 C-50.99 57.67 -51.98 57.34 -53 57 C-52.195625 56.13375 -51.39125 55.2675 -50.5625 54.375 C-48.03075864 51.37123907 -47.28342624 48.96796738 -47 45 C-44.525 44.505 -44.525 44.505 -42 44 C-41.67 43.01 -41.34 42.02 -41 41 C-39.68352881 40.30062468 -38.34977849 39.63270867 -37 39 C-36.67 38.34 -36.34 37.68 -36 37 C-36.66 37 -37.32 37 -38 37 C-40.34168764 33.48746854 -40.49623677 32.13530644 -40 28 C-38.04734702 24.6204083 -36.82728805 23.28775237 -33.125 22 C-29.35277475 22 -27.28664871 23.24223801 -24 25 C-14.96571171 16.09995752 -14.96571171 16.09995752 -6.46875 6.69140625 C-4.42440477 4.33714698 -2.23766801 2.16985989 0 0 Z M-33 39 C-33.99 40.485 -33.99 40.485 -35 42 C-34.01 42.495 -34.01 42.495 -33 43 C-32.34 41.68 -31.68 40.36 -31 39 C-31.66 39 -32.32 39 -33 39 Z " fill="#545793" transform="translate(309,29)"/>
<path d="M0 0 C10.89 0 21.78 0 33 0 C34.32 5.28 35.64 10.56 37 16 C33.37 16 29.74 16 26 16 C26 38.44 26 60.88 26 84 C19.73 84 13.46 84 7 84 C7 61.56 7 39.12 7 16 C3.37 16 -0.26 16 -4 16 C-2.94278557 10.41186657 -1.80808482 5.42425446 0 0 Z " fill="#0F0F0F" transform="translate(489,38)"/>
<path d="M0 0 C0.33 2.97 0.66 5.94 1 9 C-0.60256108 9.50512244 -2.20711792 10.00391627 -3.8125 10.5 C-4.70582031 10.7784375 -5.59914063 11.056875 -6.51953125 11.34375 C-9 12 -9 12 -12 12 C-11.34 14.97 -10.68 17.94 -10 21 C-7.36 21.66 -4.72 22.32 -2 23 C-2.0825 21.9275 -2.165 20.855 -2.25 19.75 C-2 16 -2 16 -0.375 13.625 C2.56278062 11.61493957 4.4396496 11.07266021 8 11 C10.86332091 12.23643403 12.49288133 13.33152539 14.375 15.8125 C15.23771317 18.83199609 14.7856266 20.98843137 14 24 C13.34 24.66 12.68 25.32 12 26 C13.11375 26.6496875 13.11375 26.6496875 14.25 27.3125 C19.76348064 32.70067426 21.23280998 39.8386855 21.4375 47.375 C21.43115561 52.08253514 20.41340435 55.58659565 17 59 C16.54298118 64.30141826 16.79510443 67.8774682 19.6484375 72.4140625 C21.6077162 74.71310051 23.99038588 76.11563198 26.515625 77.734375 C28 79 28 79 28.9375 82.3125 C28.958125 83.199375 28.97875 84.08625 29 85 C27.375 86.625 27.375 86.625 25 88 C19.12357558 87.1986694 14.93431251 83.18543884 11 79 C9.41481746 76.71521175 8.22817791 74.50752991 7 72 C5.31515221 74.95859272 4.77391932 77.17744919 4.625 80.5625 C4.22736954 84.72390841 4.22736954 84.72390841 2.25 87.125 C-0.58895624 88.22903854 -2.13334591 87.92972565 -5 87 C-6.73741756 85.26258244 -6.2546759 82.99274489 -6.3125 80.625 C-6.21266517 71.28489658 -3.32753059 63.90322969 2.6328125 56.75390625 C4.05779853 54.92585274 5.03088792 53.09974284 6 51 C5.443125 51.495 4.88625 51.99 4.3125 52.5 C1.61837017 54.24754367 0.14624993 54.26218749 -3 54 C-3.33 52.35 -3.66 50.7 -4 49 C-3.43410156 48.52949219 -2.86820313 48.05898437 -2.28515625 47.57421875 C-1.55167969 46.95160156 -0.81820312 46.32898438 -0.0625 45.6875 C0.66839844 45.07261719 1.39929688 44.45773438 2.15234375 43.82421875 C4.75842066 41.2511999 4.9915077 39.43310719 5.0625 35.8125 C5.041875 34.884375 5.02125 33.95625 5 33 C2.89990127 32.44276981 0.79471535 31.90468255 -1.3125 31.375 C-2.48425781 31.07335937 -3.65601563 30.77171875 -4.86328125 30.4609375 C-8.15488418 29.61952889 -8.15488418 29.61952889 -11 32 C-11.33 30.68 -11.66 29.36 -12 28 C-12.66 28 -13.32 28 -14 28 C-15 25 -15 25 -14.50390625 22.71484375 C-13.88906405 19.40232181 -14.34127316 16.87097441 -14.9375 13.5625 C-15.69771204 9.29826423 -16.11113586 5.3342987 -16 1 C-15.113125 1.04125 -14.22625 1.0825 -13.3125 1.125 C-10.048334 1.19417231 -10.048334 1.19417231 -7.4375 -0.0625 C-4.52421683 -1.18299353 -2.95495793 -0.84427369 0 0 Z " fill="#575A9B" transform="translate(48,40)"/>
<path d="M0 0 C6.27 0 12.54 0 19 0 C19 27.72 19 55.44 19 84 C12.73 84 6.46 84 0 84 C0 56.28 0 28.56 0 0 Z " fill="#0E0E0E" transform="translate(463,38)"/>
<path d="M0 0 C5.94 0 11.88 0 18 0 C18 27.72 18 55.44 18 84 C12.06 84 6.12 84 0 84 C0 56.28 0 28.56 0 0 Z " fill="#0F0F0F" transform="translate(629,38)"/>
<path d="M0 0 C5.94 0 11.88 0 18 0 C18 27.72 18 55.44 18 84 C12.06 84 6.12 84 0 84 C0 56.28 0 28.56 0 0 Z " fill="#101010" transform="translate(341,38)"/>
<path d="M0 0 C1.9296875 0.90234375 1.9296875 0.90234375 2.9765625 2.96875 C3.20859375 3.79246094 3.440625 4.61617187 3.6796875 5.46484375 C3.92203125 6.29113281 4.164375 7.11742187 4.4140625 7.96875 C4.58421875 8.60683594 4.754375 9.24492188 4.9296875 9.90234375 C4.0428125 10.14984375 3.1559375 10.39734375 2.2421875 10.65234375 C-1.17458385 11.94169143 -3.3500873 13.50214504 -6.0703125 15.90234375 C-5.28413898 19.00868791 -4.42131206 21.99126137 -3.0703125 24.90234375 C-0.68912004 26.30492251 -0.68912004 26.30492251 1.9296875 26.90234375 C2.950625 27.98515625 2.950625 27.98515625 3.9921875 29.08984375 C5.73226021 31.10292424 5.73226021 31.10292424 7.9296875 31.02734375 C10.25161299 29.93510319 10.25161299 29.93510319 11.8046875 26.83984375 C13.9296875 23.90234375 13.9296875 23.90234375 16.8671875 23.21484375 C20.97724925 24.13751067 22.38020544 25.57385328 24.9296875 28.90234375 C26.71491926 33.95535267 27.17576795 38.37337158 27.1171875 43.71484375 C27.11074219 45.02066406 27.10429687 46.32648438 27.09765625 47.671875 C26.9296875 50.90234375 26.9296875 50.90234375 25.9296875 52.90234375 C24.78692293 62.81254795 28.23053212 70.04143978 33.9296875 77.90234375 C34.2596875 78.23234375 34.5896875 78.56234375 34.9296875 78.90234375 C35.1171875 81.33984375 35.1171875 81.33984375 34.9296875 83.90234375 C32.9296875 85.90234375 32.9296875 85.90234375 30.1796875 86.46484375 C26.07378638 85.75420702 24.95186308 84.46386533 22.453125 81.2578125 C19.50645084 76.70180091 17.20640649 71.81908796 14.9296875 66.90234375 C14.59195313 68.10632813 14.25421875 69.3103125 13.90625 70.55078125 C13.4560731 72.12640039 13.00553341 73.70191591 12.5546875 75.27734375 C12.33296875 76.07140625 12.11125 76.86546875 11.8828125 77.68359375 C11.66367188 78.44414063 11.44453125 79.2046875 11.21875 79.98828125 C11.01975098 80.69001465 10.82075195 81.39174805 10.61572266 82.11474609 C9.9296875 83.90234375 9.9296875 83.90234375 7.9296875 85.90234375 C4.3046875 85.52734375 4.3046875 85.52734375 0.9296875 84.90234375 C-0.1649712 74.56390051 2.85785449 63.51176852 9.2421875 55.27734375 C13.21050735 49.98963367 12.4577025 44.22874575 11.9296875 37.90234375 C10.9396875 38.39734375 10.9396875 38.39734375 9.9296875 38.90234375 C6.18494148 39.32657372 4.41794405 39.20950658 1.19140625 37.1796875 C0.34191406 36.40753906 -0.50757813 35.63539062 -1.3828125 34.83984375 C-2.24519531 34.08574219 -3.10757813 33.33164063 -3.99609375 32.5546875 C-6.57174005 29.26115862 -6.58927486 27.01740213 -7.0703125 22.90234375 C-8.07620709 20.2268891 -9.34311334 17.70109576 -10.6328125 15.15234375 C-14.0703125 8.27734375 -14.0703125 8.27734375 -14.0703125 4.90234375 C-13.2040625 4.81984375 -12.3378125 4.73734375 -11.4453125 4.65234375 C-7.9319614 4.0897269 -7.9319614 4.0897269 -4.9453125 1.77734375 C-2.0703125 -0.09765625 -2.0703125 -0.09765625 0 0 Z " fill="#585B9B" transform="translate(228.0703125,41.09765625)"/>
<path d="M0 0 C2 2 2 2 2.3125 5.4375 C2 9 2 9 0.5 10.9375 C0.005 11.288125 -0.49 11.63875 -1 12 C0.2065625 13.1446875 0.2065625 13.1446875 1.4375 14.3125 C4.85667843 17.89846762 5.12438724 20.20884233 5.02734375 24.96484375 C5.00897461 26.41213867 5.00897461 26.41213867 4.99023438 27.88867188 C4.95514443 29.91739031 4.91609681 31.94604424 4.87304688 33.97460938 C4.86208984 34.94076172 4.85113281 35.90691406 4.83984375 36.90234375 C4.81458618 38.22480103 4.81458618 38.22480103 4.78881836 39.57397461 C5.01654098 42.19002048 5.76833336 43.71236079 7 46 C7.125 48.75 7.125 48.75 7 51 C5.25 51.75 5.25 51.75 3 52 C-0.29300888 49.48181674 -1.70306052 46.89081843 -3 43 C-3.33 43 -3.66 43 -4 43 C-4.33 45.31 -4.66 47.62 -5 50 C-6.65 50.66 -8.3 51.32 -10 52 C-12 50 -12 50 -12.046875 47.57421875 C-11.94890625 46.62160156 -11.8509375 45.66898438 -11.75 44.6875 C-11.66234375 43.74261719 -11.5746875 42.79773438 -11.484375 41.82421875 C-10.99666564 38.98055852 -10.08715045 36.65995417 -9 34 C-9 33.01 -9 32.02 -9 31 C-9.804375 30.7525 -10.60875 30.505 -11.4375 30.25 C-12.283125 29.8375 -13.12875 29.425 -14 29 C-14.1340625 28.40960938 -14.268125 27.81921875 -14.40625 27.2109375 C-15.22302504 24.1695252 -16.91010085 22.64507882 -19.0625 20.375 C-23 16.20913884 -23 16.20913884 -23 14 C-22.278125 13.79375 -21.55625 13.5875 -20.8125 13.375 C-18.05249768 12.02566553 -17.15478986 11.19979435 -15.3125 8.875 C-14.549375 7.92625 -13.78625 6.9775 -13 6 C-12.34 6 -11.68 6 -11 6 C-10.9175 5.401875 -10.835 4.80375 -10.75 4.1875 C-8.85885641 -1.32833546 -5.08814317 -1.4379535 0 0 Z M-8 15 C-9.69088222 16.97956942 -11.35830472 18.97945196 -13 21 C-12.34 22.32 -11.68 23.64 -11 25 C-9.35 24.01 -7.7 23.02 -6 22 C-6.33 19.69 -6.66 17.38 -7 15 C-7.33 15 -7.66 15 -8 15 Z M-7 28 C-7 28.66 -7 29.32 -7 30 C-6.34 30 -5.68 30 -5 30 C-5 29.34 -5 28.68 -5 28 C-5.66 28 -6.32 28 -7 28 Z " fill="#565998" transform="translate(158,76)"/>
<path d="M0 0 C0.268125 0.598125 0.53625 1.19625 0.8125 1.8125 C2.42709252 4.78674939 3.90708995 6.55792402 7.0859375 7.84375 C7.84132813 8.0603125 8.59671875 8.276875 9.375 8.5 C17.0871934 10.9499026 18.66965209 12.42189116 23 20 C18.71 24.62 14.42 29.24 10 34 C8.35 32.35 6.7 30.7 5 29 C2.99468837 27.55491672 2.99468837 27.55491672 1 26.4375 C-2.21323383 24.5022569 -5.20867312 22.52963998 -8 20 C-8 19.34 -8 18.68 -8 18 C-9.45833358 16.37485532 -9.45833358 16.37485532 -11 15 C-9.7580393 11.56072421 -8.44259716 8.74792181 -6 6 C-5.34 6 -4.68 6 -4 6 C-3.71125 5.38125 -3.4225 4.7625 -3.125 4.125 C-2 2 -2 2 0 0 Z " fill="#585C9D" transform="translate(308,32)"/>
<path d="M0 0 C1.9296875 0.90234375 1.9296875 0.90234375 2.9765625 2.96875 C3.20859375 3.79246094 3.440625 4.61617187 3.6796875 5.46484375 C3.92203125 6.29113281 4.164375 7.11742187 4.4140625 7.96875 C4.58421875 8.60683594 4.754375 9.24492188 4.9296875 9.90234375 C4.0428125 10.14984375 3.1559375 10.39734375 2.2421875 10.65234375 C-1.17458385 11.94169143 -3.3500873 13.50214504 -6.0703125 15.90234375 C-5.28413898 19.00868791 -4.42131206 21.99126137 -3.0703125 24.90234375 C-0.68912004 26.30492251 -0.68912004 26.30492251 1.9296875 26.90234375 C2.950625 27.98515625 2.950625 27.98515625 3.9921875 29.08984375 C5.73226021 31.10292424 5.73226021 31.10292424 7.9296875 31.02734375 C10.25161299 29.93510319 10.25161299 29.93510319 11.8046875 26.83984375 C13.9296875 23.90234375 13.9296875 23.90234375 16.8671875 23.21484375 C20.98292345 24.13878447 22.42124359 25.53386193 24.9296875 28.90234375 C25.7421875 32.71484375 25.7421875 32.71484375 25.9296875 35.90234375 C25.2696875 35.90234375 24.6096875 35.90234375 23.9296875 35.90234375 C23.9296875 34.58234375 23.9296875 33.26234375 23.9296875 31.90234375 C23.08664063 32.32386719 22.24359375 32.74539062 21.375 33.1796875 C8.94087773 39.39674863 8.94087773 39.39674863 3.9296875 38.90234375 C1.19140625 37.1796875 1.19140625 37.1796875 -1.3828125 34.83984375 C-2.24519531 34.08574219 -3.10757813 33.33164063 -3.99609375 32.5546875 C-6.57174005 29.26115862 -6.58927486 27.01740213 -7.0703125 22.90234375 C-8.07620709 20.2268891 -9.34311334 17.70109576 -10.6328125 15.15234375 C-14.0703125 8.27734375 -14.0703125 8.27734375 -14.0703125 4.90234375 C-13.2040625 4.81984375 -12.3378125 4.73734375 -11.4453125 4.65234375 C-7.9319614 4.0897269 -7.9319614 4.0897269 -4.9453125 1.77734375 C-2.0703125 -0.09765625 -2.0703125 -0.09765625 0 0 Z " fill="#4F5389" transform="translate(228.0703125,41.09765625)"/>
<path d="M0 0 C1.4375 0.98046875 1.4375 0.98046875 3 3 C3.51548471 5.84981034 3.82934985 8.44313969 4 11.3125 C4.07605469 12.05951172 4.15210938 12.80652344 4.23046875 13.57617188 C4.49812236 17.69586731 4.34360997 20.1119014 1.59765625 23.30859375 C0.74042969 24.19675781 -0.11679687 25.08492187 -1 26 C-2.01703572 27.9540398 -2.01703572 27.9540398 -2.5625 29.75 C-4 33 -4 33 -5.9375 34.375 C-7.94954752 34.98471137 -9.94387295 35.55940135 -12 36 C-11.67 36.99 -11.34 37.98 -11 39 C-11.65061095 40.67299959 -12.32033324 42.33859237 -13 44 C-13.3813074 46.32597511 -13.72460254 48.65912158 -14 51 C-16.475 51.495 -16.475 51.495 -19 52 C-20.55347992 47.85738687 -19.88763731 44.23334718 -19 40 C-16.9375 38.5 -16.9375 38.5 -15 38 C-15 37.34 -15 36.68 -15 36 C-15.66 36 -16.32 36 -17 36 C-16.41980487 32.63486826 -15.36548527 31.36548527 -13 29 C-12.7834375 27.9790625 -12.7834375 27.9790625 -12.5625 26.9375 C-12 25 -12 25 -9.96484375 23.87890625 C-9.31644531 23.58886719 -8.66804688 23.29882812 -8 23 C-8.02320313 22.37351562 -8.04640625 21.74703125 -8.0703125 21.1015625 C-8.08835937 20.28429687 -8.10640625 19.46703125 -8.125 18.625 C-8.14820313 17.81289062 -8.17140625 17.00078125 -8.1953125 16.1640625 C-8 14 -8 14 -6 12 C-5.87625 11.195625 -5.7525 10.39125 -5.625 9.5625 C-4.83885914 6.33932247 -3.62003452 5.88314981 -1 4 C-0.20376178 1.90584196 -0.20376178 1.90584196 0 0 Z " fill="#585C9D" transform="translate(287,73)"/>
<path d="M0 0 C2.51083114 1.25541557 2.87125446 2.50063488 4 5 C4.59167969 4.86722656 5.18335937 4.73445313 5.79296875 4.59765625 C9.85446525 3.68994822 13.91374171 2.7908887 18 2 C14.69474739 5.83409303 11.58311029 7.13359919 7 9 C10.5557116 22.5148648 10.5557116 22.5148648 20 32 C21.32 32 22.64 32 24 32 C24.33 31.01 24.66 30.02 25 29 C27.79870027 27.60064987 29.90498792 27.74734595 33 28 C34.6796875 29.22265625 34.6796875 29.22265625 36 31 C36.29296875 33.26171875 36.29296875 33.26171875 36.1875 35.6875 C36.14689453 36.89986328 36.14689453 36.89986328 36.10546875 38.13671875 C36.07066406 38.75160156 36.03585938 39.36648437 36 40 C35.01 39.505 35.01 39.505 34 39 C33.59270772 36.67843403 33.25561323 34.3431213 33 32 C30.69 31.34 28.38 30.68 26 30 C26.66 31.98 27.32 33.96 28 36 C27.360625 36.2475 26.72125 36.495 26.0625 36.75 C23.81258459 37.81562433 23.81258459 37.81562433 23.25 40.125 C23.1675 40.74375 23.085 41.3625 23 42 C21.68 42 20.36 42 19 42 C19 41.34 19 40.68 19 40 C19.66 40 20.32 40 21 40 C21.33 39.34 21.66 38.68 22 38 C20.68 38.66 19.36 39.32 18 40 C18 40.99 18 41.98 18 43 C20.31 43.66 22.62 44.32 25 45 C25 45.33 25 45.66 25 46 C23.35 46 21.7 46 20 46 C20.495 46.928125 20.99 47.85625 21.5 48.8125 C23 52 23 52 23 55 C22.34 55 21.68 55 21 55 C20.67 56.32 20.34 57.64 20 59 C19.80083984 58.13568359 19.80083984 58.13568359 19.59765625 57.25390625 C18.8326388 54.36884045 17.73105461 51.66927968 16.62109375 48.90234375 C16 47 16 47 16 44 C15.34 44 14.68 44 14 44 C13.72816895 42.84806152 13.45633789 41.69612305 13.17626953 40.50927734 C12.0943216 36.18801126 10.69577683 32.03702018 9.1796875 27.8515625 C8.78440353 26.7436586 8.78440353 26.7436586 8.38113403 25.6133728 C7.54932403 23.28261975 6.7126939 20.95364421 5.875 18.625 C5.03040741 16.27485021 4.1869684 13.92432203 3.34744263 11.57235718 C2.82741324 10.11556622 2.30446002 8.65981497 1.77828979 7.20523071 C0 2.22517668 0 2.22517668 0 0 Z " fill="#50538C" transform="translate(64,45)"/>
<path d="M0 0 C1.875 0.25 1.875 0.25 4 1 C5.125 3 5.125 3 6 5 C6.66 5.33 7.32 5.66 8 6 C8.47574438 8.54024004 8.84007547 11.00051464 9.125 13.5625 C9.21136719 14.27341797 9.29773438 14.98433594 9.38671875 15.71679688 C9.59934783 17.47689312 9.80072697 19.23834164 10 21 C9.01 21.33 8.02 21.66 7 22 C6.67 24.31 6.34 26.62 6 29 C6.99 29 7.98 29 9 29 C9.38909985 30.45463481 9.76088029 31.91391207 10.125 33.375 C10.33382812 34.18710938 10.54265625 34.99921875 10.7578125 35.8359375 C10.83773437 36.55007812 10.91765625 37.26421875 11 38 C10.34 38.66 9.68 39.32 9 40 C7.0625 39.9375 7.0625 39.9375 5 39 C1.48169946 34.83016233 1.33074342 30.23486995 1 25 C0.37609375 25.18691406 -0.2478125 25.37382813 -0.890625 25.56640625 C-3 26 -3 26 -4.75 24.9375 C-6.54455588 22.15593839 -6.4053137 20.24250962 -6 17 C-4.48151892 14.87412649 -3.38855008 14.14129094 -0.9375 13.25 C2.14073297 11.26404325 2.23792762 8.42932572 3 5 C2.34 4.67 1.68 4.34 1 4 C0.375 1.9375 0.375 1.9375 0 0 Z " fill="#575B9C" transform="translate(215,88)"/>
<path d="M0 0 C0.33 2.97 0.66 5.94 1 9 C-0.60256108 9.50512244 -2.20711792 10.00391627 -3.8125 10.5 C-4.70582031 10.7784375 -5.59914063 11.056875 -6.51953125 11.34375 C-9 12 -9 12 -12 12 C-11.34 14.97 -10.68 17.94 -10 21 C-4.41114262 22.82912391 -4.41114262 22.82912391 1 22 C1.33 23.32 1.66 24.64 2 26 C2.66 26 3.32 26 4 26 C4 26.66 4 27.32 4 28 C2.68 28 1.36 28 0 28 C-0.33 27.34 -0.66 26.68 -1 26 C-3.57951874 25.30906104 -3.57951874 25.30906104 -6.5625 24.875 C-7.57441406 24.70742187 -8.58632813 24.53984375 -9.62890625 24.3671875 C-10.41136719 24.24601562 -11.19382812 24.12484375 -12 24 C-9.73349022 26.66690268 -8.28746568 27.40266675 -4.8125 27.6875 C-3.554375 27.790625 -2.29625 27.89375 -1 28 C-0.67 28.99 -0.34 29.98 0 31 C1.98 31.33 3.96 31.66 6 32 C6 33.65 6 35.3 6 37 C7.485 37.495 7.485 37.495 9 38 C8.34 38 7.68 38 7 38 C6.67 38.66 6.34 39.32 6 40 C5 39 5 39 4.9375 35.9375 C4.958125 34.968125 4.97875 33.99875 5 33 C2.89990127 32.44276981 0.79471535 31.90468255 -1.3125 31.375 C-2.48425781 31.07335937 -3.65601563 30.77171875 -4.86328125 30.4609375 C-8.15488418 29.61952889 -8.15488418 29.61952889 -11 32 C-11.33 30.68 -11.66 29.36 -12 28 C-12.66 28 -13.32 28 -14 28 C-15 25 -15 25 -14.50390625 22.71484375 C-13.88906405 19.40232181 -14.34127316 16.87097441 -14.9375 13.5625 C-15.69771204 9.29826423 -16.11113586 5.3342987 -16 1 C-15.113125 1.04125 -14.22625 1.0825 -13.3125 1.125 C-10.048334 1.19417231 -10.048334 1.19417231 -7.4375 -0.0625 C-4.52421683 -1.18299353 -2.95495793 -0.84427369 0 0 Z " fill="#525491" transform="translate(48,40)"/>
<path d="M0 0 C2.94548102 2.14940507 3.85086454 3.48867842 4.875 7 C5.00715839 10.17180132 4.88886253 11.48151662 3 14 C-0.21955988 16.29968563 -3.12559532 16.55348638 -7 16 C-9.875 13.9375 -9.875 13.9375 -12 11 C-12.5625 7.4375 -12.5625 7.4375 -12 4 C-8.27771943 -0.71488872 -5.77958862 -1.50269304 0 0 Z " fill="#595C9D" transform="translate(246,48)"/>
<path d="M0 0 C0.33 1.65 0.66 3.3 1 5 C1.928125 4.938125 2.85625 4.87625 3.8125 4.8125 C7 5 7 5 8.875 6.5 C9.24625 6.995 9.6175 7.49 10 8 C9.34 9.98 8.68 11.96 8 14 C7.34 13.67 6.68 13.34 6 13 C5.38125 13.350625 4.7625 13.70125 4.125 14.0625 C2 15 2 15 -0.125 14.1875 C-1.053125 13.5996875 -1.053125 13.5996875 -2 13 C-2.66 12.67 -3.32 12.34 -4 12 C-4 11.34 -4 10.68 -4 10 C-6.64 9.67 -9.28 9.34 -12 9 C-12.66 7.02 -13.32 5.04 -14 3 C-12.4188708 2.49307308 -10.83498617 1.99473557 -9.25 1.5 C-7.92742187 1.08234375 -7.92742187 1.08234375 -6.578125 0.65625 C-4 0 -4 0 0 0 Z " fill="#575B9C" transform="translate(116,52)"/>
<path d="M0 0 C2.5 2.0625 2.5 2.0625 4 5 C4 8.8137751 3.84985071 11.02424548 1.3125 13.9375 C-1.73602877 15.33817538 -3.67926952 15.4842732 -7 15 C-9.65359262 13.06359458 -10.7609947 11.62141377 -11.9375 8.5625 C-12.01929321 5.20897857 -10.98804097 3.65072129 -9 1 C-5.87139505 -0.56430248 -3.44397075 -0.35627284 0 0 Z " fill="#595B9D" transform="translate(205,57)"/>
<path d="M0 0 C2.52224843 2.27002359 2.94705668 3.63696007 3.4375 7 C3 10 3 10 1.4375 12.375 C-1.93510779 14.62340519 -4.02512383 14.56783945 -8 14 C-10.4375 12.375 -10.4375 12.375 -12 10 C-12.50347322 6.54761218 -12.41556154 4.73217986 -10.6875 1.6875 C-7.35207976 -1.64792024 -4.28161165 -1.15960316 0 0 Z " fill="#51548C" transform="translate(96,58)"/>
<path d="M0 0 C1.9375 0.5 1.9375 0.5 4 2 C4.48514829 4.73447221 4.7938133 7.25446127 5 10 C5.30169066 11.34084736 5.61517681 12.6806062 6 14 C2.15715413 15.82692673 -0.4738894 16.16462098 -4.6875 15.6875 C-5.64011719 15.58824219 -6.59273438 15.48898438 -7.57421875 15.38671875 C-10 15 -10 15 -12 14 C-11.43697042 10.05879291 -10.3208055 7.2491277 -8 4 C-7.34 4 -6.68 4 -6 4 C-5.67 3.34 -5.34 2.68 -5 2 C-5 2.66 -5 3.32 -5 4 C-4.34 4 -3.68 4 -3 4 C-3 4.66 -3 5.32 -3 6 C-2.34 5.67 -1.68 5.34 -1 5 C-1.33 4.01 -1.66 3.02 -2 2 C-1.34 2 -0.68 2 0 2 C0 1.34 0 0.68 0 0 Z " fill="#585B9C" transform="translate(131,90)"/>
<path d="M0 0 C3.125 0.375 3.125 0.375 5.5 2 C7.57906883 5.03863906 7.58655369 6.75949608 7.125 10.375 C6.135 11.86 6.135 11.86 5.125 13.375 C6.23875 14.0246875 6.23875 14.0246875 7.375 14.6875 C14.21977085 21.37670787 14.80663882 31.25395221 15.125 40.375 C13.805 40.375 12.485 40.375 11.125 40.375 C11.125 42.025 11.125 43.675 11.125 45.375 C10.465 45.375 9.805 45.375 9.125 45.375 C8.63 42.9 8.63 42.9 8.125 40.375 C8.785 40.375 9.445 40.375 10.125 40.375 C10.125 39.715 10.125 39.055 10.125 38.375 C11.115 37.88 11.115 37.88 12.125 37.375 C12.0528125 36.62734375 11.980625 35.8796875 11.90625 35.109375 C11.76703125 33.63210937 11.76703125 33.63210937 11.625 32.125 C11.5321875 31.15046875 11.439375 30.1759375 11.34375 29.171875 C11.16699832 26.91197847 11.125 24.64179807 11.125 22.375 C10.135 22.045 9.145 21.715 8.125 21.375 C7.83625 20.715 7.5475 20.055 7.25 19.375 C6.27392912 17.11135538 6.27392912 17.11135538 3.625 16.5625 C1.12709044 16.16026509 1.12709044 16.16026509 -0.875 17.375 C-0.875 16.385 -0.875 15.395 -0.875 14.375 C-3.83675123 14.98777612 -5.25558783 15.62872522 -7.875 17.375 C-7.545 14.405 -7.215 11.435 -6.875 8.375 C-5.39 9.365 -5.39 9.365 -3.875 10.375 C-1.03693432 11.62572191 -1.03693432 11.62572191 1.25 10.8125 C3.45817834 9.4320088 3.45817834 9.4320088 3.875 6.25 C3.9575 5.30125 4.04 4.3525 4.125 3.375 C1.155 3.045 -1.815 2.715 -4.875 2.375 C-2.875 0.375 -2.875 0.375 0 0 Z " fill="#50548A" transform="translate(211.875,71.625)"/>
<path d="M0 0 C1.98 0.99 1.98 0.99 4 2 C4 2.66 4 3.32 4 4 C4.99 4.66 5.98 5.32 7 6 C7.66 5.34 8.32 4.68 9 4 C9.66 3.67 10.32 3.34 11 3 C11.33 2.34 11.66 1.68 12 1 C19.68490153 5.93654267 19.68490153 5.93654267 21 10.375 C21 11.24125 21 12.1075 21 13 C19.375 14.625 19.375 14.625 17 16 C11.09742661 15.19510363 7.02080778 11.11844329 3 7 C0 2.78125 0 2.78125 0 0 Z " fill="#565A99" transform="translate(56,112)"/>
<path d="M0 0 C1.9375 1.125 1.9375 1.125 3 3 C3.42030443 6.29238472 3.295454 8.33957342 1.9375 11.375 C0 13 0 13 -3.4375 13.5 C-7 13 -7 13 -9.5 11.4375 C-11 9 -11 9 -10.9375 5.375 C-9.26346191 -0.65153711 -5.61343058 -0.50119916 0 0 Z " fill="#585B99" transform="translate(144,64)"/>
<path d="M0 0 C1.51400391 0.01740234 1.51400391 0.01740234 3.05859375 0.03515625 C4.07050781 0.04417969 5.08242188 0.05320313 6.125 0.0625 C7.29869141 0.07990234 7.29869141 0.07990234 8.49609375 0.09765625 C9.7905887 3.98114109 9.62812687 7.00462961 9.49609375 11.09765625 C8.49609375 12.09765625 8.49609375 12.09765625 6.02734375 12.23046875 C4.526875 12.22660156 4.526875 12.22660156 2.99609375 12.22265625 C1.99578125 12.22523438 0.99546875 12.2278125 -0.03515625 12.23046875 C-2.50390625 12.09765625 -2.50390625 12.09765625 -3.50390625 11.09765625 C-3.60214562 9.43336574 -3.63364256 7.76483694 -3.62890625 6.09765625 C-3.63148438 5.19015625 -3.6340625 4.28265625 -3.63671875 3.34765625 C-3.44818505 0.15367356 -3.21403411 0.12535234 0 0 Z " fill="#36518B" transform="translate(511.50390625,140.90234375)"/>
<path d="M0 0 C5 0 5 0 7.3125 2 C8.1478125 2.99 8.1478125 2.99 9 4 C9.33 2.68 9.66 1.36 10 0 C11.65 0 13.3 0 15 0 C15 3.63 15 7.26 15 11 C13.68 11.33 12.36 11.66 11 12 C8.25 10.0625 8.25 10.0625 6 8 C5.34 9.32 4.68 10.64 4 12 C2.68 11.67 1.36 11.34 0 11 C0 7.37 0 3.74 0 0 Z " fill="#41487B" transform="translate(533,141)"/>
<path d="M0 0 C-0.11456128 2.39674267 -0.24128719 4.79181218 -0.375 7.1875 C-0.42140625 8.19780273 -0.42140625 8.19780273 -0.46875 9.22851562 C-0.69928403 13.16680524 -1.0736545 16.52078415 -3 20 C-6 21 -6 21 -8.125 20.25 C-10 19 -10 19 -11 16 C-10.34 16 -9.68 16 -9 16 C-8.7834375 14.1128125 -8.7834375 14.1128125 -8.5625 12.1875 C-8.26251314 9.57332877 -7.84186703 7.52560108 -7 5 C-6.96125079 3.33378384 -6.9549714 1.66605828 -7 0 C-4.3333581 -1.33332095 -2.83319697 -0.67102033 0 0 Z " fill="#52548E" transform="translate(121,108)"/>
<path d="M0 0 C3.96 0 7.92 0 12 0 C12 3.96 12 7.92 12 12 C8.04 12 4.08 12 0 12 C0 8.04 0 4.08 0 0 Z " fill="#44487A" transform="translate(293,141)"/>
<path d="M0 0 C3.96 0 7.92 0 12 0 C12 3.96 12 7.92 12 12 C8.04 12 4.08 12 0 12 C0 8.04 0 4.08 0 0 Z " fill="#383E73" transform="translate(458,141)"/>
<path d="M0 0 C0.33 0.99 0.66 1.98 1 3 C0.01 4.485 0.01 4.485 -1 6 C-1.16713569 8.62531524 -1.16713569 8.62531524 -1 11 C-1.66 11 -2.32 11 -3 11 C-3.33 11.99 -3.66 12.98 -4 14 C-4.66 14.66 -5.32 15.32 -6 16 C-5.979375 16.86625 -5.95875 17.7325 -5.9375 18.625 C-6.01843847 22.99567745 -7.33325312 25.97202836 -9 30 C-9.66 30 -10.32 30 -11 30 C-11 30.99 -11 31.98 -11 33 C-13.475 33.495 -13.475 33.495 -16 34 C-17.65 32.02 -19.3 30.04 -21 28 C-20.236875 28.33 -19.47375 28.66 -18.6875 29 C-16.00930865 30.17436686 -16.00930865 30.17436686 -13 30 C-15.11326526 25.29157376 -15.11326526 25.29157376 -19 22 C-19.1875 18.375 -19.1875 18.375 -19 15 C-18.34 15 -17.68 15 -17 15 C-16.67 13.02 -16.34 11.04 -16 9 C-13.8480563 12.22791555 -13.79913557 13.28400809 -14 17 C-14.99 17.33 -15.98 17.66 -17 18 C-15.02 20.97 -13.04 23.94 -11 27 C-9.67321483 24.34642965 -9.40467993 21.8026609 -8.9375 18.875 C-8.76089844 17.77929688 -8.58429688 16.68359375 -8.40234375 15.5546875 C-8.26957031 14.71164063 -8.13679688 13.86859375 -8 13 C-7.01 12.67 -6.02 12.34 -5 12 C-4.9175 11.319375 -4.835 10.63875 -4.75 9.9375 C-3.77667472 6.1253093 -2.04192545 3.35929671 0 0 Z " fill="#4E5183" transform="translate(121,94)"/>
<path d="M0 0 C-0.33 2.31 -0.66 4.62 -1 7 C-0.34 7.33 0.32 7.66 1 8 C0.67 8.66 0.34 9.32 0 10 C-3 9 -3 9 -4.6875 5.9375 C-5.120625 4.968125 -5.55375 3.99875 -6 3 C-7.98 3 -9.96 3 -12 3 C-12.15855469 3.84304687 -12.31710938 4.68609375 -12.48046875 5.5546875 C-12.71378906 6.65039062 -12.94710937 7.74609375 -13.1875 8.875 C-13.40792969 9.96554688 -13.62835938 11.05609375 -13.85546875 12.1796875 C-15 15 -15 15 -17.42578125 16.5078125 C-20 17 -20 17 -23 15 C-23.53695997 9.63040026 -22.43687342 5.11886156 -21 0 C-18.97649676 3.03525486 -18.67875982 4.19426202 -18.375 7.6875 C-18.30023438 8.49574219 -18.22546875 9.30398437 -18.1484375 10.13671875 C-18.07496094 11.05904297 -18.07496094 11.05904297 -18 12 C-18.66 12 -19.32 12 -20 12 C-19.67 12.66 -19.34 13.32 -19 14 C-16.94047818 11.08234409 -16 9.50207183 -16 5.875 C-16 3 -16 3 -14.84765625 1.3671875 C-12.37092784 -0.4654868 -10.49143416 -0.53854251 -7.4375 -0.75 C-6.46683594 -0.82734375 -5.49617188 -0.9046875 -4.49609375 -0.984375 C-2 -1 -2 -1 0 0 Z " fill="#4F5289" transform="translate(101,111)"/>
<path d="M0 0 C1 3 1 3 0.4375 4.75 C-0.21960539 8.12939916 0.94868465 10.78421187 2 14 C2.66 14 3.32 14 4 14 C4.66 11.69 5.32 9.38 6 7 C6.66 7 7.32 7 8 7 C6.46511628 19.53488372 6.46511628 19.53488372 3 23 C-0.625 22.625 -0.625 22.625 -4 22 C-4.64323227 13.92386148 -2.8917284 7.51333004 0 0 Z " fill="#53558F" transform="translate(233,104)"/>
<path d="M0 0 C2.51083114 1.25541557 2.87125446 2.50063488 4 5 C4.59167969 4.86722656 5.18335937 4.73445313 5.79296875 4.59765625 C9.85446525 3.68994822 13.91374171 2.7908887 18 2 C14.69474739 5.83409303 11.58311029 7.13359919 7 9 C10.58014184 22.48136271 10.58014184 22.48136271 20 32 C21.32254118 32.37386323 22.65486319 32.71804993 24 33 C23 34 23 34 20.25 34.4375 C17 34 17 34 14.3125 31.0625 C13.1678125 29.5465625 13.1678125 29.5465625 12 28 C11.01 27.67 10.02 27.34 9 27 C7.83325195 24.62329102 7.83325195 24.62329102 6.73828125 21.50390625 C6.34189453 20.38822266 5.94550781 19.27253906 5.53710938 18.12304688 C5.13298828 16.94806641 4.72886719 15.77308594 4.3125 14.5625 C3.89677734 13.39138672 3.48105469 12.22027344 3.05273438 11.01367188 C0 2.32666256 0 2.32666256 0 0 Z " fill="#474C80" transform="translate(64,45)"/>
<path d="M0 0 C2.5625 1.625 2.5625 1.625 4 4 C3.9375 7.125 3.9375 7.125 3 10 C-0.68583949 12.45722633 -3.71995428 12.68755754 -8 12 C-10.5625 10.375 -10.5625 10.375 -12 8 C-11.9375 4.875 -11.9375 4.875 -11 2 C-7.31416051 -0.45722633 -4.28004572 -0.68755754 0 0 Z M-7 4 C-7 5.32 -7 6.64 -7 8 C-5.15274948 8.69159401 -5.15274948 8.69159401 -3 9 C-2.01 8.34 -1.02 7.68 0 7 C-0.66 5.68 -1.32 4.36 -2 3 C-4.9254644 2.7763932 -4.9254644 2.7763932 -7 4 Z " fill="#323D7E" transform="translate(371,141)"/>
<path d="M0 0 C6.6 0.6 6.6 0.6 9 3 C9.71408334 4.98356483 10.38617742 6.98315437 11 9 C8.9375 11.0625 8.9375 11.0625 6 13 C2.1875 12.75 2.1875 12.75 -1 12 C-2.73065285 8.73098906 -3.10314736 7.41258945 -2.1875 3.75 C-1 1 -1 1 0 0 Z " fill="#585C9D" transform="translate(274,53)"/>
<path d="M0 0 C0.89589844 -0.01417969 1.79179687 -0.02835938 2.71484375 -0.04296875 C5.0625 0.1875 5.0625 0.1875 7.0625 2.1875 C7.10491723 4.52044775 7.10342937 6.85452567 7.0625 9.1875 C7.3925 10.1775 7.7225 11.1675 8.0625 12.1875 C4.24152761 11.65680939 2.00078597 10.69048434 -0.9375 8.1875 C-0.9375 9.5075 -0.9375 10.8275 -0.9375 12.1875 C-2.5875 11.8575 -4.2375 11.5275 -5.9375 11.1875 C-5.96438151 9.54175434 -5.98384123 7.89588587 -6 6.25 C-6.01160156 5.33347656 -6.02320313 4.41695312 -6.03515625 3.47265625 C-5.85554034 -0.73035609 -3.68450064 0.02643114 0 0 Z " fill="#40467E" transform="translate(419.9375,140.8125)"/>
<path d="M0 0 C2.475 0.99 2.475 0.99 5 2 C5 2.66 5 3.32 5 4 C7.33214148 5.20628008 9.49642139 6.1654738 12 7 C14.33524782 4.74259377 16.18705073 2.7194239 18 0 C20.97 0.495 20.97 0.495 24 1 C24 2.32 24 3.64 24 5 C21.62706005 7.13152422 18.79908472 8.48996746 16 10 C14.7934375 10.7734375 14.7934375 10.7734375 13.5625 11.5625 C9.29626795 12.29088108 5.52684717 10.36970871 2 8 C-0.00609978 5.00010925 0 3.78379092 0 0 Z " fill="#585B9C" transform="translate(224,67)"/>
<path d="M0 0 C1.32 0 2.64 0 4 0 C4 1.32 4 2.64 4 4 C5.98 4 7.96 4 10 4 C10 2.68 10 1.36 10 0 C11.32 0 12.64 0 14 0 C14 3.96 14 7.92 14 12 C12.68 11.67 11.36 11.34 10 11 C10 10.01 10 9.02 10 8 C8.02 8 6.04 8 4 8 C4 9.32 4 10.64 4 12 C2.68 11.67 1.36 11.34 0 11 C0 7.37 0 3.74 0 0 Z " fill="#414882" transform="translate(222,141)"/>
<path d="M0 0 C1.32 0 2.64 0 4 0 C4 2.64 4 5.28 4 8 C5.65 8 7.3 8 9 8 C9 5.36 9 2.72 9 0 C10.32 0 11.64 0 13 0 C13.08090971 1.62418745 13.13914995 3.24951745 13.1875 4.875 C13.22230469 5.77992188 13.25710938 6.68484375 13.29296875 7.6171875 C13.19628906 8.40351563 13.09960938 9.18984375 13 10 C9.28986601 12.47342266 7.38939738 12.38503486 3 12 C0.5625 11 0.5625 11 -1 9 C-1.39334036 6.20166432 -1.23041197 3.85710843 -1 1 C-0.67 0.67 -0.34 0.34 0 0 Z " fill="#3B4385" transform="translate(388,141)"/>
<path d="M0 0 C0.33 0 0.66 0 1 0 C1 2.64 1 5.28 1 8 C0.34 8 -0.32 8 -1 8 C-0.54177532 11.46941546 -0.10868317 14.67395049 1 18 C1.34820041 19.66362417 1.68404492 21.32995171 2 23 C3.32 22.67 4.64 22.34 6 22 C6 20.741875 6 19.48375 6 18.1875 C6 15.79166667 6 13.39583333 6 11 C9.29148243 12.13499394 9.9959869 12.99283376 11.75 16.125 C12.36875 17.548125 12.36875 17.548125 13 19 C13.66 19 14.32 19 15 19 C15 19.99 15 20.98 15 22 C13.68 22 12.36 22 11 22 C10.67 21.34 10.34 20.68 10 20 C9.690625 20.804375 9.38125 21.60875 9.0625 22.4375 C8 25 8 25 7 26 C5.00041636 26.04080783 2.99954746 26.04254356 1 26 C-2.79604858 19.35691498 -2.6835717 12.51041114 -2 5 C-0.98046875 2.0703125 -0.98046875 2.0703125 0 0 Z M8 16 C9 18 9 18 9 18 Z " fill="#4F5283" transform="translate(169,101)"/>
<path d="M0 0 C1.32 0 2.64 0 4 0 C4.33 0.33 4.66 0.66 5 1 C6.65816784 1.68753301 8.32459336 2.35561283 10 3 C10.19667385 6.54012923 10.24329772 9.14489381 8 12 C4.875 12.75 4.875 12.75 2 13 C-0.0625 10.9375 -0.0625 10.9375 -2 8 C-1.68421053 1.68421053 -1.68421053 1.68421053 0 0 Z " fill="#595C9E" transform="translate(174,50)"/>
<path d="M0 0 C0 0.66 0 1.32 0 2 C0.66 2 1.32 2 2 2 C2.3125 4.8125 2.3125 4.8125 2 8 C-1.24433763 10.70361469 -2.70892052 11 -7 11 C-7.33 10.67 -7.66 10.34 -8 10 C-9.98 10.99 -9.98 10.99 -12 12 C-12.66 10.68 -13.32 9.36 -14 8 C-11.69 6.35 -9.38 4.7 -7 3 C-7.33 2.34 -7.66 1.68 -8 1 C-5.10765685 0.17361624 -3.11257569 0 0 0 Z " fill="#575B9F" transform="translate(214,73)"/>
<path d="M0 0 C1.67542976 0.28604898 3.34385343 0.61781233 5 1 C4.814375 2.11375 4.62875 3.2275 4.4375 4.375 C3.68319343 7.82568861 3.68319343 7.82568861 5 10 C6.32 9.67 7.64 9.34 9 9 C8.01 9.495 8.01 9.495 7 10 C7.33 10.763125 7.66 11.52625 8 12.3125 C9 15 9 15 9 18 C10.3303125 18.12375 10.3303125 18.12375 11.6875 18.25 C15.41255464 19.0934086 17.20928838 20.45552764 20 23 C18.68 23 17.36 23 16 23 C16 22.34 16 21.68 16 21 C13.69 20.67 11.38 20.34 9 20 C9 20.66 9 21.32 9 22 C9.99 22.33 10.98 22.66 12 23 C13.6875 25.0625 13.6875 25.0625 15 27 C14.67 27.66 14.34 28.32 14 29 C13.01 29 12.02 29 11 29 C7.56039761 24.91547216 6.25809479 20.91005656 4.859375 15.8125 C3.30402119 10.72225117 1.11981464 5.87641155 -1 1 C-0.67 0.67 -0.34 0.34 0 0 Z " fill="#4D507E" transform="translate(152,52)"/>
<path d="M0 0 C2.94548102 2.14940507 3.85086454 3.48867842 4.875 7 C5.00715839 10.17180132 4.88886253 11.48151662 3 14 C-0.21955988 16.29968563 -3.12559532 16.55348638 -7 16 C-9.875 13.5 -9.875 13.5 -12 11 C-11.67 10.34 -11.34 9.68 -11 9 C-9.02 10.65 -7.04 12.3 -5 14 C-2.69 12.68 -0.38 11.36 2 10 C1.64950425 6.75791433 1.43778819 5.38472296 -1.0625 3.1875 C-1.701875 2.795625 -2.34125 2.40375 -3 2 C-3.45375 2.495 -3.9075 2.99 -4.375 3.5 C-6 5 -6 5 -8 5 C-9.36161311 5.96113866 -10.69855198 6.95884159 -12 8 C-11.75475087 4.32126307 -11.63076 2.55867315 -8.8125 0.0625 C-5.30747517 -1.26162049 -3.55752115 -1.13537909 0 0 Z " fill="#505284" transform="translate(246,48)"/>
<path d="M0 0 C0.66 0.33 1.32 0.66 2 1 C0.31750951 6.6945832 -1.70434179 10.97390959 -7 14 C-10.25 14.1875 -10.25 14.1875 -13 14 C-13.33 13.01 -13.66 12.02 -14 11 C-17.00847418 9.77479736 -17.00847418 9.77479736 -20 9 C-20 7.68 -20 6.36 -20 5 C-17.36429221 4.61239591 -15.63115312 4.56019893 -13.40234375 6.11328125 C-11.92713545 7.40001085 -10.46307404 8.69948974 -9 10 C-8.34 10 -7.68 10 -7 10 C-6.773125 9.46375 -6.54625 8.9275 -6.3125 8.375 C-4.56617944 5.21499137 -2.3597151 2.7323017 0 0 Z " fill="#575A9D" transform="translate(283,70)"/>
<path d="M0 0 C0.99 0.33 1.98 0.66 3 1 C2.731875 1.53625 2.46375 2.0725 2.1875 2.625 C1.95477689 5.57282601 2.5799856 6.04811495 4.4375 8.25 C5.283125 9.1575 6.12875 10.065 7 11 C3.74456771 10.65120368 2.98126893 9.97866739 0.75 7.4375 C0.1725 6.633125 -0.405 5.82875 -1 5 C-1.556875 5.556875 -2.11375 6.11375 -2.6875 6.6875 C-4.32321521 8.32321521 -5.99376857 9.92443588 -7.6875 11.5 C-10.48305976 14.33203422 -10.48305976 14.33203422 -11 18 C-9.14835964 20.75256794 -9.14835964 20.75256794 -7 23 C-8.9375 22.6875 -8.9375 22.6875 -11 22 C-11.33 21.01 -11.66 20.02 -12 19 C-16.66906555 22.81438599 -16.66906555 22.81438599 -21 27 C-21.78125 25.296875 -21.78125 25.296875 -22 23 C-20.15625 20.703125 -20.15625 20.703125 -17.5 18.25 C-14.24641726 15.16023401 -11.10556093 12.09729625 -8.1875 8.6875 C-5.58074591 5.6421688 -2.87743359 2.79023864 0 0 Z " fill="#494D83" transform="translate(309,29)"/>
<path d="M0 0 C2.375 0.25 2.375 0.25 5 1 C6.3125 3.0625 6.3125 3.0625 7 5 C7.391875 4.175 7.78375 3.35 8.1875 2.5 C8.785625 1.675 9.38375 0.85 10 0 C12.6875 -0.3125 12.6875 -0.3125 15 0 C13.68139111 4.61513112 11.78644563 8.09897612 9 12 C7.171875 11.77734375 7.171875 11.77734375 5 11 C3.515625 9.00390625 3.515625 9.00390625 2.25 6.5625 C1.82203125 5.75941406 1.3940625 4.95632812 0.953125 4.12890625 C0 2 0 2 0 0 Z " fill="#414A82" transform="translate(266,141)"/>
<path d="M0 0 C1.32 0 2.64 0 4 0 C4.66 1.98 5.32 3.96 6 6 C6.66 6 7.32 6 8 6 C8.66 4.02 9.32 2.04 10 0 C11.32 0 12.64 0 14 0 C13.42365861 4.75481646 11.44931479 7.97048212 9 12 C6.75 12 6.75 12 4 11 C1.56204629 7.52611069 0 4.26177936 0 0 Z " fill="#3A427B" transform="translate(482,141)"/>
<path d="M0 0 C0.27199219 0.5878125 0.54398437 1.175625 0.82421875 1.78125 C3.24510634 6.34956944 6.73796932 10.06719471 10.875 13.125 C13 15 13 15 13.5 17.5625 C13 20 13 20 11.8125 21.875 C10 23 10 23 7.671875 22.76953125 C1.94826216 21.12106381 -3.17157443 16.55110385 -6.625 11.75 C-7.305625 10.38875 -7.305625 10.38875 -8 9 C-7.67 8.01 -7.34 7.02 -7 6 C-6.67 7.32 -6.34 8.64 -6 10 C-5.34 10 -4.68 10 -4 10 C-1 13.46153846 -1 13.46153846 -1 16 C3.23084618 17.86654978 7.34739117 19 12 19 C11.67 18.01 11.34 17.02 11 16 C10.34 15.67 9.68 15.34 9 15 C9 14.34 9 13.68 9 13 C8.2575 12.773125 7.515 12.54625 6.75 12.3125 C3.36453133 10.69670814 1.95789585 9.19064508 0 6 C-0.25 2.6875 -0.25 2.6875 0 0 Z " fill="#4A4D80" transform="translate(287,105)"/>
<path d="M0 0 C4.29 0 8.58 0 13 0 C13 1.32 13 2.64 13 4 C11.68 4.33 10.36 4.66 9 5 C9 6.98 9 8.96 9 11 C7.35 11.33 5.7 11.66 4 12 C4 9.36 4 6.72 4 4 C2.68 4 1.36 4 0 4 C0 2.68 0 1.36 0 0 Z " fill="#394273" transform="translate(560,141)"/>
<path d="M0 0 C2.53833449 1.26916725 2.89400901 2.41624809 4.125 4.9375 C4.47820312 5.64777344 4.83140625 6.35804687 5.1953125 7.08984375 C6 9 6 9 6 11 C6.99 11 7.98 11 9 11 C9 10.01 9 9.02 9 8 C8.34 8 7.68 8 7 8 C7.33 6.68 7.66 5.36 8 4 C10.09749995 6.35968744 10.96905704 7.54616994 11.1875 10.75 C11.0946875 11.86375 11.0946875 11.86375 11 13 C9.25 13.75 9.25 13.75 7 14 C3.70699112 11.48181674 2.29693948 8.89081843 1 5 C0.67 5 0.34 5 0 5 C-0.33 7.31 -0.66 9.62 -1 12 C-2.65 12.66 -4.3 13.32 -6 14 C-6.66 12.68 -7.32 11.36 -8 10 C-6.68 10.33 -5.36 10.66 -4 11 C-3.896875 9.9275 -3.79375 8.855 -3.6875 7.75 C-3.02599507 4.14179128 -2.42516579 2.63604977 0 0 Z " fill="#4E5086" transform="translate(154,114)"/>
<path d="M0 0 C1.18160925 3.7266138 0.52921117 6.14298959 -0.51953125 9.89453125 C-1.22634596 12.99187374 -1.13189975 15.83440603 -1 19 C0.32 19.33 1.64 19.66 3 20 C4.60995028 17.12555436 5.29564831 14.83853036 5.5625 11.5625 C5.86250244 8.31604503 6.28056566 5.18606636 7 2 C8.65 2.33 10.3 2.66 12 3 C10 7 10 7 8.953125 8.85546875 C7.90228796 11.21985209 7.7381338 12.99088174 7.625 15.5625 C7.22736954 19.72390841 7.22736954 19.72390841 5.25 22.125 C2.41104376 23.22903854 0.86665409 22.92972565 -2 22 C-3.75141618 20.24858382 -3.21395448 17.8790046 -3.25 15.5 C-3.22281723 9.81880016 -2.20968084 5.20853341 0 0 Z " fill="#4C5281" transform="translate(45,105)"/>
<path d="M0 0 C1.875 0.125 1.875 0.125 4 1 C6.2579005 4.12632377 7.62219843 7.41771591 9 11 C9.37125 11.721875 9.7425 12.44375 10.125 13.1875 C11 15 11 15 11 17 C9.35 16.67 7.7 16.34 6 16 C6 15.34 6 14.68 6 14 C5.34 14 4.68 14 4 14 C3.34 12.02 2.68 10.04 2 8 C1.34 8 0.68 8 0 8 C-0.38063221 5.6739143 -0.71269945 3.33944736 -1 1 C-0.67 0.67 -0.34 0.34 0 0 Z " fill="#585B9C" transform="translate(126,108)"/>
<path d="M0 0 C0 0.99 0 1.98 0 3 C-2.475 2.505 -2.475 2.505 -5 2 C-4.690625 2.763125 -4.38125 3.52625 -4.0625 4.3125 C-3.32106407 6.18789677 -2.63771783 8.08684652 -2 10 C-2.53625 9.71125 -3.0725 9.4225 -3.625 9.125 C-6.35280484 7.83288192 -9.12612718 6.91441408 -12 6 C-11.88693303 7.95894361 -11.88693303 7.95894361 -11 10 C-9.34795544 10.70211894 -7.68076231 11.36971413 -6 12 C-5.67 12.99 -5.34 13.98 -5 15 C-6.98 14.34 -8.96 13.68 -11 13 C-12.65 14.65 -14.3 16.3 -16 18 C-16.99 17.67 -17.98 17.34 -19 17 C-18.195625 16.13375 -17.39125 15.2675 -16.5625 14.375 C-14.03075864 11.37123907 -13.28342624 8.96796738 -13 5 C-11.35 4.67 -9.7 4.34 -8 4 C-7.67 3.01 -7.34 2.02 -7 1 C-4.53721199 -0.231394 -2.7204945 -0.07159196 0 0 Z " fill="#4B4E80" transform="translate(275,69)"/>
<path d="M0 0 C2.5 2.0625 2.5 2.0625 4 5 C4 8.8137751 3.84985071 11.02424548 1.3125 13.9375 C-1.73602877 15.33817538 -3.67926952 15.4842732 -7 15 C-9.65359262 13.06359458 -10.7609947 11.62141377 -11.9375 8.5625 C-12.01929321 5.20897857 -10.98804097 3.65072129 -9 1 C-5.87139505 -0.56430248 -3.44397075 -0.35627284 0 0 Z M-8.8125 3.25 C-10.37609068 5.15915708 -10.37609068 5.15915708 -9.6875 8.6875 C-9.460625 9.780625 -9.23375 10.87375 -9 12 C-6.525 12.99 -6.525 12.99 -4 14 C-3.34 13.01 -2.68 12.02 -2 11 C-2.33 10.67 -2.66 10.34 -3 10 C-1.68 10.66 -0.36 11.32 1 12 C2.20561184 11.01732141 2.20561184 11.01732141 2.09765625 9.15234375 C2.08605469 8.42144531 2.07445312 7.69054687 2.0625 6.9375 C2.041875 5.638125 2.02125 4.33875 2 3 C0.56589632 2.75045995 -0.87260072 2.52607358 -2.3125 2.3125 C-3.11300781 2.18488281 -3.91351563 2.05726562 -4.73828125 1.92578125 C-7.05627948 1.79791137 -7.05627948 1.79791137 -8.8125 3.25 Z " fill="#4B4D7E" transform="translate(205,57)"/>
<path d="M0 0 C1.65 0 3.3 0 5 0 C5.33 0.66 5.66 1.32 6 2 C6.66 2 7.32 2 8 2 C8.33 1.34 8.66 0.68 9 0 C10.65 0 12.3 0 14 0 C12.79618552 2.49361571 11.54571278 4.68143083 10 7 C9.61500109 8.65549531 9.27206865 10.3222433 9 12 C7.68 12 6.36 12 5 12 C4.731875 10.906875 4.46375 9.81375 4.1875 8.6875 C3.08641352 5.26833673 2.57525074 4.22408019 0 2 C0 1.34 0 0.68 0 0 Z " fill="#343E7D" transform="translate(334,141)"/>
<path d="M0 0 C0 0.66 0 1.32 0 2 C0.66 2 1.32 2 2 2 C1.43447641 5.28003681 0.67167078 6.97321527 -2 9 C-5.1875 10.1875 -5.1875 10.1875 -8 11 C-9.4516129 3.90322581 -9.4516129 3.90322581 -8 1 C-4.70594381 -0.82039948 -3.63772813 -1.21257604 0 0 Z " fill="#585C9D" transform="translate(95,59)"/>
<path d="M0 0 C-0.3196875 0.7115625 -0.639375 1.423125 -0.96875 2.15625 C-2.02516506 5.06939457 -2.32690285 7.41887077 -2.5 10.5 C-2.71918537 14.40149961 -3.18398577 17.50446933 -5 21 C-7.20230866 22.73892697 -9.46788239 23.7339412 -12 25 C-10.95240504 21.6667433 -10.10589449 20.09298053 -7.4375 17.75 C-4.13624002 14.02550156 -4.11594261 10.83796883 -4 6 C-4.70125 6.226875 -5.4025 6.45375 -6.125 6.6875 C-9.87700275 7.09532639 -11.79431057 5.86377293 -15 4 C-12.83682349 3.43917646 -10.7027423 2.9479799 -8.5 2.5625 C-5.47498504 1.88187163 -3.07271943 0 0 0 Z " fill="#52548B" transform="translate(182,76)"/>
<path d="M0 0 C0.33 2.97 0.66 5.94 1 9 C-2.96 9.99 -6.92 10.98 -11 12 C-10 10 -10 10 -7.93359375 9.1484375 C-7.10988281 8.89320312 -6.28617188 8.63796875 -5.4375 8.375 C-4.61121094 8.11460938 -3.78492188 7.85421875 -2.93359375 7.5859375 C-2.29550781 7.39257812 -1.65742187 7.19921875 -1 7 C-1.33 5.02 -1.66 3.04 -2 1 C-2.66 1 -3.32 1 -4 1 C-4.33 1.66 -4.66 2.32 -5 3 C-7.06640625 3.4140625 -7.06640625 3.4140625 -9.5625 3.625 C-10.38878906 3.69976562 -11.21507812 3.77453125 -12.06640625 3.8515625 C-13.02353516 3.92503906 -13.02353516 3.92503906 -14 4 C-14 5.98 -14 7.96 -14 10 C-16.29013653 6.5647952 -16.17842973 5.014669 -16 1 C-15.113125 1.04125 -14.22625 1.0825 -13.3125 1.125 C-10.048334 1.19417231 -10.048334 1.19417231 -7.4375 -0.0625 C-4.52421683 -1.18299353 -2.95495793 -0.84427369 0 0 Z " fill="#47487A" transform="translate(48,40)"/>
<path d="M0 0 C-0.33 1.65 -0.66 3.3 -1 5 C-1.66 5 -2.32 5 -3 5 C-3.72153427 7.24477329 -4.09679526 8.62491837 -3.5 10.9375 C-2.86819239 13.5437064 -3.35668389 15.42673558 -4 18 C-6.69797258 16.00584635 -7.02681526 14.87486211 -7.75 11.5 C-8 8 -8 8 -7 5 C-6.96125079 3.33378384 -6.9549714 1.66605828 -7 0 C-4.3333581 -1.33332095 -2.83319697 -0.67102033 0 0 Z " fill="#595C9E" transform="translate(121,108)"/>
<path d="M0 0 C0.66 0.99 1.32 1.98 2 3 C-2.29 7.62 -6.58 12.24 -11 17 C-12.65 15.35 -14.3 13.7 -16 12 C-18.07335593 10.52121153 -18.07335593 10.52121153 -20.125 9.375 C-22.80117529 7.82344312 -24.88830505 6.26908836 -27 4 C-22.33022559 5.276405 -18.29972319 6.41635443 -14.6875 9.75 C-12.33582626 12.23218861 -12.33582626 12.23218861 -10.0625 11.91796875 C-7.27460098 10.67714248 -6.1147591 9.00590984 -4.3125 6.5625 C-3.71050781 5.75941406 -3.10851562 4.95632812 -2.48828125 4.12890625 C-0.98008064 2.08177735 -0.98008064 2.08177735 0 0 Z " fill="#515282" transform="translate(329,49)"/>
<path d="M0 0 C2.0625 1.6875 2.0625 1.6875 4 4 C3.75 6.75 3.75 6.75 3 9 C2.01 9.33 1.02 9.66 0 10 C-1.66710346 11.49985609 -1.66710346 11.49985609 -3 13 C-3 12.01 -3 11.02 -3 10 C-3.99 9.67 -4.98 9.34 -6 9 C-5.33333333 7.66666667 -4.66666667 6.33333333 -4 5 C-3.690625 4.319375 -3.38125 3.63875 -3.0625 2.9375 C-2 1 -2 1 0 0 Z " fill="#585B9C" transform="translate(145,85)"/>
<path d="M0 0 C2.64 0 5.28 0 8 0 C7.34 1.32 6.68 2.64 6 4 C8.27415287 7.37088267 8.27415287 7.37088267 12 9 C12.33 7.68 12.66 6.36 13 5 C13 6.98 13 8.96 13 11 C11.68 11 10.36 11 9 11 C8.67 12.32 8.34 13.64 8 15 C7.34 15 6.68 15 6 15 C5.7525 13.96875 5.505 12.9375 5.25 11.875 C4.18444117 8.0683297 2.26015803 5.23955984 0 2 C0 1.34 0 0.68 0 0 Z " fill="#4C5084" transform="translate(196,89)"/>
<path d="M0 0 C0.33 0 0.66 0 1 0 C1.02691685 2.45840605 1.04679802 4.91651882 1.0625 7.375 C1.07087891 8.07367188 1.07925781 8.77234375 1.08789062 9.4921875 C1.11328125 14.7734375 1.11328125 14.7734375 0 17 C-0.75469265 23.54479361 0.14409119 28.3827982 3.22265625 34.1875 C3.47917969 34.785625 3.73570312 35.38375 4 36 C3.67 36.66 3.34 37.32 3 38 C-2.93358959 32.21855373 -2.93358959 32.21855373 -3.16796875 27.91796875 C-3.17441406 26.68691406 -3.18085938 25.45585938 -3.1875 24.1875 C-3.20167969 22.96417969 -3.21585938 21.74085937 -3.23046875 20.48046875 C-3.00742909 17.11219183 -2.26474518 15.07223533 -1 12 C-0.79677005 9.13637098 -0.79677005 9.13637098 -0.9375 6.25 C-0.99128855 4.50070276 -1.02055373 2.75000331 -1 1 C-0.67 0.67 -0.34 0.34 0 0 Z " fill="#515483" transform="translate(254,77)"/>
<path d="M0 0 C1.98 0.99 1.98 0.99 4 2 C4 2.66 4 3.32 4 4 C4.66 4.33 5.32 4.66 6 5 C6.556875 6.175625 6.556875 6.175625 7.125 7.375 C9.83224347 11.16514085 12.60276505 11.63036944 17 13 C18.01111093 9.95086772 18.01111093 9.95086772 17 7 C17.99 7 18.98 7 20 7 C20.33 8.98 20.66 10.96 21 13 C19.375 14.625 19.375 14.625 17 16 C11.09742661 15.19510363 7.02080778 11.11844329 3 7 C0 2.78125 0 2.78125 0 0 Z " fill="#4D5081" transform="translate(56,112)"/>
<path d="M0 0 C0.5534764 2.07553648 1 3.84365964 1 6 C1.99 7.485 1.99 7.485 3 9 C4.65 8.67 6.3 8.34 8 8 C8.66 9.32 9.32 10.64 10 12 C5.25 13 5.25 13 3 13 C1.37485532 14.45833358 1.37485532 14.45833358 0 16 C0.061875 15.05125 0.12375 14.1025 0.1875 13.125 C0.0946875 11.578125 0.0946875 11.578125 0 10 C-0.99 9.34 -1.98 8.68 -3 8 C-3.99 8.33 -4.98 8.66 -6 9 C-5.1875 7.0625 -5.1875 7.0625 -4 5 C-3.01 4.67 -2.02 4.34 -1 4 C-0.26676204 1.98491642 -0.26676204 1.98491642 0 0 Z " fill="#4B4E8A" transform="translate(148,78)"/>
<path d="M0 0 C0.66 0 1.32 0 2 0 C3.98148157 5.94444472 4.23567931 14.39837546 2.17578125 20.40234375 C1.125 22.1875 1.125 22.1875 -1 25 C-1.6802367 26.32646156 -2.35492261 27.65608877 -3 29 C-3.8125 26.4375 -3.8125 26.4375 -4 23 C-3.175 22.05125 -2.35 21.1025 -1.5 20.125 C2.17704914 15.67810035 1.10128599 10.73012134 0.609375 5.33447266 C0.425542 3.5542172 0.21542337 1.77670955 0 0 Z " fill="#505288" transform="translate(289,76)"/>
<path d="M0 0 C2 3 2 3 2.3125 5.0625 C2.539375 5.701875 2.76625 6.34125 3 7 C4.6476038 7.71247732 6.31763529 8.37400383 8 9 C8.66 9.721875 9.32 10.44375 10 11.1875 C10.66 11.785625 11.32 12.38375 12 13 C14.70705512 12.85974801 14.70705512 12.85974801 17 12 C16 15 16 15 14.25 15.9375 C10.82767687 16.03256453 9.41035065 14.28006143 7 12 C6.67 11.34 6.34 10.68 6 10 C5.01 9.67 4.02 9.34 3 9 C3.33 10.98 3.66 12.96 4 15 C2.05078125 13.8515625 2.05078125 13.8515625 0 12 C-0.64453125 9.3359375 -0.64453125 9.3359375 -0.8125 6.375 C-0.88082031 5.39273438 -0.94914063 4.41046875 -1.01953125 3.3984375 C-1 1 -1 1 0 0 Z " fill="#494E7E" transform="translate(222,59)"/>
<path d="M0 0 C3 1 3 1 4.17578125 3.20703125 C6.48105229 11.0187317 4.98824396 20.02345948 4 28 C3.67 28 3.34 28 3 28 C3 20.74 3 13.48 3 6 C1.35 6.66 -0.3 7.32 -2 8 C-2.33 7.01 -2.66 6.02 -3 5 C-2.360625 4.87625 -1.72125 4.7525 -1.0625 4.625 C-0.381875 4.41875 0.29875 4.2125 1 4 C1.33 3.34 1.66 2.68 2 2 C1.34 2 0.68 2 0 2 C0 1.34 0 0.68 0 0 Z " fill="#535687" transform="translate(158,90)"/>
<path d="M0 0 C1.9375 1.125 1.9375 1.125 3 3 C3.42030443 6.29238472 3.295454 8.33957342 1.9375 11.375 C-0.93947559 13.78794727 -3.37659799 13.2734643 -7 13 C-7.33 12.34 -7.66 11.68 -8 11 C-5.69 11.33 -3.38 11.66 -1 12 C-0.15545644 8.62182575 0.10844919 6.32534757 -1 3 C-4.34252724 2.92572162 -6.8035914 2.93453047 -10 4 C-9.67 3.01 -9.34 2.02 -9 1 C-5.95016004 -0.52491998 -3.3576631 -0.23562548 0 0 Z " fill="#4C4E80" transform="translate(144,64)"/>
<path d="M0 0 C0.99 0.33 1.98 0.66 3 1 C2.505 1.391875 2.01 1.78375 1.5 2.1875 C-0.20243525 3.92909927 -0.20243525 3.92909927 -0.375 6.4375 C0.08269275 9.56506709 0.68627403 10.84052243 3 13 C6.10197397 13.80946422 6.10197397 13.80946422 9 14 C9 14.33 9 14.66 9 15 C2.65625 15.48798077 2.65625 15.48798077 -0.4375 13.1875 C-2 11 -2 11 -2 8 C-3.093125 8.515625 -4.18625 9.03125 -5.3125 9.5625 C-9 11 -9 11 -12 10 C-10.5459375 9.1028125 -10.5459375 9.1028125 -9.0625 8.1875 C-5.76947958 6.28872491 -5.76947958 6.28872491 -5 3 C-4.34 3.66 -3.68 4.32 -3 5 C-2.01 3.35 -1.02 1.7 0 0 Z " fill="#4C4E7E" transform="translate(173,49)"/>
<path d="M0 0 C2.5625 1.625 2.5625 1.625 4 4 C3.75 7.25 3.75 7.25 3 10 C2.67 10 2.34 10 2 10 C1.67 8.02 1.34 6.04 1 4 C0.01 4 -0.98 4 -2 4 C-2 3.34 -2 2.68 -2 2 C-4.31 2.66 -6.62 3.32 -9 4 C-9.33 5.98 -9.66 7.96 -10 10 C-10.66 9.34 -11.32 8.68 -12 8 C-11.8125 5 -11.8125 5 -11 2 C-7.31416051 -0.45722633 -4.28004572 -0.68755754 0 0 Z " fill="#343D6F" transform="translate(371,141)"/>
<path d="M0 0 C1.32 0 2.64 0 4 0 C5.06775224 1.96466413 6.06553465 3.96855359 7 6 C6.67 6.66 6.34 7.32 6 8 C3.36 8 0.72 8 -2 8 C-1.125 1.125 -1.125 1.125 0 0 Z " fill="#394192" transform="translate(297,143)"/>
<path d="M0 0 C3.29148243 1.13499394 3.9959869 1.99283376 5.75 5.125 C6.1625 6.07375 6.575 7.0225 7 8 C7.66 8 8.32 8 9 8 C9 8.99 9 9.98 9 11 C7.68 11 6.36 11 5 11 C4.34 9.68 3.68 8.36 3 7 C2.71125 7.969375 2.4225 8.93875 2.125 9.9375 C1 13 1 13 -1 14 C-0.835 13.29875 -0.67 12.5975 -0.5 11.875 C0.02578792 8.85171946 0.06659301 6.06327839 0 3 C0 2.01 0 1.02 0 0 Z " fill="#4D5092" transform="translate(175,112)"/>
<path d="M0 0 C0.66 0.33 1.32 0.66 2 1 C-2.30972626 5.09949571 -4.85310727 6.63118644 -11 7 C-10.67 9.97 -10.34 12.94 -10 16 C-11.90389849 13.14415227 -12.69462177 11.0688238 -13.625 7.8125 C-14.01558594 6.46091797 -14.01558594 6.46091797 -14.4140625 5.08203125 C-14.70410156 4.05142578 -14.70410156 4.05142578 -15 3 C-13.68 3 -12.36 3 -11 3 C-11 3.66 -11 4.32 -11 5 C-9.72740489 4.54658132 -8.45698757 4.08704773 -7.1875 3.625 C-6.47980469 3.36976562 -5.77210937 3.11453125 -5.04296875 2.8515625 C-2.75226641 1.9734231 -2.75226641 1.9734231 0 0 Z " fill="#4E4E7D" transform="translate(74,29)"/>
<path d="M0 0 C4.88135593 4.27118644 4.88135593 4.27118644 5.4375 7.6875 C5 10 5 10 3 12 C0.125 12.375 0.125 12.375 -3 12 C-5.375 10.125 -5.375 10.125 -7 8 C-7 7.34 -7 6.68 -7 6 C-4.33333333 7.33333333 -1.66666667 8.66666667 1 10 C2.40096246 6.92757947 2.40096246 6.92757947 0.5625 3.8125 C0.046875 2.884375 -0.46875 1.95625 -1 1 C-0.67 0.67 -0.34 0.34 0 0 Z " fill="#4B4E7D" transform="translate(258,115)"/>
<path d="M0 0 C3.125 0.375 3.125 0.375 5.5 2 C7.6003727 5.06977548 7.65793835 6.72056561 7.125 10.375 C5.625 12.75 5.625 12.75 4.125 14.375 C3.135 14.045 2.145 13.715 1.125 13.375 C1.434375 12.83875 1.74375 12.3025 2.0625 11.75 C3.30327439 8.9765043 3.7159675 6.37457163 4.125 3.375 C1.155 3.045 -1.815 2.715 -4.875 2.375 C-2.875 0.375 -2.875 0.375 0 0 Z " fill="#4A4D81" transform="translate(211.875,71.625)"/>
<path d="M0 0 C1.32 0 2.64 0 4 0 C4 3.96 4 7.92 4 12 C2.68 12 1.36 12 0 12 C0 8.04 0 4.08 0 0 Z " fill="#3D467E" transform="translate(250,141)"/>
<path d="M0 0 C2.17854707 3.2678206 3.49760034 6.38058265 5 10 C6.29633621 8.93354885 6.29633621 8.93354885 6.0625 6.4375 C6.041875 5.633125 6.02125 4.82875 6 4 C6.66 3.67 7.32 3.34 8 3 C8.38909985 4.45463481 8.76088029 5.91391207 9.125 7.375 C9.33382812 8.18710938 9.54265625 8.99921875 9.7578125 9.8359375 C9.83773437 10.55007812 9.91765625 11.26421875 10 12 C9.34 12.66 8.68 13.32 8 14 C6.0625 13.9375 6.0625 13.9375 4 13 C0.68522323 8.94860617 0.42771991 5.04709495 0 0 Z " fill="#494D7B" transform="translate(216,114)"/>
<path d="M0 0 C3.63 0 7.26 0 11 0 C11.33 0.99 11.66 1.98 12 3 C11.01 4.485 11.01 4.485 10 6 C8.35 5.67 6.7 5.34 5 5 C6 3 6 3 7 2 C5.02 2 3.04 2 1 2 C1 2.66 1 3.32 1 4 C0.34 4 -0.32 4 -1 4 C-0.67 2.68 -0.34 1.36 0 0 Z " fill="#343D7F" transform="translate(509,141)"/>
<path d="M0 0 C2.875 -0.125 2.875 -0.125 6 0 C6.66 0.66 7.32 1.32 8 2 C6.02 2.33 4.04 2.66 2 3 C1.46845258 4.60064843 0.95011647 6.20568874 0.4375 7.8125 C0.14746094 8.70582031 -0.14257812 9.59914063 -0.44140625 10.51953125 C-1.24979556 13.11215139 -1.24979556 13.11215139 0 16 C-1.32 16 -2.64 16 -4 16 C-2.98408579 10.53135543 -1.92908943 5.23609987 0 0 Z " fill="#090909" transform="translate(489,38)"/>
<path d="M0 0 C-0.63550204 1.90650613 -1.29917291 3.80402718 -2 5.6875 C-2.81582547 8.38992187 -3.16188608 10.42716738 -3.375 13.1875 C-4 17 -4 17 -6.0625 19 C-6.701875 19.33 -7.34125 19.66 -8 20 C-9.32 19.34 -10.64 18.68 -12 18 C-10.35 17.34 -8.7 16.68 -7 16 C-6.814375 14.453125 -6.814375 14.453125 -6.625 12.875 C-6.06051147 9.37517112 -5.16311332 6.33425817 -4 3 C-4 2.34 -4 1.68 -4 1 C-2 0 -2 0 0 0 Z " fill="#515387" transform="translate(279,108)"/>
<path d="M0 0 C1.32 0.66 2.64 1.32 4 2 C3.42152602 5.18160689 2.89983211 7.35865098 0.19140625 9.2890625 C-3.06635749 10.95082089 -5.29745848 12 -9 12 C-8.67 10.68 -8.34 9.36 -8 8 C-5.69 8 -3.38 8 -1 8 C-0.40267181 5.23735711 0 2.83967231 0 0 Z " fill="#56599E" transform="translate(213,91)"/>
<path d="M0 0 C0.33 0 0.66 0 1 0 C1.06058594 0.59167969 1.12117187 1.18335937 1.18359375 1.79296875 C1.26738281 2.58316406 1.35117188 3.37335938 1.4375 4.1875 C1.52257812 5.01121094 1.60765625 5.83492188 1.6953125 6.68359375 C1.95199305 9.10040322 1.95199305 9.10040322 2.8125 11.75 C3 14 3 14 1.25 16.625 C-2.42105263 20.5 -2.42105263 20.5 -4 22 C-4.66 21.67 -5.32 21.34 -6 21 C-5.65066406 20.57332031 -5.30132812 20.14664063 -4.94140625 19.70703125 C-0.40638235 13.47619104 -0.12670252 7.55607758 0 0 Z " fill="#545588" transform="translate(241,79)"/>
<path d="M0 0 C0.66 0.99 1.32 1.98 2 3 C1.34 3 0.68 3 0 3 C-0.2475 3.598125 -0.495 4.19625 -0.75 4.8125 C-2.16370012 7.28647521 -3.65055383 8.43370255 -6 10 C-7.5 8.75 -7.5 8.75 -9 7 C-9 5.68 -9 4.36 -9 3 C-6.03 3.495 -6.03 3.495 -3 4 C-3 3.34 -3 2.68 -3 2 C-2.01 2 -1.02 2 0 2 C0 1.34 0 0.68 0 0 Z " fill="#525595" transform="translate(279,68)"/>
<path d="M0 0 C3.66579804 3.25848714 5.18909198 5.50895405 5.8125 10.375 C5.874375 11.57125 5.93625 12.7675 6 14 C5.7525 13.46375 5.505 12.9275 5.25 12.375 C2.50097456 6.54284601 2.50097456 6.54284601 -2.5625 3.125 C-4.37309963 3.03214874 -6.18702114 3 -8 3 C-8 2.34 -8 1.68 -8 1 C-5.074084 -0.462958 -3.24382653 -0.44523109 0 0 Z " fill="#4E5281" transform="translate(185,65)"/>
<path d="M0 0 C1.32 0.66 2.64 1.32 4 2 C3.34 3.65 2.68 5.3 2 7 C1.34 7 0.68 7 0 7 C-0.33 7.99 -0.66 8.98 -1 10 C-2.32 10 -3.64 10 -5 10 C-5 9.01 -5 8.02 -5 7 C-4.34 7 -3.68 7 -3 7 C-2.87625 6.21625 -2.7525 5.4325 -2.625 4.625 C-2 2 -2 2 0 0 Z " fill="#585C9D" transform="translate(224,43)"/>
<path d="M0 0 C0.99 0.33 1.98 0.66 3 1 C2.731875 1.53625 2.46375 2.0725 2.1875 2.625 C1.95477689 5.57282601 2.5799856 6.04811495 4.4375 8.25 C5.283125 9.1575 6.12875 10.065 7 11 C3.74456771 10.65120368 2.98126893 9.97866739 0.75 7.4375 C0.1725 6.633125 -0.405 5.82875 -1 5 C-1.5775 5.61875 -2.155 6.2375 -2.75 6.875 C-4.80249821 8.81347053 -6.43366582 9.90014249 -9 11 C-7.59155282 7.78475695 -5.89655214 5.67816132 -3.375 3.25 C-2.74335938 2.63640625 -2.11171875 2.0228125 -1.4609375 1.390625 C-0.73777344 0.70226562 -0.73777344 0.70226562 0 0 Z " fill="#48497B" transform="translate(309,29)"/>
<path d="M0 0 C2.97 0.495 2.97 0.495 6 1 C5.67 2.32 5.34 3.64 5 5 C5.66 5.33 6.32 5.66 7 6 C5.68 6 4.36 6 3 6 C2.67 6.99 2.34 7.98 2 9 C1.34 9 0.68 9 0 9 C0 6.03 0 3.06 0 0 Z " fill="#42488C" transform="translate(459,143)"/>
<path d="M0 0 C3.96 0 7.92 0 12 0 C12 0.99 12 1.98 12 3 C8.03611362 3.07622858 4.8726592 2.9681648 1 2 C1 4.97 1 7.94 1 11 C0.67 11 0.34 11 0 11 C0 7.37 0 3.74 0 0 Z " fill="#3C4272" transform="translate(458,141)"/>
<path d="M0 0 C1.32 0 2.64 0 4 0 C4.08090971 1.62418745 4.13914995 3.24951745 4.1875 4.875 C4.22230469 5.77992188 4.25710938 6.68484375 4.29296875 7.6171875 C4.19628906 8.40351563 4.09960938 9.18984375 4 10 C0.3558226 12.4294516 -1.71241272 12.16179575 -6 12 C-6 11.67 -6 11.34 -6 11 C-4.35 11 -2.7 11 -1 11 C-0.67 10.34 -0.34 9.68 0 9 C0.66 9.33 1.32 9.66 2 10 C1.835 9.195625 1.67 8.39125 1.5 7.5625 C1 5 1 5 1 4 C0.67619874 2.66431979 0.34342449 1.33076989 0 0 Z " fill="#3B416F" transform="translate(397,141)"/>
<path d="M0 0 C1.65 0 3.3 0 5 0 C5.33 0.66 5.66 1.32 6 2 C6.66 2 7.32 2 8 2 C8.33 1.34 8.66 0.68 9 0 C10.65 0 12.3 0 14 0 C13.67 0.99 13.34 1.98 13 3 C12.67 2.34 12.34 1.68 12 1 C11.34 1 10.68 1 10 1 C10 1.99 10 2.98 10 4 C8.35 4 6.7 4 5 4 C4.67 4.99 4.34 5.98 4 7 C0 2.25 0 2.25 0 0 Z " fill="#303C6C" transform="translate(334,141)"/>
<path d="M0 0 C0.66 0 1.32 0 2 0 C4.29750805 2.90567195 5.8692712 5.04132216 6.375 8.75 C6 11 6 11 4 13 C0.875 13.125 0.875 13.125 -2 13 C-2 12.01 -2 11.02 -2 10 C0.31 10 2.62 10 5 10 C4.34 8.35 3.68 6.7 3 5 C2.34 5 1.68 5 1 5 C0.67 3.35 0.34 1.7 0 0 Z " fill="#4D4E80" transform="translate(186,114)"/>
<path d="M0 0 C1.67578125 1.2265625 1.67578125 1.2265625 3 3 C3.29296875 5.26171875 3.29296875 5.26171875 3.1875 7.6875 C3.16042969 8.49574219 3.13335937 9.30398437 3.10546875 10.13671875 C3.07066406 10.75160156 3.03585938 11.36648437 3 12 C2.34 11.67 1.68 11.34 1 11 C0.59270772 8.67843403 0.25561323 6.3431213 0 4 C-1.11375 3.855625 -2.2275 3.71125 -3.375 3.5625 C-7 3 -7 3 -9 2 C-5.53076119 -0.31282587 -4.07794425 -0.42478586 0 0 Z " fill="#4C5083" transform="translate(97,73)"/>
<path d="M0 0 C0.66 0.66 1.32 1.32 2 2 C1.86265864 5.77688741 1.77235941 8.14774134 -0.8125 11 C-3 12 -3 12 -5.25 11.6875 C-5.8275 11.460625 -6.405 11.23375 -7 11 C-6.67 10.34 -6.34 9.68 -6 9 C-6 8.01 -6 7.02 -6 6 C-5.01 6 -4.02 6 -3 6 C-3 6.99 -3 7.98 -3 9 C-2.34 8.67 -1.68 8.34 -1 8 C-1.020625 6.865625 -1.04125 5.73125 -1.0625 4.5625 C-1 1 -1 1 0 0 Z " fill="#515589" transform="translate(207,60)"/>
<path d="M0 0 C0.33 2.64 0.66 5.28 1 8 C-0.65 8 -2.3 8 -4 8 C-4.33 7.34 -4.66 6.68 -5 6 C-4.34 5.01 -3.68 4.02 -3 3 C-3.99 2.01 -4.98 1.02 -6 0 C-3.50907189 -1.24546405 -2.58919267 -0.7767578 0 0 Z " fill="#505391" transform="translate(230,42)"/>
<path d="M0 0 C2.0964688 1.71786123 2.92789656 2.70577924 3.58203125 5.375 C3.65808594 6.24125 3.73414063 7.1075 3.8125 8 C3.94591797 9.299375 3.94591797 9.299375 4.08203125 10.625 C4 13 4 13 2 16 C0.63255705 11.81723334 -0.16419034 9.22018998 1 5 C0.14209817 2.78228936 0.14209817 2.78228936 -1 1 C-0.67 0.67 -0.34 0.34 0 0 Z " fill="#484A8C" transform="translate(131,77)"/>
<path d="M0 0 C3.35107228 0.18278576 6.00231123 0.36813045 8.875 2.1875 C10.48390994 4.77963268 10.81086908 6.97390524 11 10 C10.01 11.485 10.01 11.485 9 13 C8.80664062 12.36191406 8.61328125 11.72382812 8.4140625 11.06640625 C8.15367188 10.24011719 7.89328125 9.41382813 7.625 8.5625 C7.36976562 7.73878906 7.11453125 6.91507813 6.8515625 6.06640625 C6.19117773 3.82201984 6.19117773 3.82201984 4 3 C2.00448218 2.64080679 0.00451121 2.30503431 -2 2 C-1.34 1.34 -0.68 0.68 0 0 Z " fill="#4B4E7C" transform="translate(52,51)"/>
<path d="M0 0 C0.99 2.97 1.98 5.94 3 9 C2.34 9 1.68 9 1 9 C-0.76462683 5.91190305 -1 4.76687864 -1 1 C-5.2020187 2.33218872 -5.2020187 2.33218872 -9.1875 4.1875 C-11 5 -11 5 -14 4 C-9.02495953 0.75099398 -6.11774896 -0.49940808 0 0 Z " fill="#4C4D7C" transform="translate(90,24)"/>
<path d="M0 0 C0 0.66 0 1.32 0 2 C-5.61 2 -11.22 2 -17 2 C-17.33 1.34 -17.66 0.68 -18 0 C-15.3753399 -0.19430855 -12.75053235 -0.38073238 -10.125 -0.5625 C-9.00544922 -0.64661133 -9.00544922 -0.64661133 -7.86328125 -0.73242188 C-2.2265625 -1.11328125 -2.2265625 -1.11328125 0 0 Z " fill="#070707" transform="translate(445,120)"/>
<path d="M0 0 C2.45997226 0.36615939 3.66338429 0.57148286 5.23046875 2.56640625 C7.57493928 7.45630192 8.61315341 11.58414771 9 17 C6.0940196 13.46228473 5.22237513 10.86795105 4.6875 6.375 C4.23436474 3.82985584 4.23436474 3.82985584 1.9375 2.6875 C1.298125 2.460625 0.65875 2.23375 0 2 C0 1.34 0 0.68 0 0 Z " fill="#4B4F81" transform="translate(60,68)"/>
<path d="M0 0 C2 2 2 2 2.0625 5.375 C2.041875 6.57125 2.02125 7.7675 2 9 C2.42854995 11.31036915 2.42854995 11.31036915 3 13 C2.67 12.34 2.34 11.68 2 11 C1.34 11 0.68 11 0 11 C-0.33 11.99 -0.66 12.98 -1 14 C-2.4606285 11.35261084 -3 10.10551666 -3 7 C-2.01 6.34 -1.02 5.68 0 5 C0.25030977 2.41619823 0.25030977 2.41619823 0 0 Z " fill="#4E5184" transform="translate(151,93)"/>
<path d="M0 0 C0.33 0 0.66 0 1 0 C1 2.97 1 5.94 1 9 C1.66 9.33 2.32 9.66 3 10 C3.33 8.35 3.66 6.7 4 5 C4.66 5 5.32 5 6 5 C5.67 6.98 5.34 8.96 5 11 C3.34385343 11.38218767 1.67542976 11.71395102 0 12 C-1 11 -1 11 -1.125 7.6875 C-1.02893262 4.85351237 -0.85249568 2.66404901 0 0 Z " fill="#4B4E7F" transform="translate(207,116)"/>
<path d="M0 0 C1.65 0.33 3.3 0.66 5 1 C3 5 3 5 1.9375 6.8125 C0.6532312 9.80912721 0.37181126 12.77763576 0 16 C-1.88259397 13.23147945 -1.99761714 11.97378855 -1.6875 8.5625 C-1.460625 7.386875 -1.23375 6.21125 -1 5 C-0.814375 4.030625 -0.62875 3.06125 -0.4375 2.0625 C-0.293125 1.381875 -0.14875 0.70125 0 0 Z " fill="#4E5289" transform="translate(52,107)"/>
<path d="M0 0 C2.04119788 1.61594832 4.04072937 3.2856382 6 5 C6 5.66 6 6.32 6 7 C7.32 7.66 8.64 8.32 10 9 C7.69 9 5.38 9 3 9 C2.67 7.35 2.34 5.7 2 4 C1.01 4 0.02 4 -1 4 C-0.67 2.68 -0.34 1.36 0 0 Z " fill="#535799" transform="translate(75,72)"/>
<path d="M0 0 C0.66 0.33 1.32 0.66 2 1 C2 1.66 2 2.32 2 3 C3.32 2.67 4.64 2.34 6 2 C5.67 2.99 5.34 3.98 5 5 C1.37 5 -2.26 5 -6 5 C-6 4.34 -6 3.68 -6 3 C-5.195625 2.690625 -4.39125 2.38125 -3.5625 2.0625 C-1.10919595 1.23664655 -1.10919595 1.23664655 0 0 Z " fill="#3B4277" transform="translate(515,148)"/>
<path d="M0 0 C3 1 3 1 4 3 C4.06950541 4.54023996 4.08452357 6.08334988 4.0625 7.625 C4.05347656 8.44226562 4.04445313 9.25953125 4.03515625 10.1015625 C4.02355469 10.72804688 4.01195312 11.35453125 4 12 C3.34 12 2.68 12 2 12 C0.86235649 7.73383684 0 4.43513689 0 0 Z " fill="#50547E" transform="translate(33,51)"/>
<path d="M0 0 C2.6486859 3.19668988 4.93992341 6.39486597 7 10 C5.68 11.32 4.36 12.64 3 14 C2.01 13.34 1.02 12.68 0 12 C0.99 11.67 1.98 11.34 3 11 C2.42547254 7.06924356 2.42547254 7.06924356 0 4 C0 2.68 0 1.36 0 0 Z " fill="#494B78" transform="translate(133,114)"/>
<path d="M0 0 C0.66 0.66 1.32 1.32 2 2 C-0.85276137 4.93200474 -3.65079784 7.64315404 -7 10 C-6.84518205 7.29068581 -6.51827919 5.53415961 -4.59765625 3.5546875 C-3.10228292 2.32320358 -1.5537076 1.1570163 0 0 Z " fill="#525588" transform="translate(51,83)"/>
<path d="M0 0 C2 2 2 2 2 5 C1.40832031 5.19335938 0.81664063 5.38671875 0.20703125 5.5859375 C-3.9146645 6.94414719 -7.9950524 8.32050585 -12 10 C-11 7 -11 7 -8.75 5.375 C-6.10276163 4.05138082 -3.91410782 3.41630112 -1 3 C-0.67 2.01 -0.34 1.02 0 0 Z " fill="#4D4E7C" transform="translate(94,37)"/>
<path d="M0 0 C2.475 0.99 2.475 0.99 5 2 C5.33 4.64 5.66 7.28 6 10 C3.54896452 9.01958581 2.23241214 8.3486182 0.75 6.125 C0 4 0 4 0 0 Z " fill="#505490" transform="translate(224,67)"/>
<path d="M0 0 C1.32 0 2.64 0 4 0 C4 2.31 4 4.62 4 7 C3.01 6.01 2.02 5.02 1 4 C0.67 5.65 0.34 7.3 0 9 C-0.33 9 -0.66 9 -1 9 C-1.09765625 2.84765625 -1.09765625 2.84765625 -1 1 C-0.67 0.67 -0.34 0.34 0 0 Z " fill="#303C6C" transform="translate(388,141)"/>
<path d="M0 0 C0.33 1.32 0.66 2.64 1 4 C-2.96 5.98 -2.96 5.98 -7 8 C-7.33 6.68 -7.66 5.36 -8 4 C-7.34 3.34 -6.68 2.68 -6 2 C-5.01 2 -4.02 2 -3 2 C-2.01 1.34 -1.02 0.68 0 0 Z " fill="#595E9E" transform="translate(157,80)"/>
<path d="M0 0 C4.19284803 0.73558737 6.20371886 2.7744251 9.21875 5.625 C11.15412989 7.11897746 12.61327972 7.58127714 15 8 C14 9 14 9 11.25 9.4375 C8 9 8 9 5.3125 6.0625 C4.549375 5.051875 3.78625 4.04125 3 3 C2.01 2.67 1.02 2.34 0 2 C0 1.34 0 0.68 0 0 Z " fill="#434A7B" transform="translate(73,70)"/>
<path d="M0 0 C0.99 0.33 1.98 0.66 3 1 C3 3.31 3 5.62 3 8 C1.35 7.67 -0.3 7.34 -2 7 C-2 6.34 -2 5.68 -2 5 C-1.34 5 -0.68 5 0 5 C0 3.35 0 1.7 0 0 Z " fill="#454C95" transform="translate(544,143)"/>
<path d="M0 0 C1.32 0 2.64 0 4 0 C4.625 1.8125 4.625 1.8125 5 4 C4.01 5.485 4.01 5.485 3 7 C2.34 6.67 1.68 6.34 1 6 C1 5.34 1 4.68 1 4 C0.34 4 -0.32 4 -1 4 C-0.67 2.68 -0.34 1.36 0 0 Z " fill="#343C86" transform="translate(465,144)"/>
<path d="M0 0 C1 3 1 3 0.5 5.75 C-0.06248099 9.40612646 0.34789848 12.37721377 1 16 C0.01 15.67 -0.98 15.34 -2 15 C-1.67 14.01 -1.34 13.02 -1 12 C-1.66 12 -2.32 12 -3 12 C-3 10.35 -3 8.7 -3 7 C-2.34 7 -1.68 7 -1 7 C-0.67 4.69 -0.34 2.38 0 0 Z " fill="#54558B" transform="translate(186,98)"/>
<path d="M0 0 C0.99 1.32 1.98 2.64 3 4 C4.32 3.67 5.64 3.34 7 3 C6.34 4.65 5.68 6.3 5 8 C4.01 8 3.02 8 2 8 C1.34 8.99 0.68 9.98 0 11 C0 7.37 0 3.74 0 0 Z " fill="#4D5080" transform="translate(191,79)"/>
<path d="M0 0 C2.31 0.66 4.62 1.32 7 2 C7 3.32 7 4.64 7 6 C6.01 6 5.02 6 4 6 C3.34 5.34 2.68 4.68 2 4 C1.01 4.66 0.02 5.32 -1 6 C-0.67 4.02 -0.34 2.04 0 0 Z " fill="#3C468B" transform="translate(513,145)"/>
<path d="M0 0 C-4.90924297 3.92739438 -7.73920552 4.43177893 -14 4 C-11.8244694 1.8244694 -10.44026108 1.28120447 -7.5625 0.3125 C-6.78003906 0.04050781 -5.99757813 -0.23148438 -5.19140625 -0.51171875 C-3 -1 -3 -1 0 0 Z " fill="#505286" transform="translate(82,48)"/>
<path d="M0 0 C1.98 0 3.96 0 6 0 C5.67 0.66 5.34 1.32 5 2 C4.34 2 3.68 2 3 2 C3.34227572 4.97065509 3.34227572 4.97065509 4 8 C4.66 8.33 5.32 8.66 6 9 C5.01 10.485 5.01 10.485 4 12 C3.32645501 10.56570999 2.66140299 9.12742943 2 7.6875 C1.62875 6.88699219 1.2575 6.08648437 0.875 5.26171875 C0 3 0 3 0 0 Z " fill="#454978" transform="translate(214,46)"/>
<path d="M0 0 C9.77272727 2.95454545 9.77272727 2.95454545 12.3125 7.1875 C12.539375 7.785625 12.76625 8.38375 13 9 C10.39406936 7.74915329 7.8805129 6.37594686 5.375 4.9375 C3.60426608 3.92096756 1.82621725 2.91310863 0 2 C0 1.34 0 0.68 0 0 Z " fill="#4A4F7D" transform="translate(316,40)"/>
<path d="M0 0 C0.99 0.33 1.98 0.66 3 1 C3 2.98 3 4.96 3 7 C1.35 7.33 -0.3 7.66 -2 8 C-2 7.01 -2 6.02 -2 5 C-1.34 5 -0.68 5 0 5 C0 3.35 0 1.7 0 0 Z " fill="#535791" transform="translate(91,33)"/>
<path d="M0 0 C0.33 0 0.66 0 1 0 C1.28999491 4.92991345 1.19703098 8.09251769 -2 12 C-2.99 12 -3.98 12 -5 12 C-4.1875 9.5625 -4.1875 9.5625 -3 7 C-2.01 6.67 -1.02 6.34 0 6 C0 4.02 0 2.04 0 0 Z " fill="#525587" transform="translate(68,86)"/>
<path d="M0 0 C0.66 0 1.32 0 2 0 C2.63019694 8.19256018 2.63019694 8.19256018 0 11.5625 C-0.99 12.2740625 -0.99 12.2740625 -2 13 C-1.38722388 10.03824877 -0.74627478 8.61941217 1 6 C0.34 5.67 -0.32 5.34 -1 5 C-1.33 4.01 -1.66 3.02 -2 2 C-1.34 2 -0.68 2 0 2 C0 1.34 0 0.68 0 0 Z " fill="#53568F" transform="translate(189,85)"/>
<path d="M0 0 C2.9375 0.75 2.9375 0.75 4.9375 2.75 C5.0625 6.375 5.0625 6.375 4.9375 9.75 C4.6075 9.75 4.2775 9.75 3.9375 9.75 C3.9375 7.77 3.9375 5.79 3.9375 3.75 C2.65875 3.605625 1.38 3.46125 0.0625 3.3125 C-2.31942894 3.04357254 -3.90702691 2.82773654 -6.0625 1.75 C-3.0625 -0.25 -3.0625 -0.25 0 0 Z " fill="#4B4B76" transform="translate(155.0625,75.25)"/>
<path d="M0 0 C1.32 0.33 2.64 0.66 4 1 C3.34 1 2.68 1 2 1 C1.67 2.98 1.34 4.96 1 7 C0.34 7 -0.32 7 -1 7 C-1.33 7.99 -1.66 8.98 -2 10 C-2.25 3.375 -2.25 3.375 0 0 Z " fill="#545589" transform="translate(48,53)"/>
<path d="M0 0 C1.32 0 2.64 0 4 0 C4.66 1.65 5.32 3.3 6 5 C5.01 5.495 5.01 5.495 4 6 C4 5.34 4 4.68 4 4 C3.01 4 2.02 4 1 4 C0.67 4.66 0.34 5.32 0 6 C0 4.02 0 2.04 0 0 Z " fill="#434693" transform="translate(534,142)"/>
<path d="M0 0 C1.03159626 3.09478879 0.97482862 4.52631393 0.5625 7.6875 C0.46066406 8.49574219 0.35882813 9.30398437 0.25390625 10.13671875 C0.17011719 10.75160156 0.08632812 11.36648437 0 12 C-0.99 12.33 -1.98 12.66 -3 13 C-2.69128878 11.20767663 -2.37790936 9.41615679 -2.0625 7.625 C-1.88847656 6.62726563 -1.71445313 5.62953125 -1.53515625 4.6015625 C-1 2 -1 2 0 0 Z " fill="#4B5080" transform="translate(149,110)"/>
<path d="M0 0 C0.66 0 1.32 0 2 0 C2 3 2 3 0.1875 5.125 C-2 7 -2 7 -5 8 C-5 8.66 -5 9.32 -5 10 C-5.66 9.67 -6.32 9.34 -7 9 C-5.88266271 7.49428343 -4.75589965 5.99555708 -3.625 4.5 C-2.99851562 3.6646875 -2.37203125 2.829375 -1.7265625 1.96875 C-1.15679687 1.3190625 -0.58703125 0.669375 0 0 Z " fill="#4D4F7C" transform="translate(277,93)"/>
<path d="M0 0 C1.32 0.99 2.64 1.98 4 3 C3.67 3.99 3.34 4.98 3 6 C2.34 6 1.68 6 1 6 C0.67 7.32 0.34 8.64 0 10 C-0.144375 9.401875 -0.28875 8.80375 -0.4375 8.1875 C-0.8872439 6.43849596 -1.42892341 4.71322977 -2 3 C-1.34 3 -0.68 3 0 3 C0 2.01 0 1.02 0 0 Z " fill="#505282" transform="translate(84,94)"/>
<path d="M0 0 C0.99 0.33 1.98 0.66 3 1 C1.75023244 4.65316671 1.32901247 5.78065836 -2 8 C-2.33 7.01 -2.66 6.02 -3 5 C-1.5625 2.3125 -1.5625 2.3125 0 0 Z " fill="#4C509D" transform="translate(58,67)"/>
<path d="M0 0 C0.66 0.33 1.32 0.66 2 1 C0.37660195 2.70884005 -1.29319053 4.37446717 -3 6 C-3.66 6 -4.32 6 -5 6 C-5 6.66 -5 7.32 -5 8 C-7 7 -7 7 -8 5 C-6.71475739 4.13619741 -5.42157581 3.28419631 -4.125 2.4375 C-3.04605469 1.72400391 -3.04605469 1.72400391 -1.9453125 0.99609375 C-1.30335938 0.66738281 -0.66140625 0.33867188 0 0 Z " fill="#494D83" transform="translate(284,62)"/>
<path d="M0 0 C7.18487395 2.07563025 7.18487395 2.07563025 9 5 C9.1875 8.6875 9.1875 8.6875 9 12 C8.67 12 8.34 12 8 12 C7.79375 10.906875 7.5875 9.81375 7.375 8.6875 C6.34336062 4.7714341 6.34336062 4.7714341 2.875 3.0625 C1.92625 2.711875 0.9775 2.36125 0 2 C0 1.34 0 0.68 0 0 Z " fill="#4D5179" transform="translate(178,47)"/>
<path d="M0 0 C0.598125 0.20625 1.19625 0.4125 1.8125 0.625 C0.6059375 1.181875 0.6059375 1.181875 -0.625 1.75 C-3.49922896 3.4359337 -3.49922896 3.4359337 -4 6.8125 C-4.0928125 8.2046875 -4.0928125 8.2046875 -4.1875 9.625 C-4.8475 8.965 -5.5075 8.305 -6.1875 7.625 C-6 4.625 -6 4.625 -5.1875 1.625 C-2.1875 -0.375 -2.1875 -0.375 0 0 Z " fill="#2F366A" transform="translate(365.1875,141.375)"/>
<path d="M0 0 C0.66 0.33 1.32 0.66 2 1 C1.3125 2.9375 1.3125 2.9375 0 5 C-2.87939419 5.93580311 -4.25509788 6.37245106 -7 5 C-7 4.34 -7 3.68 -7 3 C-6.21625 3.061875 -5.4325 3.12375 -4.625 3.1875 C-3.75875 3.125625 -2.8925 3.06375 -2 3 C-1.34 2.01 -0.68 1.02 0 0 Z " fill="#41446F" transform="translate(50,122)"/>
<path d="M0 0 C2.66666667 1.33333333 5.33333333 2.66666667 8 4 C8 3.34 8 2.68 8 2 C8.66 2 9.32 2 10 2 C9.67 2.99 9.34 3.98 9 5 C3.5 5.36666667 3.5 5.36666667 1.125 3.625 C0 2 0 2 0 0 Z " fill="#4D508A" transform="translate(251,121)"/>
<path d="M0 0 C0.33 0 0.66 0 1 0 C1 2.31 1 4.62 1 7 C-0.65 7.66 -2.3 8.32 -4 9 C-4.66 7.68 -5.32 6.36 -6 5 C-3.03 5.495 -3.03 5.495 0 6 C0 4.02 0 2.04 0 0 Z " fill="#4B4E80" transform="translate(152,119)"/>
<path d="M0 0 C0.66 1.32 1.32 2.64 2 4 C2.66 4 3.32 4 4 4 C5.38938077 5.96147874 6.7260411 7.96166576 8 10 C7.67 10.66 7.34 11.32 7 12 C5.82455195 10.56967163 4.65989738 9.13046758 3.5 7.6875 C2.8503125 6.88699219 2.200625 6.08648437 1.53125 5.26171875 C0 3 0 3 0 0 Z " fill="#474871" transform="translate(279,111)"/>
<path d="M0 0 C0.98120464 3.05263664 0.98120464 4.94736336 0 8 C-1.98 8.33 -3.96 8.66 -6 9 C-5.1875 7.0625 -5.1875 7.0625 -4 5 C-3.01 4.67 -2.02 4.34 -1 4 C-0.26676204 1.98491642 -0.26676204 1.98491642 0 0 Z " fill="#525284" transform="translate(148,78)"/>
<path d="M0 0 C2.3125 0.1875 2.3125 0.1875 5 1 C6.8125 3.5625 6.8125 3.5625 8 6 C5 6 5 6 2 4 C2 3.34 2 2.68 2 2 C1.34 1.34 0.68 0.68 0 0 Z " fill="#494B7C" transform="translate(125,69)"/>
<path d="M0 0 C-0.598125 0.268125 -1.19625 0.53625 -1.8125 0.8125 C-4.06604393 2.03585242 -5.42858036 2.97960332 -7 5 C-7.72197162 7.60611077 -7.72197162 7.60611077 -8 10 C-8.33 10 -8.66 10 -9 10 C-9.2253459 6.69492676 -9.34500438 4.60786486 -7.6875 1.6875 C-4.98880296 -1.01119704 -3.59840522 -1.19946841 0 0 Z " fill="#494B7A" transform="translate(93,58)"/>
<path d="M0 0 C3.63 0 7.26 0 11 0 C11 0.99 11 1.98 11 3 C10.67 2.67 10.34 2.34 10 2 C7.32941149 1.85884839 4.67567762 1.95752893 2 2 C1.67 2.66 1.34 3.32 1 4 C0.34 4 -0.32 4 -1 4 C-0.67 2.68 -0.34 1.36 0 0 Z " fill="#3F436C" transform="translate(509,141)"/>
<path d="M0 0 C0 4.24645065 -1.81750806 6.38524772 -4 10 C-4.66 10 -5.32 10 -6 10 C-4.6302836 6.00499382 -2.74277578 3.19990508 0 0 Z " fill="#525283" transform="translate(52,95)"/>
<path d="M0 0 C-3.19990508 2.74277578 -6.00499382 4.6302836 -10 6 C-8.45899296 2.91798591 -7.51635481 1.27706844 -4.4375 -0.375 C-2 -1 -2 -1 0 0 Z " fill="#555686" transform="translate(208,76)"/>
<path d="M0 0 C0.33 1.32 0.66 2.64 1 4 C-1 4 -1 4 -2.625 2.5 C-3.07875 2.005 -3.5325 1.51 -4 1 C-4.66 2.32 -5.32 3.64 -6 5 C-6.99 4.34 -7.98 3.68 -9 3 C-5.92807025 0.26939578 -4.09590633 -0.34132553 0 0 Z " fill="#4A4B7F" transform="translate(167,48)"/>
<path d="M0 0 C1.75 1.3125 1.75 1.3125 3 3 C3 3.66 3 4.32 3 5 C0.625 4.6875 0.625 4.6875 -2 4 C-2.66 3.01 -3.32 2.02 -4 1 C-2.1875 0.3125 -2.1875 0.3125 0 0 Z " fill="#44487B" transform="translate(425,148)"/>
<path d="M0 0 C0.33 0.66 0.66 1.32 1 2 C1.99 2.33 2.98 2.66 4 3 C4 3.99 4 4.98 4 6 C2.35 5.67 0.7 5.34 -1 5 C-0.67 3.35 -0.34 1.7 0 0 Z " fill="#32397F" transform="translate(565,143)"/>
<path d="M0 0 C1.65 0 3.3 0 5 0 C4.34 1.98 3.68 3.96 3 6 C2.67 5.01 2.34 4.02 2 3 C1.01 3.33 0.02 3.66 -1 4 C-0.67 2.68 -0.34 1.36 0 0 Z " fill="#434770" transform="translate(276,141)"/>
<path d="M0 0 C1.32 0 2.64 0 4 0 C4 1.98 4 3.96 4 6 C2.68 5.34 1.36 4.68 0 4 C0 2.68 0 1.36 0 0 Z " fill="#313669" transform="translate(301,142)"/>
<path d="M0 0 C1.5625 1.1875 1.5625 1.1875 3 3 C2.6875 5.6875 2.6875 5.6875 2 8 C-0.2477975 5.94766315 -1.0022242 4.99332739 -2 2 C-1.34 2 -0.68 2 0 2 C0 1.34 0 0.68 0 0 Z " fill="#6062A1" transform="translate(131,90)"/>
<path d="M0 0 C0.66 0.33 1.32 0.66 2 1 C0.56445975 1.50559908 -0.8735202 2.0042749 -2.3125 2.5 C-3.51326172 2.91765625 -3.51326172 2.91765625 -4.73828125 3.34375 C-7 4 -7 4 -10 4 C-10 3.01 -10 2.02 -10 1 C-8.906875 1.020625 -7.81375 1.04125 -6.6875 1.0625 C-3.05615809 1.18544452 -3.05615809 1.18544452 0 0 Z " fill="#4E5179" transform="translate(111,51)"/>
<path d="M0 0 C0.33 0 0.66 0 1 0 C1.25 2.8125 1.25 2.8125 1 6 C-1 7.875 -1 7.875 -3 9 C-4.32 8.34 -5.64 7.68 -7 7 C-4.69 6.34 -2.38 5.68 0 5 C0 3.35 0 1.7 0 0 Z " fill="#4B4D76" transform="translate(274,119)"/>
<path d="M0 0 C2.1387261 3.20808915 2.47730962 4.27698497 2 8 C1.01 8.66 0.02 9.32 -1 10 C-1 9.01 -1 8.02 -1 7 C-1.020625 5.96875 -1.04125 4.9375 -1.0625 3.875 C-1 1 -1 1 0 0 Z " fill="#4C5089" transform="translate(223,117)"/>
<path d="M0 0 C0.66 0 1.32 0 2 0 C1.44687265 4.02992782 0.8441938 8.02022924 0 12 C-0.33 12 -0.66 12 -1 12 C-1.02712066 10.56260487 -1.04645067 9.12506137 -1.0625 7.6875 C-1.07410156 6.88699219 -1.08570313 6.08648437 -1.09765625 5.26171875 C-1 3 -1 3 0 0 Z " fill="#4F5086" transform="translate(239,111)"/>
<path d="M0 0 C1.65 0 3.3 0 5 0 C5.66 1.32 6.32 2.64 7 4 C4.525 3.01 4.525 3.01 2 2 C2.33 2.99 2.66 3.98 3 5 C2.01 4.67 1.02 4.34 0 4 C0 2.68 0 1.36 0 0 Z " fill="#4F5296" transform="translate(263,75)"/>
<path d="M0 0 C1.125 1.75 1.125 1.75 2 4 C1.05773345 6.66975522 0.01384202 7.98615798 -2 10 C-2.66 9.01 -3.32 8.02 -4 7 C-3.01 6.34 -2.02 5.68 -1 5 C-0.27034634 2.43717258 -0.27034634 2.43717258 0 0 Z " fill="#4F5086" transform="translate(176,68)"/>
<path d="M0 0 C0.66 0.33 1.32 0.66 2 1 C2.59355614 3.64860427 2.74209269 6.29197322 3 9 C1.68 7.68 0.36 6.36 -1 5 C-0.67 4.34 -0.34 3.68 0 3 C-0.33 2.67 -0.66 2.34 -1 2 C-0.67 1.34 -0.34 0.68 0 0 Z " fill="#090909" transform="translate(381,38)"/>
<path d="M0 0 C1.96301592 3.50538557 2.95902388 7.13351728 4 11 C3.01 10.67 2.02 10.34 1 10 C0.22157062 6.59437148 -0.09978121 3.49234244 0 0 Z " fill="#4F5185" transform="translate(99,86)"/>
<path d="M0 0 C0.33 0 0.66 0 1 0 C1.1953125 6.0546875 1.1953125 6.0546875 1 8 C0.34 8.66 -0.32 9.32 -1 10 C-2.32 10 -3.64 10 -5 10 C-4.67 9.34 -4.34 8.68 -4 8 C-1.9375 7.375 -1.9375 7.375 0 7 C0 4.69 0 2.38 0 0 Z " fill="#565788" transform="translate(185,53)"/>
<path d="M0 0 C0.33 0 0.66 0 1 0 C1 2.64 1 5.28 1 8 C0.01 8 -0.98 8 -2 8 C-1.125 1.125 -1.125 1.125 0 0 Z " fill="#080808" transform="translate(738,46)"/>
<path d="M0 0 C2.31 0 4.62 0 7 0 C6.67 1.32 6.34 2.64 6 4 C4.02 3.34 2.04 2.68 0 2 C0 1.34 0 0.68 0 0 Z " fill="#0A0A0A" transform="translate(401,38)"/>
<path d="M0 0 C1.98 0 3.96 0 6 0 C6 1.32 6 2.64 6 4 C4.35 4 2.7 4 1 4 C1.33 3.01 1.66 2.02 2 1 C1.34 0.67 0.68 0.34 0 0 Z " fill="#414477" transform="translate(226,145)"/>
<path d="M0 0 C-1 2 -1 2 -2.8125 2.8125 C-5 3 -5 3 -7.25 1.5625 C-7.8275 1.046875 -8.405 0.53125 -9 0 C-5.52176885 -1.15941038 -3.54104422 -0.70820884 0 0 Z " fill="#515383" transform="translate(279,84)"/>
<path d="M0 0 C1.98 0.99 1.98 0.99 4 2 C3.67 3.32 3.34 4.64 3 6 C2.01 5.34 1.02 4.68 0 4 C0 2.68 0 1.36 0 0 Z " fill="#595BA0" transform="translate(270,71)"/>
<path d="M0 0 C0.33 0.99 0.66 1.98 1 3 C-0.8125 5.6875 -0.8125 5.6875 -3 8 C-3.66 8 -4.32 8 -5 8 C-3.62845496 5.04590299 -2.01136276 2.55991624 0 0 Z " fill="#545585" transform="translate(299,39)"/>
<path d="M0 0 C0.66 0 1.32 0 2 0 C2 0.66 2 1.32 2 2 C1.34 2 0.68 2 0 2 C0 1.34 0 0.68 0 0 Z " fill="#000000" transform="translate(340,139)"/>
<path d="M0 0 C2 1 2 1 2 1 Z " fill="#000000" transform="translate(394,147)"/>
<path d="M0 0 C2 1 2 1 2 1 Z " fill="#000000" transform="translate(430,123)"/>
<path d="" fill="#000000" transform="translate(0,0)"/>
<path d="" fill="#000000" transform="translate(0,0)"/>
<path d="" fill="#000000" transform="translate(0,0)"/>
<path d="" fill="#000000" transform="translate(0,0)"/>
<path d="" fill="#000000" transform="translate(0,0)"/>
<path d="" fill="#000000" transform="translate(0,0)"/>
<path d="" fill="#000000" transform="translate(0,0)"/>
<path d="" fill="#000000" transform="translate(0,0)"/>
<path d="" fill="#000000" transform="translate(0,0)"/>
</svg>
