<?xml version="1.0" encoding="UTF-8"?>
<svg version="1.1" xmlns="http://www.w3.org/2000/svg" width="1034" height="407">
<path d="M0 0 C341.22 0 682.44 0 1034 0 C1034 134.31 1034 268.62 1034 407 C692.78 407 351.56 407 0 407 C0 272.69 0 138.38 0 0 Z " fill="#FEFEFE" transform="translate(0,0)"/>
<path d="M0 0 C1.89492187 0.01353516 1.89492187 0.01353516 3.828125 0.02734375 C4.79234375 0.03894531 5.7565625 0.05054687 6.75 0.0625 C12.2237777 13.88644773 17.67253755 27.71990611 22.9375 41.625 C23.32349365 42.63433594 23.7094873 43.64367187 24.10717773 44.68359375 C24.45723877 45.61429688 24.8072998 46.545 25.16796875 47.50390625 C25.47500732 48.31545166 25.7820459 49.12699707 26.09838867 49.96313477 C26.75 52.0625 26.75 52.0625 26.75 55.0625 C25.80640625 55.14886719 24.8628125 55.23523438 23.890625 55.32421875 C9.69258201 56.87802064 -0.59921484 61.79246291 -12.25 70.0625 C-39.93048135 89.65879536 -39.93048135 89.65879536 -58.25 89.0625 C-57.77949219 90.24585937 -57.30898437 91.42921875 -56.82421875 92.6484375 C-50.9817795 107.44322871 -50.9817795 107.44322871 -48.97241211 114.69091797 C-48.26589324 117.01032461 -47.4237269 119.1982018 -46.49609375 121.4375 C-43.80758688 128.07760356 -41.4073211 134.81640251 -39 141.5625 C-38.53655137 142.84899185 -38.07301026 144.1354504 -37.609375 145.421875 C-37.17625 146.63359375 -36.743125 147.8453125 -36.296875 149.09375 C-35.90338867 150.19267578 -35.50990234 151.29160156 -35.10449219 152.42382812 C-34.25 155.0625 -34.25 155.0625 -34.25 157.0625 C-33.528125 157.124375 -32.80625 157.18625 -32.0625 157.25 C-28.33483095 158.32688217 -26.84296172 160.21024211 -24.25 163.0625 C-16.8971738 170.85528168 -16.8971738 170.85528168 -7 173.375 C-1.864108 173.30134314 0.88244516 172.66022543 4.75 169.0625 C5.70193086 167.71843853 6.63849453 166.36341025 7.5625 165 C10.84841381 160.38079655 14.28109843 159.07169976 19.75 158.0625 C24.69808713 157.26727171 27.31274883 158.13922764 31.4375 160.75 C36.36951623 164.32319543 40.11419334 168.06454224 41.75 174.0625 C42.23553804 179.33261082 41.61198966 183.68081093 40.20703125 188.78515625 C36.57378017 206.88930482 44.92823698 224.44262628 53.375 239.9375 C55.81636227 244.72888106 57.40581258 249.75401753 59 254.875 C59.25861816 255.68114746 59.51723633 256.48729492 59.78369141 257.31787109 C61.83082696 264.17488751 62.39985168 270.93277992 62.75 278.0625 C61.55008423 278.16739746 61.55008423 278.16739746 60.32592773 278.27441406 C56.61177701 278.6069368 52.89918683 278.95367096 49.1875 279.3125 C48.52172943 279.37675171 47.85595886 279.44100342 47.17001343 279.50720215 C39.62484192 280.25181174 32.34666633 281.14082308 25.0625 283.3125 C12.80091837 286.9669875 -0.43340213 282.73785396 -11.7890625 277.3984375 C-14.32369082 276.01650837 -16.80621799 274.59844074 -19.25 273.0625 C-16.53049675 266.05917748 -13.69180468 259.72549961 -9.2890625 253.609375 C-6.94374226 247.86069531 -9.68594609 241.23331041 -11.75390625 235.71875 C-11.9966478 235.06418823 -12.23938934 234.40962646 -12.48948669 233.73522949 C-13.25577203 231.67453803 -14.03387387 229.61855585 -14.8125 227.5625 C-15.33868366 226.15394183 -15.86408142 224.74508981 -16.38867188 223.3359375 C-17.66672731 219.90801917 -18.95540943 216.48421321 -20.25 213.0625 C-17.25 212.0625 -17.25 212.0625 -15.17602539 212.74780273 C-12.82881876 214.34999664 -12.35911596 215.43593329 -11.43359375 218.09765625 C-10.99950195 219.31291992 -10.99950195 219.31291992 -10.55664062 220.55273438 C-10.12641602 221.82600586 -10.12641602 221.82600586 -9.6875 223.125 C-9.39681641 223.94677734 -9.10613281 224.76855469 -8.80664062 225.61523438 C-6.88669837 231.07439905 -5.06652742 236.56818793 -3.25 242.0625 C7.43527562 232.27394319 7.43527562 232.27394319 13.28515625 219.65625 C13.18159972 217.61542855 13.03225336 215.5761947 12.828125 213.54296875 C12.75 211.0625 12.75 211.0625 14.875 208.3125 C16.298125 207.19875 16.298125 207.19875 17.75 206.0625 C25.5091403 197.69400313 29.62621616 186.2808798 30.0625 174.9375 C30.05390522 171.12218045 30.05390522 171.12218045 28.1875 168.5625 C24.86203064 166.51605731 22.58693587 166.64392518 18.75 167.0625 C15.4831038 169.2404308 15.30327062 169.59027807 14.3203125 173.1328125 C13.96259766 174.35484375 13.96259766 174.35484375 13.59765625 175.6015625 C13.12252653 177.30175642 12.64853475 179.00226882 12.17578125 180.703125 C10.5220813 186.34516013 8.49397908 191.45352012 4.75 196.0625 C1.9375 197.5625 1.9375 197.5625 -0.25 198.0625 C-1.42571451 194.38839215 -1.32366746 190.89320817 -1.25 187.0625 C-1.85585937 187.18109375 -2.46171875 187.2996875 -3.0859375 187.421875 C-10.24425747 188.523155 -14.79662443 187.11749247 -21.25 184.0625 C-22.24 183.7325 -23.23 183.4025 -24.25 183.0625 C-23.59 186.0325 -22.93 189.0025 -22.25 192.0625 C-23.9 192.3925 -25.55 192.7225 -27.25 193.0625 C-27.64832031 191.97710937 -28.04664063 190.89171875 -28.45703125 189.7734375 C-28.99200903 188.32805893 -29.52717531 186.88275012 -30.0625 185.4375 C-30.32353516 184.72464844 -30.58457031 184.01179687 -30.85351562 183.27734375 C-32.77963779 178.0934594 -34.89034643 173.17967485 -37.890625 168.5078125 C-39.3819122 165.82520965 -39.69903579 163.97369772 -40 160.9375 C-41.08025279 153.70068455 -43.60896917 147.27615583 -46.20703125 140.48046875 C-48.44474082 134.61743174 -50.47248127 128.68834313 -52.5 122.75 C-55.795903 113.14187007 -59.22923696 103.5900972 -62.75 94.0625 C-66.61026547 83.61381192 -70.34713259 73.12993519 -73.95678711 62.59179688 C-77.03428949 53.62335434 -80.2421972 44.70489935 -83.50830078 35.8034668 C-83.86778809 34.81644775 -84.22727539 33.82942871 -84.59765625 32.8125 C-84.91742432 31.94109375 -85.23719238 31.0696875 -85.56665039 30.171875 C-86.25 28.0625 -86.25 28.0625 -86.25 26.0625 C-84.6 25.7325 -82.95 25.4025 -81.25 25.0625 C-80.26 28.0325 -79.27 31.0025 -78.25 34.0625 C-61.00354755 31.02712437 -49.04374023 24.82091302 -34.890625 14.65625 C-24.14287406 7.00175421 -13.53548789 -0.12532859 0 0 Z " fill="#E9E9FA" transform="translate(214.25,28.9375)"/>
<path d="M0 0 C2.1377204 3.20658059 2.49826755 5.00529022 3.0703125 8.76171875 C3.24433594 9.87998047 3.41835937 10.99824219 3.59765625 12.15039062 C3.77167969 13.31763672 3.94570312 14.48488281 4.125 15.6875 C4.30675781 16.86634766 4.48851562 18.04519531 4.67578125 19.25976562 C5.12385202 22.1722256 5.56497236 25.0855681 6 28 C4.78050659 28.00773437 4.78050659 28.00773437 3.53637695 28.015625 C-4.59652691 28.14656987 -10.88119807 30.14562302 -18.20263672 33.56079102 C-25.21335545 36.6432411 -28.33123399 36 -37 36 C-35.02 47.88 -33.04 59.76 -31 72 C-27.844375 72.9075 -24.68875 73.815 -21.4375 74.75 C-20.40012695 75.0500293 -19.36275391 75.35005859 -18.29394531 75.65917969 C-14.06091077 76.8759629 -9.83461428 78.0685465 -5.546875 79.078125 C1.00370587 80.64283865 6.17639218 81.99061722 11.19140625 86.6328125 C17.04251944 91.05590022 23.92765678 90.1411855 30.8359375 89.921875 C39.59368348 89.75345681 47.09311004 91.32290825 54 97 C59.50602091 103.02803644 62.83921404 109.79399279 65.0625 117.625 C65.38347656 118.73101562 65.70445312 119.83703125 66.03515625 120.9765625 C68.60977375 131.19031499 69.39896257 141.27667144 69.42553711 151.77246094 C69.43748844 153.99784833 69.48690173 156.22050147 69.53710938 158.4453125 C69.64401513 167.89843246 68.87829266 177.34623014 62.41503906 184.83691406 C58.82787664 188 58.82787664 188 56 188 C53.2354802 204.83435225 54.22374991 219.98497882 64.04296875 234.4140625 C69.83706112 242.07012866 76.61778563 247.4026549 84.68359375 252.46313477 C94.1238788 258.42887046 94.1238788 258.42887046 95.77734375 263.28125 C96.1673842 268.68473726 96.26680383 272.31579604 92.62109375 276.6328125 C89.61238713 279.63453836 87.05389495 281.43319624 82.75 281.75 C68.03304969 280.60645319 52.27965048 264.59041973 43 254 C35.15685461 243.61803298 29.88936994 231.64732984 27 219 C17.17347428 231.58240687 15.52267693 248.23577734 14.94677734 263.66235352 C14.58226049 270.3530549 13.59001751 274.0224701 9 279 C5.00330225 281.7793128 0.69651773 281.5218353 -4 281 C-7.40154291 279.80316083 -9.31938735 278.80539164 -11.640625 276.05859375 C-13.67091106 271.49045011 -13.44469868 267.19417433 -13.375 262.25 C-13.36557373 261.22519531 -13.35614746 260.20039063 -13.34643555 259.14453125 C-12.84471867 233.52698765 -4.0276308 204.84011056 14 186 C15.22543333 184.8727349 16.46310096 183.75866437 17.7109375 182.65625 C25.26064325 176.51810498 25.26064325 176.51810498 28.796875 167.91015625 C28.86181759 165.82784295 28.81343474 163.77507427 28.73583984 161.69360352 C28.63147501 156.5476627 29.65013895 154.32473172 33.1875 150.625 C34.00089844 149.85027344 34.81429687 149.07554687 35.65234375 148.27734375 C43.9067584 140.27014951 49.46322112 126.68832793 50.16796875 115.28125 C50.17441406 114.3634375 50.18085938 113.445625 50.1875 112.5 C50.20167969 111.5821875 50.21585937 110.664375 50.23046875 109.71875 C49.98088401 106.77449616 49.28979948 104.64894301 48 102 C45.02284492 99.59537475 41.70832291 99.64152729 37.96484375 99.74609375 C35.04372208 100.12357468 33.25685476 101.14141372 31 103 C29.05885046 106.12511309 28.70401412 108.73334803 28.5 112.375 C28.19314691 116.5426229 27.5835955 120.09379776 26 124 C25.34 124 24.68 124 24 124 C22.2120463 117.1834265 21.76331431 111.03482474 22 104 C20.69192383 103.87616943 19.38384766 103.75233887 18.03613281 103.62475586 C13.38332346 103.10542347 8.95228451 102.1621102 4.421875 101.00390625 C3.26017792 100.71349709 3.26017792 100.71349709 2.07501221 100.41722107 C0.45424693 100.01070055 -1.16580685 99.60133341 -2.78515625 99.18920898 C-5.25605096 98.56096149 -7.7293342 97.94290575 -10.203125 97.32617188 C-11.78660846 96.92767941 -13.36994711 96.52861098 -14.953125 96.12890625 C-16.05324921 95.85379967 -16.05324921 95.85379967 -17.17559814 95.57313538 C-20.90728254 94.61874157 -24.46492115 93.53460452 -28 92 C-27.67 94.64 -27.34 97.28 -27 100 C-28.32 100 -29.64 100 -31 100 C-32.4783226 97.04335481 -32.06032783 94.25770263 -32 91 C-33.1446875 90.62875 -33.1446875 90.62875 -34.3125 90.25 C-37.34813868 88.83807503 -38.44504874 87.94622344 -40 85 C-40.375 82 -40.375 82 -40 79 C-39.505 78.38125 -39.01 77.7625 -38.5 77.125 C-34.38856736 71.30047043 -37.86746411 60.69585438 -38.96875 54.1796875 C-39.1685144 52.96225861 -39.36827881 51.74482971 -39.57409668 50.49050903 C-40.210047 46.61765108 -40.8542328 42.74623228 -41.5 38.875 C-42.14520666 34.99654296 -42.78848486 31.11781264 -43.42590332 27.23806763 C-43.82185131 24.82882508 -44.22230386 22.42031742 -44.62780762 20.01266479 C-44.80799438 18.9177774 -44.98818115 17.82289001 -45.17382812 16.69482422 C-45.33371216 15.73744354 -45.49359619 14.78006287 -45.6583252 13.79367065 C-46.02002874 10.83623693 -46.05812792 7.97651347 -46 5 C-44.68 5 -43.36 5 -42 5 C-42 5.99 -42 6.98 -42 8 C-32.7173159 8.52543495 -24.94846449 5.83704059 -16.4375 2.3125 C-11.07797811 0.19555281 -5.75669655 -1.40122431 0 0 Z " fill="#E9E9FA" transform="translate(84,79)"/>
<path d="M0 0 C3.8125 0.125 3.8125 0.125 7 1 C6.57847656 1.44730469 6.15695312 1.89460937 5.72265625 2.35546875 C1.30343964 6.98087537 1.30343964 6.98087537 0 13 C1.37492804 16.1668838 1.37492804 16.1668838 3 19 C3 19.66 3 20.32 3 21 C3.66 21 4.32 21 5 21 C5.2578125 20.29230469 5.515625 19.58460938 5.78125 18.85546875 C7.09475229 15.77800025 8.68929789 13.124459 10.5 10.3125 C11.41265625 8.88357422 11.41265625 8.88357422 12.34375 7.42578125 C15.2287527 3.20034098 15.2287527 3.20034098 18.30078125 2.40234375 C26.4944723 1.18099762 32.70882287 1.24216261 39.71875 6.078125 C51.82266549 16.27525928 55.25633281 34.90877174 57 50 C57.28224815 54.85833637 57.32521719 59.69690133 57.3125 64.5625 C57.32861328 65.79935547 57.34472656 67.03621094 57.36132812 68.31054688 C57.36697928 78.99687976 56.33039894 88.79693452 49 97 C48.0925 97.350625 47.185 97.70125 46.25 98.0625 C45.13625 98.5265625 45.13625 98.5265625 44 99 C40.7923377 111.5650466 41.41522087 126.62226283 47.30078125 138.16015625 C49.63596481 142.06286532 51.95276555 145.61735566 55 149 C55.93392578 150.07121094 55.93392578 150.07121094 56.88671875 151.1640625 C61.72603058 156.37012439 66.93558208 160.17291499 73.0390625 163.73022461 C77.4013802 166.33638868 80.13722224 168.86487657 83 173 C84.01670935 177.4481034 83.52910807 181.64783493 81.875 185.875 C78.3731098 189.8438089 75.09190822 192.21916598 69.75 192.625 C63.83432016 192.31884629 59.7130277 189.35270775 55 186 C53.99195313 185.2884375 52.98390625 184.576875 51.9453125 183.84375 C46.14319635 179.61876766 40.90411207 175.22785541 36 170 C35.20335937 169.23816406 34.40671875 168.47632813 33.5859375 167.69140625 C24.65563069 158.39687242 19.98527265 147.02115029 16 135 C15.61714844 133.8553125 15.23429688 132.710625 14.83984375 131.53125 C14.56269531 130.6959375 14.28554688 129.860625 14 129 C6.49681243 144.2734789 3.42030814 158.49125086 2.625 175.5 C2.17962425 182.29581962 1.02238973 186.24429172 -4.125 190.9375 C-8.45581893 192.53802004 -12.44248821 192.65002973 -17 192 C-22.06016382 189.60792256 -23.89783107 187.09580204 -26 182 C-29.22943577 154.0115567 -18.02452702 122.10763304 -1.04394531 100.25170898 C3.07307252 95.15963968 6.89240011 90.93136806 12.3125 87.1875 C14.61626848 85.29647249 15.80996346 83.97667702 16.38525391 81.02001953 C17.0687959 73.03970914 16.18541514 65.19852443 15 57.3125 C14.66642726 53.98140559 14.60962412 52.59075498 16.46875 49.77734375 C18.54713194 47.70295869 20.73385705 45.86554229 23 44 C25.44209463 41.42366761 27.71233673 38.71339433 30 36 C30.65742187 35.26652344 31.31484375 34.53304687 31.9921875 33.77734375 C36.22108275 28.88918056 36.22108275 28.88918056 37.5625 22.75 C37.06611756 19.44078374 36.66611442 16.89377767 35 14 C30.86434493 12.62144831 27.31082428 12.15886356 23 13 C16.97729199 16.6380262 12.48862229 22.67605114 8 28 C6.69022944 29.50238388 5.37780249 31.00245681 4.0625 32.5 C3.47597656 33.1703125 2.88945313 33.840625 2.28515625 34.53125 C1.86105469 35.0159375 1.43695312 35.500625 1 36 C-2.55591802 34.69091868 -5.55490999 33.12739559 -8.6875 31 C-9.45449219 30.484375 -10.22148438 29.96875 -11.01171875 29.4375 C-13 28 -13 28 -15 26 C-16.64991582 25.29289322 -18.31562256 24.62056011 -20 24 C-19.68804688 23.43410156 -19.37609375 22.86820313 -19.0546875 22.28515625 C-17.97800554 19.95234534 -17.54367277 17.96235315 -17.125 15.4375 C-16.22832722 11.26215348 -16.22832722 11.26215348 -14.3125 9.0625 C-12 8 -12 8 -8.5625 7.1875 C-4.90425573 5.96808524 -4.53116084 5.72181949 -2.5 2.8125 C-1.675 1.884375 -0.85 0.95625 0 0 Z " fill="#E9E9FA" transform="translate(818,168)"/>
<path d="M0 0 C12.42317732 7.11492314 15.26986555 17.79778991 18.89038086 30.91040039 C21.55793721 40.80418297 22.37673957 49.76735075 22.41796875 59.9921875 C22.43859375 61.24773437 22.45921875 62.50328125 22.48046875 63.796875 C22.51852592 72.96865389 22.21402672 82.52852483 17.0078125 90.41796875 C14.39699124 95.31256573 14.60836255 99.59454212 14.73046875 105.0546875 C14.74295654 106.07828369 14.75544434 107.10187988 14.76831055 108.15649414 C15.01080287 118.56380134 17.50136074 127.24219944 21.16796875 136.8671875 C21.86212891 138.70796875 21.86212891 138.70796875 22.5703125 140.5859375 C26.54420633 150.57504617 31.97321039 158.60623893 38.66455078 166.9765625 C40.28874656 169.01907177 41.89121194 171.0756141 43.4765625 173.1484375 C44.21410767 174.1084668 44.21410767 174.1084668 44.96655273 175.08789062 C47.53099769 178.88583308 47.54533686 182.41424376 47.16796875 186.8671875 C45.11415672 190.68140984 43.06250238 193.86729185 39.16796875 195.8671875 C34.76947739 196.95209263 31.50502468 197.37872605 27.20703125 195.734375 C23.78669079 193.63293189 21.41560458 191.19880625 18.91796875 188.1171875 C18.44762207 187.54500488 17.97727539 186.97282227 17.49267578 186.38330078 C4.05058098 169.73491737 -5.1289403 151.48076925 -10.83203125 130.8671875 C-11.20710667 129.54912948 -11.58337286 128.23140963 -11.9609375 126.9140625 C-12.24839844 125.90859375 -12.53585937 124.903125 -12.83203125 123.8671875 C-21.10029352 139.08664371 -26.78610631 156.16075636 -29.8203125 173.20703125 C-29.98128418 174.09874023 -30.14225586 174.99044922 -30.30810547 175.90917969 C-30.6066702 177.62095079 -30.88447199 179.33652876 -31.13720703 181.05566406 C-32.16206851 187.02404689 -34.32711534 190.78218891 -38.83203125 194.8671875 C-42.79930475 196.85082425 -47.51885665 196.41469908 -51.83203125 195.8671875 C-55.78189038 193.9271781 -58.18178587 190.90469462 -59.83203125 186.8671875 C-60.7137161 179.79096064 -59.26453472 173.02158453 -57.58203125 166.1796875 C-57.35459229 165.22288086 -57.12715332 164.26607422 -56.89282227 163.28027344 C-56.21958946 160.47234831 -55.52884691 157.66934154 -54.83203125 154.8671875 C-54.64560059 154.10519043 -54.45916992 153.34319336 -54.26708984 152.55810547 C-52.54964511 145.57966857 -50.63743483 138.84363037 -47.8125 132.23046875 C-46.79815983 129.78554522 -45.97690194 127.31686509 -45.14453125 124.8046875 C-40.51984526 112.05067068 -33.2891425 97.72608422 -23.24780273 88.39501953 C-19.67104626 84.88017761 -18.42484534 82.36277968 -18.140625 77.3125 C-18.14878531 75.20530683 -18.19331722 73.09801776 -18.26953125 70.9921875 C-18.28814209 69.89044189 -18.30675293 68.78869629 -18.32592773 67.65356445 C-18.54658691 59.61560046 -19.52941885 51.93514899 -21.2734375 44.09765625 C-21.81091995 40.98927872 -22.00019777 39.70866407 -20.83203125 36.8671875 C-18.94604492 35.49853516 -18.94604492 35.49853516 -16.5 34.28125 C-15.17838867 33.59675781 -15.17838867 33.59675781 -13.83007812 32.8984375 C-11.96887825 31.96719086 -10.10690829 31.03748162 -8.24414062 30.109375 C-2.9417026 27.35967662 0.6076732 25.37996259 3.16796875 19.8671875 C3.52117305 16.06191104 2.36968689 12.47234193 1.16796875 8.8671875 C-2.87489528 6.60793995 -6.27907768 6.21676556 -10.83203125 6.8671875 C-14.08634439 8.54023823 -17.16549453 10.38044408 -20.2578125 12.3359375 C-22.83203125 13.8671875 -22.83203125 13.8671875 -24.83203125 13.8671875 C-24.43805637 8.48286415 -22.5208627 4.72504896 -18.83203125 0.8671875 C-13.33516285 -2.67917921 -5.90926952 -2.36370781 0 0 Z " fill="#E9E9FA" transform="translate(733.83203125,163.1328125)"/>
<path d="M0 0 C8.62668717 4.70055397 12.79264292 12.19033567 15.59912109 21.41162109 C19.2578464 34.54290264 21.05176032 46.79700045 21.05859375 60.45703125 C21.07083984 61.74158203 21.08308594 63.02613281 21.09570312 64.34960938 C21.10836906 72.54446897 20.82359052 79.78927924 16.99609375 87.20703125 C16.53589844 88.12548828 16.53589844 88.12548828 16.06640625 89.0625 C14.87109375 91.01953125 14.87109375 91.01953125 12.93359375 93.3828125 C10.76949339 96.14941807 9.28275907 98.86574693 7.74609375 102.01953125 C7.24851562 103.03015625 6.7509375 104.04078125 6.23828125 105.08203125 C-0.76305299 120.12489795 -0.83654 135.83379782 4.71484375 151.3828125 C7.98205699 159.31143774 12.76077251 166.5767846 18.30859375 173.08203125 C21.20387534 176.86219782 21.64559491 179.98174777 21.3203125 184.6875 C20.62201822 188.31255812 19.40862589 190.35186925 16.87109375 193.01953125 C12.4920434 195.452337 8.87190524 196.76433296 3.87109375 196.01953125 C-9.91127751 189.12834562 -18.18642187 171.81730014 -23.12890625 158.01953125 C-24.20875521 154.70596247 -25.21383433 151.38223457 -26.12890625 148.01953125 C-26.44677906 157.74408448 -26.23511942 166.49782755 -23.78515625 175.96875 C-22.58722168 181.53771963 -22.69925434 185.46975913 -25.796875 190.40625 C-28.79398089 194.0361759 -32.44715131 195.69749307 -37.06640625 196.58203125 C-42.23254965 195.63314777 -46.46432662 193.12664546 -49.73046875 188.9921875 C-58.18997014 171.00983958 -57.50831828 144.77206105 -52.12890625 126.01953125 C-51.93554688 125.18164062 -51.7421875 124.34375 -51.54296875 123.48046875 C-47.77827429 108.47058303 -37.79961202 94.00170938 -26.12890625 84.01953125 C-25.07832031 83.46523437 -24.02773438 82.9109375 -22.9453125 82.33984375 C-19.73694802 80.21514993 -19.73694802 80.21514993 -19.5078125 76.25390625 C-19.53974683 74.75820323 -19.60276968 73.26294709 -19.69140625 71.76953125 C-19.70574707 70.97248779 -19.72008789 70.17544434 -19.73486328 69.35424805 C-19.83364847 65.4296759 -20.13707638 61.66279671 -20.8671875 57.8046875 C-22.50337446 48.30902154 -22.50337446 48.30902154 -19.91503906 43.99755859 C-16.6191794 39.79427532 -12.79414782 36.17748423 -8.84179688 32.59960938 C-6.69436015 30.61867858 -4.77520995 28.48998943 -2.87890625 26.26953125 C-2.37875 25.6971875 -1.87859375 25.12484375 -1.36328125 24.53515625 C1.12099201 21.56348865 1.12099201 21.56348865 1.98828125 17.8984375 C1.6047558 14.23020215 1.28146711 11.65087488 -0.75390625 8.51953125 C-3.9871496 6.47748282 -6.30939582 6.08538488 -10.12890625 6.01953125 C-14.88363442 7.92396176 -17.65232478 10.32401002 -20.94140625 14.20703125 C-22.32240837 15.82398348 -23.71415115 17.43202711 -25.12890625 19.01953125 C-25.45890625 19.01953125 -25.78890625 19.01953125 -26.12890625 19.01953125 C-26.72525111 12.55250251 -26.42381852 7.99534812 -22.53515625 2.6484375 C-16.78375963 -4.01359692 -7.59406684 -3.34627895 0 0 Z " fill="#E9E9FA" transform="translate(530.12890625,163.98046875)"/>
<path d="M0 0 C0.58136719 0.23589844 1.16273438 0.47179688 1.76171875 0.71484375 C1.76171875 5.10452831 -0.36633226 6.48390114 -3.23828125 9.71484375 C-2.32466547 11.11267589 -1.40722379 12.50800768 -0.48828125 13.90234375 C0.0221875 14.67964844 0.53265625 15.45695312 1.05859375 16.2578125 C4.43409554 21.12751577 7.47901374 24.50993708 12.51171875 27.71484375 C13.09735596 28.08802734 13.68299316 28.46121094 14.28637695 28.84570312 C20.33808696 32.61370604 26.65178376 35.88156126 32.94921875 39.21484375 C47.21246675 46.8094035 58.44188271 54.39291567 64.76171875 69.71484375 C63.90449219 70.63265625 63.04726563 71.55046875 62.1640625 72.49609375 C54.25443723 80.97809087 54.25443723 80.97809087 46.56640625 89.66015625 C43.70895112 92.91344932 40.76602026 96.08880685 37.82568359 99.26708984 C34.49468214 102.8776967 31.29784513 106.5754083 28.19921875 110.38671875 C26.76171875 111.71484375 26.76171875 111.71484375 23.76171875 111.71484375 C22.25390625 109.58984375 22.25390625 109.58984375 20.63671875 106.71484375 C13.12751383 94.59173559 1.98961143 89.21555419 -10.23828125 82.71484375 C-37.24465011 68.30905602 -37.24465011 68.30905602 -43.23828125 55.71484375 C-43.23828125 54.72484375 -43.23828125 53.73484375 -43.23828125 52.71484375 C-47.92507888 56.61036386 -52.10985071 60.60894582 -56.0390625 65.26171875 C-59.66411352 69.30529254 -63.56275757 73.07862836 -67.43994141 76.87915039 C-68.32431885 77.75108032 -68.32431885 77.75108032 -69.2265625 78.640625 C-70.02380737 79.42046753 -70.02380737 79.42046753 -70.8371582 80.21606445 C-72.45897748 81.86930261 -72.45897748 81.86930261 -74.23828125 84.71484375 C-74.89828125 84.71484375 -75.55828125 84.71484375 -76.23828125 84.71484375 C-76.89828125 86.03484375 -77.55828125 87.35484375 -78.23828125 88.71484375 C-80.23828125 85.71484375 -80.23828125 85.71484375 -81.23828125 82.71484375 C-79.95244141 81.44640625 -79.95244141 81.44640625 -78.640625 80.15234375 C-73.22434622 74.78677326 -67.863886 69.45111066 -62.93359375 63.62890625 C-60.13090041 60.46457506 -57.08718019 57.54411153 -54.05859375 54.59765625 C-52.17444227 52.83731036 -52.17444227 52.83731036 -51.23828125 50.71484375 C-50.57828125 50.71484375 -49.91828125 50.71484375 -49.23828125 50.71484375 C-48.8362146 49.82273193 -48.8362146 49.82273193 -48.42602539 48.91259766 C-47.22848426 46.69671579 -46.03509142 45.29404847 -44.234375 43.55078125 C-43.65880859 42.98617187 -43.08324219 42.4215625 -42.49023438 41.83984375 C-41.89146484 41.26234375 -41.29269531 40.68484375 -40.67578125 40.08984375 C-39.48478741 38.93324224 -38.2958812 37.77448597 -37.109375 36.61328125 C-36.5827124 36.10458496 -36.0560498 35.59588867 -35.51342773 35.07177734 C-34.12185955 33.7208427 -34.12185955 33.7208427 -33.23828125 31.71484375 C-32.57828125 31.71484375 -31.91828125 31.71484375 -31.23828125 31.71484375 C-31.02558594 31.1734375 -30.81289063 30.63203125 -30.59375 30.07421875 C-28.74809438 26.86160781 -26.19865561 24.50932338 -23.55078125 21.96484375 C-20.07180246 18.56028162 -16.65473557 15.16761168 -13.48828125 11.46484375 C-11.05948947 8.6441198 -8.602417 5.86316411 -6.05078125 3.15234375 C-5.41785156 2.47042969 -4.78492188 1.78851563 -4.1328125 1.0859375 C-2.23828125 -0.28515625 -2.23828125 -0.28515625 0 0 Z " fill="#E9E9FA" transform="translate(935.23828125,47.28515625)"/>
<path d="M0 0 C0.72244598 2.66401955 1.38793688 5.31093581 2 8 C2.20625 8.886875 2.4125 9.77375 2.625 10.6875 C1.82246751 13.65687022 0.91853066 13.85849628 -1.6875 15.375 C-2.41582031 15.78492188 -3.14414062 16.19484375 -3.89453125 16.6171875 C-7.84308782 19.21048811 -10.44002643 22.97717412 -11.6953125 27.51171875 C-13.5710437 31.08908634 -16.38591656 31.97506372 -20 33.3125 C-20.66974854 33.5717627 -21.33949707 33.83102539 -22.02954102 34.09814453 C-27.40401873 36.05519395 -32.28405357 36.72626143 -38 36 C-37.855625 36.88042969 -37.71125 37.76085937 -37.5625 38.66796875 C-37.376875 39.82941406 -37.19125 40.99085938 -37 42.1875 C-36.7215625 43.91033203 -36.7215625 43.91033203 -36.4375 45.66796875 C-36.06510523 48.50415393 -35.91403979 51.14719564 -36 54 C-35.45214844 54.19851562 -34.90429688 54.39703125 -34.33984375 54.6015625 C-31.03943972 56.57409112 -28.93397289 59.41310539 -26.5625 62.375 C-21.84425715 68.23844743 -17.63660411 73.20315197 -10 75 C2.34329257 75.78370112 8.95650787 70.41456908 17.875 62.625 C18.40867187 62.14289063 18.94234375 61.66078125 19.4921875 61.1640625 C24.01192161 57.67473409 30.63326427 58.41453792 36 59 C41.86043062 61.10374432 44.96257575 66.26160636 47.91015625 71.484375 C49.41220868 74.95147809 49.48454508 77.28515439 49 81 C48.01 81.495 48.01 81.495 47 82 C46.56429687 81.46890625 46.12859375 80.9378125 45.6796875 80.390625 C39.39917583 72.78268074 39.39917583 72.78268074 30.375 69.5625 C26.0061222 70.07916039 26.0061222 70.07916039 23 73 C22.41624975 77.52406447 22.2642735 79.78322156 24.625 83.6875 C27.0123226 86.09293662 27.0123226 86.09293662 29.9375 88.3125 C35.54095352 92.80944878 39.22116523 99.79546345 40.51953125 106.8046875 C41.2625515 114.59153976 40.4871662 121.06053636 38.69140625 128.58984375 C37.85558089 132.71230443 37.36769277 136.32890233 38.875 140.3125 C39.90438989 142.1589195 39.90438989 142.1589195 42 143 C47.17438231 143.51020737 47.17438231 143.51020737 51.875 141.875 C53.38007406 139.36654324 54.19067037 136.80152563 55 134 C55.66 134 56.32 134 57 134 C57.25168945 134.69971924 57.50337891 135.39943848 57.76269531 136.12036133 C58.92493559 139.35114427 60.08746634 142.58182262 61.25 145.8125 C61.64574219 146.91271484 62.04148437 148.01292969 62.44921875 149.14648438 C62.84238281 150.23896484 63.23554688 151.33144531 63.640625 152.45703125 C64.03056641 153.54838379 64.42050781 154.63973633 64.82226562 155.76416016 C65.59883787 157.89780207 66.39918825 160.02295968 67.22460938 162.13818359 C67.59908203 163.1070752 67.97355469 164.0759668 68.359375 165.07421875 C68.69936523 165.92975342 69.03935547 166.78528809 69.38964844 167.66674805 C70.05708224 170.218214 69.87424142 171.54482688 69 174 C46.43410741 179.48635305 21.73897228 179.39006822 0 171 C1.056228 168.83010562 2.11991558 166.6643108 3.1875 164.5 C3.529021 163.8002002 3.87054199 163.10040039 4.22241211 162.37939453 C6.47227153 157.8407592 8.88171099 153.44656105 11.4609375 149.0859375 C20.08821639 135.33940487 20.08821639 135.33940487 20.8125 119.71875 C20.4103125 118.37296875 20.4103125 118.37296875 20 117 C19.814375 116.2678125 19.62875 115.535625 19.4375 114.78125 C19.00191785 113.17504082 18.50599079 111.58543782 18 110 C17.875 107.0625 17.875 107.0625 18 105 C17.113125 104.95875 16.22625 104.9175 15.3125 104.875 C10.72231303 103.66249778 9.69675953 101.85251361 7 98 C5.8422494 94.52674819 5.93133348 91.63932552 6 88 C5.30390625 88.15984375 4.6078125 88.3196875 3.890625 88.484375 C-7.27785679 90.47659067 -16.65686034 89.00003589 -26.0625 82.8125 C-27.38227688 81.88527214 -28.69756058 80.95142738 -30 80 C-29.50873071 86.36559573 -29.00344253 92.69264693 -28 99 C-29.65 98.67 -31.3 98.34 -33 98 C-33.10546143 97.30438965 -33.21092285 96.6087793 -33.31958008 95.89208984 C-33.80681923 92.71802945 -34.30950686 89.54660038 -34.8125 86.375 C-34.97814453 85.28058594 -35.14378906 84.18617188 -35.31445312 83.05859375 C-36.34351631 76.65121919 -37.29947596 71.10060167 -41.6875 66.0625 C-43.63135992 63.00786299 -43.32699884 60.53158747 -43 57 C-42.34 56.34 -41.68 55.68 -41 55 C-40.53681892 44.69321408 -43.50431716 33.49412469 -45.0625 23.3125 C-45.34730244 21.43559195 -45.6318101 19.55863915 -45.91601562 17.68164062 C-46.60727851 13.1205705 -47.30253164 8.56012515 -48 4 C-45.525 4.495 -45.525 4.495 -43 5 C-43 5.99 -43 6.98 -43 8 C-34.58237141 7.16400264 -27.35665774 5.29949462 -19.55859375 2.12060547 C-12.51409635 -0.72963526 -7.37080396 -1.14374544 0 0 Z " fill="#E9E9FA" transform="translate(310,116)"/>
<path d="M0 0 C10.87152801 6.42999776 16.15115206 19.59252285 19.52783203 31.25048828 C20.33482331 34.50356416 21.0751914 37.76349863 21.78515625 41.0390625 C22.03201172 42.12445313 22.27886719 43.20984375 22.53320312 44.328125 C26.91977405 63.93317264 26.91977405 63.93317264 26.72265625 73.7890625 C26.70460938 74.98015625 26.6865625 76.17125 26.66796875 77.3984375 C26.64476562 78.26984375 26.6215625 79.14125 26.59765625 80.0390625 C24.99509517 80.54418494 23.39053833 81.04297877 21.78515625 81.5390625 C20.89183594 81.8175 19.99851562 82.0959375 19.078125 82.3828125 C16.59765625 83.0390625 16.59765625 83.0390625 13.59765625 83.0390625 C15.35113485 95.48448378 17.75605267 107.12705959 22.7578125 118.73046875 C24.00005634 122.14519483 23.49786671 124.56682217 22.59765625 128.0390625 C20.33314048 130.65196531 18.50002847 131.06746331 15.16015625 132.0390625 C11.59765625 132.0390625 11.59765625 132.0390625 8.97265625 130.3515625 C-0.17181269 119.32440878 -4.05574669 99.06048909 -4.40234375 85.0390625 C-7.49280752 85.68930267 -7.49280752 85.68930267 -8.4296875 87.9375 C-8.73003906 88.75476563 -9.03039062 89.57203125 -9.33984375 90.4140625 C-9.84644531 91.77917969 -9.84644531 91.77917969 -10.36328125 93.171875 C-10.70617187 94.11804688 -11.0490625 95.06421875 -11.40234375 96.0390625 C-11.74523437 96.90273438 -12.088125 97.76640625 -12.44140625 98.65625 C-15.28199123 105.96370907 -16.84800253 113.37097914 -18.40234375 121.0390625 C-19.3839197 125.67210098 -20.29267269 129.26225773 -24.40234375 132.0390625 C-28.66377807 132.65890749 -30.64622697 132.53218214 -34.27734375 130.1640625 C-37.39283805 127.0485682 -37.39283805 127.0485682 -37.421875 123.96484375 C-36.57466925 113.27086926 -33.57116027 103.08464339 -30.0625 92.98046875 C-29.05950302 90.03082676 -28.23275797 87.04132929 -27.40234375 84.0390625 C-28.72234375 83.7090625 -30.04234375 83.3790625 -31.40234375 83.0390625 C-31.42216309 82.39880127 -31.44198242 81.75854004 -31.46240234 81.09887695 C-31.55797976 78.1827097 -31.66752589 75.26722678 -31.77734375 72.3515625 C-31.80828125 71.34416016 -31.83921875 70.33675781 -31.87109375 69.29882812 C-31.90976562 68.32236328 -31.9484375 67.34589844 -31.98828125 66.33984375 C-32.01970215 65.44434814 -32.05112305 64.54885254 -32.08349609 63.6262207 C-32.42895488 60.82313743 -33.24915843 58.60641719 -34.40234375 56.0390625 C-33.73589844 55.89210938 -33.06945312 55.74515625 -32.3828125 55.59375 C-19.84742494 52.54318016 -9.90637488 46.98072431 -2.65234375 36.1640625 C1.46805071 29.09275848 4.15306467 21.29013385 2.59765625 13.0390625 C-0.05247045 9.66617398 -1.70717018 9.16320064 -5.90234375 8.4140625 C-9.65735054 9.08459943 -11.10819536 9.9775054 -13.34765625 13.05859375 C-14.98560017 16.13428843 -15.82631197 19.35963305 -16.734375 22.7109375 C-18.39854821 28.51121371 -21.66502551 31.58476795 -26.40234375 35.0390625 C-27.39234375 35.0390625 -28.38234375 35.0390625 -29.40234375 35.0390625 C-29.13508532 22.91524809 -25.2172199 11.42951852 -17.40234375 2.0390625 C-12.63305313 -2.33278724 -5.83062793 -2.33225117 0 0 Z " fill="#E9E9FA" transform="translate(637.40234375,228.9609375)"/>
<path d="M0 0 C5.61858707 1.92214821 8.44949308 5.15956727 11.25 10.3125 C17.74698631 24.81533556 21.40752548 42.52927203 16 58 C15.23236328 59.55267578 15.23236328 59.55267578 14.44921875 61.13671875 C12.5032731 65.62080252 12.54468651 69.9234331 12.625 74.75 C12.63660156 75.63888916 12.64820313 76.52777832 12.66015625 77.44360352 C12.94508364 88.89831318 15.88073114 96.56574516 22.35546875 105.95703125 C24.18755743 109.34704807 24.44082313 111.20785882 24 115 C21.73529412 119.63235294 21.73529412 119.63235294 19 121 C15.0601786 121.37168126 12.81187781 121.55091708 9.484375 119.29296875 C-1.1425305 109.48480283 -5.38259508 91.93601219 -7 78 C-12.20781238 89.52366994 -15.08276549 101.76365082 -16.21484375 114.328125 C-17.27143541 117.92369064 -18.8616374 119.04308495 -22 121 C-25.04102581 121.8211336 -26.75444696 121.46365043 -30 121 C-32.5 119.25 -32.5 119.25 -34 116 C-36.62958131 99.37337651 -29.14168519 77.71252779 -20 64 C-20.13369541 59.05326984 -22.82353631 56.50225484 -26 53 C-24.68 52.34 -23.36 51.68 -22 51 C-21.21625 51.825 -20.4325 52.65 -19.625 53.5 C-17.36278736 56.22988506 -17.36278736 56.22988506 -15 56 C-12.91927402 52.87891103 -12.84344813 52.30963915 -12.8125 48.8125 C-12.36756959 43.78883114 -10.28280527 41.69249839 -6.8515625 38.18359375 C-2.03685289 32.50548684 1.132269 24.42304573 1.1875 17 C1.20167969 16.13375 1.21585937 15.2675 1.23046875 14.375 C1.16255938 11.73278463 1.16255938 11.73278463 -1 9 C-5.69979206 7.7312441 -5.69979206 7.7312441 -10.15625 9.17578125 C-12.45708982 11.45224777 -12.68570798 12.88931617 -13.125 16.0625 C-13.80789022 20.80789022 -13.80789022 20.80789022 -16 23 C-17.73007917 16.951872 -18.88390298 11.15249329 -17 5 C-11.73477234 -1.4802802 -7.81488067 -1.59276893 0 0 Z " fill="#E9E9FA" transform="translate(441,239)"/>
<path d="M0 0 C5.48928778 0.49011498 10.73247755 1.35562412 16.125 2.5 C26.62764555 4.64850288 37.31465757 4.74578773 48 5 C48.08636719 5.93199219 48.17273438 6.86398437 48.26171875 7.82421875 C50.0302924 23.87118521 55.08882765 35.3981143 66.8125 46.75 C70.56334333 50.40664407 72.62682218 53.76093311 73.5 59 C72.78465346 63.29207923 71.06910512 64.93089488 68 68 C63.98394338 69.33868554 60.00326563 69.78270727 55.98046875 68.2109375 C53.75848641 66.85232897 52.4141402 65.43689174 50.75 63.4375 C48.87783638 61.20930527 47.01208836 59.01282604 45.015625 56.89453125 C31.99817729 43.04457235 26.76066229 26.52637187 25 8 C24.30132812 8.71027344 23.60265625 9.42054688 22.8828125 10.15234375 C21.97273438 11.07144531 21.06265625 11.99054688 20.125 12.9375 C19.22007812 13.85402344 18.31515625 14.77054687 17.3828125 15.71484375 C15 18 15 18 13 19 C12.35292231 21.90726154 12.35292231 21.90726154 11.96484375 25.45703125 C11.88126114 26.11523361 11.79767853 26.77343597 11.71156311 27.45158386 C11.5351213 28.85415406 11.36309076 30.25728497 11.19506836 31.66088867 C10.9429858 33.76667405 10.67892094 35.87064508 10.41210938 37.97460938 C9.51709934 45.13659915 8.75545276 52.28479281 8.3215332 59.49243164 C7.80963332 63.48462884 6.46044873 66.81637885 4 70 C0.49164277 72.43635918 -2.9713031 72.29482729 -7.0625 71.57421875 C-10.76146943 70.4779516 -11.97040689 69.2980888 -14 66 C-14.98940572 56.4573205 -13.50274928 46.62103203 -12.40087891 37.1328125 C-12.12390335 34.74052808 -11.86001115 32.34705243 -11.59765625 29.953125 C-9.12211971 7.78672226 -9.12211971 7.78672226 -2 2 C-1.34 2 -0.68 2 0 2 C0 1.34 0 0.68 0 0 Z " fill="#E9E9FA" transform="translate(309,291)"/>
<path d="M0 0 C5.71073179 2.94378342 10.45890392 7.73505403 13.19140625 13.57421875 C13.77804274 15.5966788 14.06154715 17.465962 14.25 19.5625 C14.4046875 20.71878906 14.4046875 20.71878906 14.5625 21.8984375 C15.11727963 29.22615178 12.68414964 34.78631735 8.25 40.5625 C2.25374912 45.91744062 -4.4477716 49.0051006 -12.58203125 48.83203125 C-16.48800141 48.34642415 -20.09690155 46.9831494 -23.75 45.5625 C-23.75 44.9025 -23.75 44.2425 -23.75 43.5625 C-24.306875 43.35625 -24.86375 43.15 -25.4375 42.9375 C-31.01292112 39.62238474 -33.48130634 34.81959319 -35.24609375 28.7890625 C-37.01238973 20.98449886 -34.66433839 15.24391998 -31.125 8.4375 C-23.36805049 -0.95249151 -11.55140176 -4.42736653 0 0 Z " fill="#E9E9FA" transform="translate(840.75,119.4375)"/>
<path d="M0 0 C6.20822087 3.72755756 11.01209047 9.51663498 13.19140625 16.43359375 C14.61037438 23.19606351 13.94366409 29.40956778 10.625 35.5 C6.98909648 40.75543577 2.56543849 45.1865205 -3.625 47.25 C-13.42161092 48.14060099 -20.54022204 47.48436668 -28.4765625 41.28125 C-33.19527212 36.85381876 -35.9375076 31.65259184 -36.61328125 25.23828125 C-36.85212751 17.43177996 -35.04181577 11.74342459 -30.0625 5.6875 C-21.6320635 -1.1744832 -10.48780696 -4.67727344 0 0 Z " fill="#E9E9FA" transform="translate(522.375,107.5)"/>
<path d="M0 0 C8.01420575 4.90665658 12.09027144 9.95831433 15.0625 18.875 C15.97660884 27.10197954 13.66766008 33.03054432 9.0625 39.875 C3.80866442 45.19028395 -2.10728722 48.14187101 -9.625 48.3125 C-16.85020684 48.17030651 -22.33111131 46.01629417 -27.78515625 41.265625 C-32.42042846 36.30007541 -35.02630345 30.62866546 -35.25 23.8125 C-34.66872851 16.48847927 -32.50203808 10.61506295 -27.9375 4.875 C-24.875 2.5 -24.875 2.5 -21.9375 0.875 C-21.35742188 0.51792969 -20.77734375 0.16085938 -20.1796875 -0.20703125 C-14.46678714 -2.54593645 -5.76589327 -2.22473964 0 0 Z " fill="#E9E9FA" transform="translate(725.9375,107.125)"/>
<path d="M0 0 C6.91618831 3.89721722 11.39166916 9.28473052 13.6875 16.9375 C14.4792291 24.17302423 13.46420169 30.24366557 10.6875 36.9375 C10.0275 36.9375 9.3675 36.9375 8.6875 36.9375 C8.501875 37.494375 8.31625 38.05125 8.125 38.625 C5.80350323 42.35958176 2.07982645 45.10675807 -2.08984375 46.5546875 C-9.40464214 47.81452975 -17.86162041 48.52362357 -24.375 44.5 C-29.47253607 40.4528069 -33.25647261 35.10558216 -35.3125 28.9375 C-35.95273247 21.26520596 -36.23151961 14.20683872 -31.3125 7.9375 C-22.72976705 -1.27823278 -11.96888071 -5.4617031 0 0 Z " fill="#E9E9FA" transform="translate(119.3125,120.0625)"/>
<path d="M0 0 C2.5 1.5 2.5 1.5 4 4 C4.71813736 7.91711287 5.01764358 10.335767 2.91796875 13.76953125 C1.04000099 15.95177733 -0.96530732 17.96207764 -3 20 C-4.72477903 21.82682757 -6.43569047 23.66601899 -8.14526367 25.50708008 C-9.38221157 26.83618442 -10.62458649 28.16025853 -11.87231445 29.47924805 C-15.03824464 32.83218093 -17.99489947 36.21937776 -20.8125 39.875 C-23.77940217 43.21764307 -26.02900813 43.91287636 -30.41577148 44.25390625 C-35.62204145 43.74237854 -39.76254741 40.76866721 -44.125 38.0625 C-46.15525243 36.85379157 -48.18650444 35.64676054 -50.21875 34.44140625 C-51.20230469 33.8498877 -52.18585938 33.25836914 -53.19921875 32.64892578 C-58.0319828 29.80369492 -63.03186564 27.30203561 -68.0390625 24.78125 C-71.76088006 22.5422674 -75.33306982 20.2244814 -76.62890625 15.90234375 C-76.5184812 12.63506136 -76.18959029 10.31598381 -74.5 7.5 C-71.01594957 5.40956974 -67.92002645 5.42228526 -64 6 C-60.73476379 7.21164197 -57.77510041 8.84658299 -54.75 10.5625 C-53.92169678 11.01343018 -53.09339355 11.46436035 -52.23999023 11.92895508 C-46.49802869 15.07672756 -40.86984226 18.39807177 -35.34765625 21.91796875 C-33.10804557 23.17219522 -33.10804557 23.17219522 -30.875 22.8828125 C-28.58830885 21.80616208 -27.52787311 20.65207855 -25.9375 18.6875 C-22.78675958 14.92164757 -19.55932178 11.25121242 -16.25 7.625 C-15.77812256 7.10123779 -15.30624512 6.57747559 -14.82006836 6.0378418 C-10.25788564 1.03565574 -6.88129325 -1.07996152 0 0 Z " fill="#E9E9FA" transform="translate(526,172)"/>
<path d="M0 0 C4.47544749 2.77111629 8.41580821 5.9365828 12.375 9.375 C17.12088084 13.44842886 21.93435008 17.32492065 27 21 C29.00287512 20.02672787 31.00205918 19.0458615 33 18.0625 C33.62140869 17.75691162 34.24281738 17.45132324 34.88305664 17.13647461 C38.40881958 15.37731738 41.85191769 13.53360335 45.24609375 11.53125 C45.94541016 11.12124756 46.64472656 10.71124512 47.36523438 10.28881836 C48.71934264 9.48748874 50.06614814 8.67365272 51.40429688 7.84594727 C55.74645723 5.28462935 58.82757459 4.43367605 64 5 C66.9375 6.5625 66.9375 6.5625 69 9 C69.40040892 12.80388473 69.20776206 15.37671381 68 19 C66.09057617 20.39013672 66.09057617 20.39013672 63.60546875 21.8046875 C62.69974121 22.32643555 61.79401367 22.84818359 60.86083984 23.38574219 C59.9167627 23.91844727 58.97268555 24.45115234 58 25 C57.11650879 25.50950195 56.23301758 26.01900391 55.32275391 26.54394531 C52.65803138 28.0805479 49.98633498 29.60431712 47.3125 31.125 C46.41466797 31.63675781 45.51683594 32.14851563 44.59179688 32.67578125 C42.8527996 33.666946 41.11285227 34.65644629 39.37182617 35.64404297 C37.88106756 36.49629962 36.39590618 37.35850129 34.91918945 38.23486328 C30.60671196 40.78487968 28.05586734 41.88699427 23 41 C21.19873047 39.87036133 21.19873047 39.87036133 19.3046875 38.39453125 C18.60448486 37.85086914 17.90428223 37.30720703 17.18286133 36.74707031 C13.61166102 33.88883193 10.07699712 30.99011411 6.5625 28.0625 C1.32677366 23.71239907 -3.91726073 19.42390123 -9.43359375 15.4296875 C-11.9269007 13.15400085 -12.84837466 10.84476975 -13.4375 7.5625 C-12.79885255 3.82185066 -10.84900811 2.38521609 -8 0 C-4.57086463 -1.14304512 -3.41406669 -1.0321597 0 0 Z " fill="#E9E9FA" transform="translate(666,167)"/>
<path d="M0 0 C7.10014061 4.03733486 10.99331228 7.83699744 13.1875 15.8125 C14.17392241 22.88857095 13.54495267 29.00679775 9.1875 34.8125 C5.17801986 38.98942943 1.10533119 42.5188098 -4.80078125 43.11328125 C-13.55511676 43.1441426 -18.92692742 42.65483567 -25.5625 36.625 C-30.07494766 31.78806172 -31.88871524 26.88336666 -32.25 20.3125 C-32.015931 14.14158998 -29.40009204 9.75289027 -25.5625 5.0625 C-17.66127193 -1.40214115 -9.90788793 -3.08606345 0 0 Z " fill="#E9E9FA" transform="translate(592.8125,137.1875)"/>
<path d="M0 0 C2.85574842 2.56285114 3.88997745 4.03992228 4.328125 7.86328125 C3.92367013 11.72967724 2.84850147 13.08610243 0.3125 16 C-0.5021875 16.94359375 -1.316875 17.8871875 -2.15625 18.859375 C-6.33728119 23.5109211 -10.59439974 28.09184042 -14.88671875 32.640625 C-17.61142282 35.5376051 -20.18181579 38.54242493 -22.71411133 41.60839844 C-24.8784742 43.95069355 -26.24532292 44.03111278 -29.48046875 44.44140625 C-35.3583423 44.35790996 -39.56168184 41.09697672 -44.3125 37.9375 C-45.23732178 37.34130859 -46.16214355 36.74511719 -47.11499023 36.13085938 C-48.93590541 34.95588939 -50.75256576 33.7742935 -52.56445312 32.58544922 C-54.5818213 31.27221857 -56.61107022 29.9971478 -58.671875 28.75390625 C-59.62578125 28.17511719 -60.5796875 27.59632813 -61.5625 27 C-62.34753906 26.525625 -63.13257813 26.05125 -63.94140625 25.5625 C-67.43558955 22.91036847 -69.77177517 20.36934898 -70.5 16 C-69.86089908 12.16539447 -68.89357127 10.59679473 -66 8 C-62.0313736 6.98780954 -59.79069115 6.66988086 -55.97387695 8.26342773 C-54.98863037 8.89708252 -54.00338379 9.5307373 -52.98828125 10.18359375 C-51.35729492 11.20356445 -51.35729492 11.20356445 -49.69335938 12.24414062 C-48.56559355 12.97400619 -47.43864745 13.70513984 -46.3125 14.4375 C-44.08643218 15.86458037 -41.8518627 17.27599078 -39.61328125 18.68359375 C-38.63141846 19.31837646 -37.64955566 19.95315918 -36.63793945 20.60717773 C-33.9076409 22.31127317 -33.9076409 22.31127317 -30 22 C-28.25641901 20.73187334 -28.25641901 20.73187334 -26.72265625 18.9296875 C-26.12646484 18.28 -25.53027344 17.6303125 -24.91601562 16.9609375 C-24.30435547 16.27257812 -23.69269531 15.58421875 -23.0625 14.875 C-22.45470703 14.20984375 -21.84691406 13.5446875 -21.22070312 12.859375 C-18.46677274 9.82916034 -15.77802914 6.75909238 -13.17578125 3.59765625 C-9.08707023 -1.28383895 -6.20166681 -1.66116075 0 0 Z " fill="#E9E9FA" transform="translate(850,183)"/>
<path d="M0 0 C5.20999245 3.52772983 10.90620383 9.22895123 12.25 15.5 C13.00181608 22.36181343 12.4169278 27.8623918 8.25 33.5 C2.61167957 39.70092941 -2.72684928 42.35530584 -11.125 42.9375 C-16.51433821 42.78142036 -20.54423127 40.7983327 -24.75 37.5 C-30.8212671 30.95779604 -32.17262988 25.66490765 -32.09375 16.80078125 C-31.44851907 10.60509789 -28.30066437 6.72237433 -23.8125 2.625 C-17.13055367 -2.01145255 -7.57786182 -3.86590693 0 0 Z " fill="#E9E9FA" transform="translate(238.75,139.5)"/>
<path d="M0 0 C5.43856326 4.17459014 8.34532211 9.31542551 9.4609375 16.078125 C9.76297795 21.72920444 8.42373967 26.21424849 5.08203125 30.78125 C0.98970542 35.04129411 -3.35441669 39.2986272 -9.3984375 40.1171875 C-17.10323466 40.22836783 -23.17838726 39.2115428 -28.99609375 33.875 C-34.37520702 28.01482782 -35.35930426 23.62477944 -35.25390625 15.73046875 C-34.58288038 9.83948582 -32.19288759 4.99760657 -27.9453125 0.859375 C-19.22949421 -5.98294964 -9.27463306 -5.89345319 0 0 Z " fill="#E9E9FA" transform="translate(333.91796875,133.21875)"/>
<path d="M0 0 C1.83944626 3.95552103 3.67051553 7.91486285 5.5 11.875 C6.02464844 13.00292969 6.54929687 14.13085938 7.08984375 15.29296875 C7.58613281 16.36933594 8.08242188 17.44570312 8.59375 18.5546875 C9.05458984 19.54968262 9.51542969 20.54467773 9.99023438 21.56982422 C11 24 11 24 11 26 C9.700625 26.20625 8.40125 26.4125 7.0625 26.625 C0.37855096 28.12654237 -4.34109229 31.96150409 -9.6953125 36.06640625 C-15.37193503 40.35945086 -20.09551311 43.18898704 -27 45 C-23.96715824 52.44790786 -20.74802764 59.78162866 -17.359375 67.07421875 C-13 76.45689655 -13 76.45689655 -13 80 C-14.32 80 -15.64 80 -17 80 C-21.65398117 70.16112234 -26.27496513 60.32477229 -30.58203125 50.328125 C-31.17909227 48.94765907 -31.77676695 47.56745842 -32.375 46.1875 C-32.67510986 45.49438721 -32.97521973 44.80127441 -33.28442383 44.0871582 C-35.13552706 39.8535844 -37.12144357 35.72856029 -39.25 31.625 C-41.84455563 26.5607604 -43.61022447 21.51033805 -45 16 C-43.68 15.67 -42.36 15.34 -41 15 C-40.67 15.66 -40.34 16.32 -40 17 C-31.30161526 16.7238608 -26.68876187 13.67692887 -19.97265625 8.41015625 C-13.78115707 3.59182125 -8.02315936 -0.14085894 0 0 Z " fill="#E9E9FA" transform="translate(672,85)"/>
<path d="M0 0 C1.83944626 3.95552103 3.67051553 7.91486285 5.5 11.875 C6.02464844 13.00292969 6.54929687 14.13085938 7.08984375 15.29296875 C7.58613281 16.36933594 8.08242188 17.44570312 8.59375 18.5546875 C9.05458984 19.54968262 9.51542969 20.54467773 9.99023438 21.56982422 C11 24 11 24 11 26 C9.741875 26.185625 8.48375 26.37125 7.1875 26.5625 C-0.23257199 28.2010017 -6.53088155 32.73795886 -12.1875 37.6875 C-17.20519628 41.81316138 -21.46937765 44.1202532 -28 44 C-27.66677734 44.7113208 -27.33355469 45.4226416 -26.99023438 46.15551758 C-25.48757486 49.37178689 -23.99369727 52.59205932 -22.5 55.8125 C-21.97535156 56.93205078 -21.45070313 58.05160156 -20.91015625 59.20507812 C-20.41386719 60.27822266 -19.91757812 61.35136719 -19.40625 62.45703125 C-18.94541016 63.44678955 -18.48457031 64.43654785 -18.00976562 65.45629883 C-17 68 -17 68 -17 71 C-18.485 71.495 -18.485 71.495 -20 72 C-25.34998655 61.46988202 -30.47653 50.85735536 -35.38452148 40.11401367 C-36.45551811 37.77311751 -37.53525452 35.43637243 -38.61523438 33.09960938 C-39.30521612 31.59399214 -39.99468911 30.08814163 -40.68359375 28.58203125 C-41.0033165 27.89244827 -41.32303925 27.2028653 -41.65245056 26.49238586 C-43.22948291 23.01783349 -44.45312131 19.78527628 -45 16 C-43.68 15.67 -42.36 15.34 -41 15 C-40.67 15.66 -40.34 16.32 -40 17 C-31.68110133 16.86582421 -27.45790994 14.00636138 -21 9 C-19.23735064 7.7178396 -17.46666526 6.44664218 -15.6875 5.1875 C-14.90761719 4.62417969 -14.12773437 4.06085938 -13.32421875 3.48046875 C-8.73093092 0.5546602 -5.41488277 -0.09547183 0 0 Z " fill="#E9E9FA" transform="translate(470,106)"/>
<path d="M0 0 C2.89654467 2.21134056 3.88811163 3.36898248 4.53125 6.99609375 C4.35596142 26.29974902 -3.72922499 40.37690353 -17 54 C-17.63550781 54.68578125 -18.27101562 55.3715625 -18.92578125 56.078125 C-25.80307491 63.31138624 -33.61049851 71.47192841 -44 72 C-47.57387602 70.41161066 -48.81089572 69.28365642 -51 66 C-50.9221897 61.79824385 -50.62104249 59.68510106 -47.765625 56.53515625 C-45.18807037 54.17239784 -42.55902804 51.97483301 -39.8125 49.8125 C-28.11432259 40.2526991 -18.0863009 30.00313419 -14 15 C-13.8664855 13.14877004 -13.78167741 11.29326804 -13.75 9.4375 C-13.45293333 5.68319191 -13.16362023 3.38369688 -10.375 0.75 C-6.22871736 -1.39992433 -4.42535402 -1.39316701 0 0 Z " fill="#E9E9FA" transform="translate(128,181)"/>
<path d="M0 0 C0.185625 1.155 0.37125 2.31 0.5625 3.5 C2.10449644 9.58172024 5.93899992 14.09822682 11.23828125 17.390625 C13.12069103 18.34018873 15.05687046 19.18184019 17 20 C14.92801524 22.07198476 12.85800047 24.13347469 10.72265625 26.140625 C6.89221939 30.16340804 3.80135929 34.64915861 0.63671875 39.20507812 C-2.76480122 43.90977783 -5.75863599 46.47127175 -11 49 C-8.83735988 52.98381075 -6.28788824 55.88983545 -3 59 C-3.33 59.99 -3.66 60.98 -4 62 C-7.38084042 61.4243719 -8.91243437 60.42260379 -11.20703125 57.90234375 C-11.7901709 57.2695752 -12.37331055 56.63680664 -12.97412109 55.98486328 C-13.58078613 55.3092334 -14.18745117 54.63360352 -14.8125 53.9375 C-15.43979004 53.25155762 -16.06708008 52.56561523 -16.71337891 51.85888672 C-20.32381712 47.89896034 -23.90524273 43.91213504 -27.40234375 39.8515625 C-30.55709007 36.19545062 -33.78716812 32.60504772 -37 29 C-36.01 27.515 -36.01 27.515 -35 26 C-34.13375 26.2475 -33.2675 26.495 -32.375 26.75 C-28.84397386 27.01155749 -27.36554097 26.61246074 -24.5625 24.48828125 C-21.27236858 21.35443107 -18.67787036 17.65429907 -16 14 C-5.60777958 0 -5.60777958 0 0 0 Z " fill="#E9E9FA" transform="translate(409,216)"/>
<path d="M0 0 C-0.08701172 1.01707031 -0.08701172 1.01707031 -0.17578125 2.0546875 C-0.62979892 11.42042346 2.32547187 17.69466907 8 25 C7.50371094 25.47308594 7.00742187 25.94617188 6.49609375 26.43359375 C2.82787197 30.00436751 -0.51908583 33.56505716 -3.5625 37.6875 C-6.65534867 41.76893044 -9.57125736 44.40960336 -14 47 C-15.32 47 -16.64 47 -18 47 C-15.30070588 51.95814397 -12.33786896 56.34975974 -8.8125 60.75 C-4.1329722 66.6010834 -4.1329722 66.6010834 -3 70 C-4.98 70.495 -4.98 70.495 -7 71 C-12.62341886 64.23830602 -17.80343494 57.20800919 -22.9074707 50.05078125 C-25.71848734 46.11903783 -28.56728964 42.234033 -31.5390625 38.421875 C-32.09948242 37.69822754 -32.65990234 36.97458008 -33.23730469 36.22900391 C-34.30816261 34.85323564 -35.38919129 33.48530853 -36.48144531 32.12646484 C-37.9296875 30.2578125 -37.9296875 30.2578125 -40 27 C-39.62939453 24.79638672 -39.62939453 24.79638672 -39 23 C-38.154375 23.2475 -37.30875 23.495 -36.4375 23.75 C-31.96899924 24.07498187 -29.44507453 22.62338279 -26 20 C-22.1173763 16.57568155 -18.74628153 12.73106749 -15.375 8.8125 C-10.79597032 3.50288356 -7.20539393 -0.18961563 0 0 Z " fill="#E9E9FA" transform="translate(597,198)"/>
<path d="M0 0 C6.01006283 3.34651226 9.42283941 8.72945573 11.5625 15.1484375 C12.28305214 22.11377488 10.67413587 26.49358922 6.5625 32.1484375 C2.24924752 36.91267348 -2.44069566 38.80917663 -8.75 39.5234375 C-15.34975987 38.85227548 -20.50921915 36.59828417 -24.9375 31.5859375 C-29.52576218 25.86335494 -29.15323534 19.18095333 -28.4375 12.1484375 C-26.59298491 6.72694221 -22.84898971 2.76960791 -17.875 0 C-12.10681951 -2.01516562 -5.76818049 -2.01516562 0 0 Z " fill="#E9E9FA" transform="translate(627.4375,185.8515625)"/>
<path d="M0 0 C5.94714662 5.65704191 9.64126481 9.63493384 10 18.125 C9.95967435 23.68321911 8.86956997 26.6694429 5.22265625 30.81640625 C-0.86572682 36.76153325 -4.60155656 37.92376769 -13.03125 37.83984375 C-19.09503253 37.12359421 -23.05654711 34.34899131 -26.875 29.6796875 C-30.24830953 24.08093071 -30.40133368 17.77491966 -29.4375 11.4375 C-27.50573 6.03388529 -23.86858833 2.08136133 -18.8828125 -0.71484375 C-12.67786891 -2.8657587 -5.94820739 -2.70373063 0 0 Z " fill="#E9E9FA" transform="translate(396.4375,159.5625)"/>
<path d="M0 0 C2.73499938 -0.23953589 4.90619901 -0.2702209 7.58349609 0.35693359 C10.23107294 2.73512386 11.63033524 5.57530129 13.20849609 8.73193359 C14.12379419 10.39240425 15.04435883 12.04998293 15.97021484 13.70458984 C16.41026855 14.50783691 16.85032227 15.31108398 17.30371094 16.13867188 C20.42418757 21.54741866 24.6632149 26.1444357 28.73974609 30.84130859 C31.43857122 34.52360389 32.0762878 37.83437742 31.58349609 42.35693359 C29.93153884 45.48524634 27.78797984 47.75469172 24.58349609 49.35693359 C20.6180121 49.9038969 18.04369516 50.2307979 14.56005859 48.14599609 C3.73635062 39.03354629 -3.49758745 26.50602623 -10.41650391 14.35693359 C-10.82964844 13.63280273 -11.24279297 12.90867187 -11.66845703 12.16259766 C-12.04421875 11.46618164 -12.41998047 10.76976562 -12.80712891 10.05224609 C-13.14260742 9.43623535 -13.47808594 8.82022461 -13.82373047 8.18554688 C-14.56413744 5.90150725 -14.17698466 4.59695128 -13.41650391 2.35693359 C-11.79404026 2.01146605 -10.1682993 1.6813914 -8.54150391 1.35693359 C-7.63658203 1.17130859 -6.73166016 0.98568359 -5.79931641 0.79443359 C-3.86427329 0.54417398 -1.93021668 0.28510576 0 0 Z " fill="#E9E9FA" transform="translate(257.41650390625,310.64306640625)"/>
<path d="M0 0 C4.14209674 2.93789955 7.28721191 6.52179198 8.89453125 11.34375 C9.37967607 16.85531333 9.66190441 21.72046062 7.26953125 26.78125 C3.00751818 31.37973779 -0.80853884 35.13280194 -7.10546875 36.34375 C-13.48483183 36.42714037 -18.14408414 35.61284838 -23.10546875 31.34375 C-27.48637061 26.90332502 -29.2064333 23.28394518 -29.41796875 17.09375 C-29.33404501 11.42423535 -27.54426248 6.97631091 -23.6796875 2.8046875 C-16.4630752 -3.57278383 -8.37643191 -4.62603735 0 0 Z " fill="#E9E9FA" transform="translate(440.10546875,197.65625)"/>
<path d="M0 0 C4.68803656 0.73048301 8.90885555 2.36636885 13.3125 4.0625 C14.42334961 4.48499023 14.42334961 4.48499023 15.55664062 4.91601562 C17.37242655 5.60718575 19.18639899 6.30311689 21 7 C20.05756236 13.36668981 18.46401661 19.56266131 16.93945312 25.80859375 C15.93372893 29.96405015 14.94693561 34.10565658 14.1796875 38.3125 C13.95539063 39.529375 13.73109375 40.74625 13.5 42 C13.3246875 43.051875 13.149375 44.10375 12.96875 45.1875 C11.73687735 48.76390446 9.8015384 50.5176242 7 53 C6.505 53.495 6.505 53.495 6 54 C-0.09009877 54.51611006 -3.1207178 54.04623402 -8 50 C-12.00114259 41.99771483 -8.23053343 29.92213374 -6.1875 21.75 C-5.92646484 20.64398438 -5.66542969 19.53796875 -5.39648438 18.3984375 C-3.89208911 12.14312486 -2.13205274 6.06962763 0 0 Z " fill="#E9E9FA" transform="translate(197,306)"/>
<path d="M0 0 C3.4375 0.8125 3.4375 0.8125 5.4375 3.8125 C6.08308271 14.95956142 1.58249367 27.38338304 -5.5625 35.8125 C-11.4023059 42.01577929 -17.30217815 45.80809219 -25.9375 46.1875 C-34.9927263 45.82964741 -45.07758505 42.29741495 -51.5625 35.8125 C-52.11271834 29.76009825 -52.11271834 29.76009825 -50.4375 26.875 C-47.49632324 25.20833317 -45.94477426 25.32053284 -42.5625 25.8125 C-40.93790939 26.58335167 -39.33507329 27.4008536 -37.75 28.25 C-31.53661128 31.51529437 -26.76098518 32.74998704 -19.9375 30.75 C-12.82580758 25.97028114 -9.65925089 15.02661321 -7.8125 7.0625 C-7.63203125 6.09828125 -7.4515625 5.1340625 -7.265625 4.140625 C-6.02815806 0.04323446 -4.01887236 -0.2115196 0 0 Z " fill="#E9E9FA" transform="translate(237.5625,197.1875)"/>
<path d="M0 0 C11.93210788 6.86767624 19.0892332 19.26538869 22.61328125 32.26171875 C24.24420765 43.80999558 24.49532832 57.4333656 19 68 C16.7452246 70.05504136 15.49676166 70.90064767 12.5 71.5 C10 71 10 71 7.765625 68.82421875 C6 66 6 66 6.265625 63.30078125 C6.59046875 62.31464844 6.9153125 61.32851562 7.25 60.3125 C10.29783628 48.92185762 10.96324189 36.51323834 5.6953125 25.69140625 C2.25702419 20.2329255 -1.96170969 15.15586512 -7.24609375 11.40625 C-9 10 -9 10 -9.5 7.0625 C-9 4 -9 4 -7.3125 1.625 C-4.49388332 -0.35564956 -3.38586508 -0.39775214 0 0 Z " fill="#E9E9FA" transform="translate(343,187)"/>
<path d="M0 0 C2.45379528 3.75381928 2.27403674 6.75516075 1.73046875 11.078125 C-0.62013439 20.48053755 -6.30405918 29.97708182 -14.70996094 35.02734375 C-24.48963992 40.56505618 -34.48000503 45.1519995 -46 44 C-48.375 42.9375 -48.375 42.9375 -50 41 C-51 37.5625 -51 37.5625 -51 34 C-48.60863868 30.86649207 -46.53264567 29.20718174 -42.6015625 28.67578125 C-41.61929688 28.55589844 -40.63703125 28.43601562 -39.625 28.3125 C-31.25731176 26.93464749 -23.0047872 24.00699102 -17.4375 17.3125 C-14.79483954 13.30987392 -13.70496276 9.08039863 -12.73828125 4.41796875 C-11.92547013 1.75590481 -11.18498501 0.68525608 -9 -1 C-5.17211056 -2.27596315 -3.63343017 -1.62344752 0 0 Z " fill="#E9E9FA" transform="translate(637,241)"/>
<path d="M0 0 C3 0.25 3 0.25 5 2.25 C6.20441853 11.48387541 1.94964465 20.94035289 -3.3828125 28.2890625 C-8.99614639 35.09556881 -16.55632947 40.12844158 -25.37890625 41.6640625 C-28.28118364 41.78165017 -30.49869346 41.52343993 -33.0625 40.125 C-34.51316732 37.22366536 -33.90451694 35.28659258 -33 32.25 C-30.14655144 30.34770096 -28.55690907 29.82139631 -25.3125 29.0625 C-18.91890418 27.18642298 -14.17458123 23.89425234 -10.72265625 18.109375 C-8.63247711 13.59774305 -7.13751281 8.85570449 -5.7109375 4.09765625 C-4.46060813 0.84817388 -3.45006567 0.28750547 0 0 Z " fill="#E9E9FA" transform="translate(436,248.75)"/>
<path d="M0 0 C1.65 0.66 3.3 1.32 5 2 C-0.19970271 9.51068169 -6.47199125 15.66212743 -13 22 C-14.32 21.34 -15.64 20.68 -17 20 C-15.35996677 15.98674221 -12.55124416 13.11105958 -9.625 10 C-9.14289062 9.47921875 -8.66078125 8.9584375 -8.1640625 8.421875 C-5.50002964 5.55514398 -2.78689283 2.74726877 0 0 Z " fill="#EAEAFA" transform="translate(781,208)"/>
<path d="M0 0 C2.875 1.125 2.875 1.125 6 3 C7.375 6.1875 7.375 6.1875 8 9 C6.02 9.99 6.02 9.99 4 11 C3.32880451 9.5437455 2.66318193 8.08492133 2 6.625 C1.62875 5.81289062 1.2575 5.00078125 0.875 4.1640625 C0 2 0 2 0 0 Z " fill="#EBEBFA" transform="translate(460,200)"/>
</svg>
